<?xml version="1.0" encoding="UTF-8" standalone="no"?>
<!-- Created with Inkscape (http://www.inkscape.org/) -->

<svg
   xmlns:dc="http://purl.org/dc/elements/1.1/"
   xmlns:cc="http://creativecommons.org/ns#"
   xmlns:rdf="http://www.w3.org/1999/02/22-rdf-syntax-ns#"
   xmlns:svg="http://www.w3.org/2000/svg"
   xmlns="http://www.w3.org/2000/svg"
   xmlns:xlink="http://www.w3.org/1999/xlink"
   xmlns:sodipodi="http://sodipodi.sourceforge.net/DTD/sodipodi-0.dtd"
   xmlns:inkscape="http://www.inkscape.org/namespaces/inkscape"
   width="128"
   height="128"
   id="svg9002"
   sodipodi:version="0.32"
   inkscape:version="0.46+devel"
   version="1.0"
   sodipodi:docname="view-pim-contacts.svgz"
   inkscape:output_extension="org.inkscape.output.svgz.inkscape"
   inkscape:export-filename="/home/pinheiro/pics/oxygen-icons/scalable/actions/small/16x16/view-pim-contacts.png"
   inkscape:export-xdpi="22.5"
   inkscape:export-ydpi="22.5">
  <defs
     id="defs9004">
    <filter
       inkscape:collect="always"
       id="filter7317">
      <feGaussianBlur
         inkscape:collect="always"
         stdDeviation="2.8805897"
         id="feGaussianBlur7319" />
    </filter>
    <linearGradient
       id="linearGradient4296">
      <stop
         id="stop4298"
         offset="0"
         style="stop-color:#00ff00;stop-opacity:1" />
      <stop
         id="stop4300"
         offset="1"
         style="stop-color:#006500;stop-opacity:1" />
    </linearGradient>
    <filter
       inkscape:collect="always"
       id="filter3574"
       x="-0.17129332"
       y="-0.074019866"
       width="1.3425866"
       height="1.1480397">
      <feGaussianBlur
         inkscape:collect="always"
         id="feGaussianBlur3576"
         stdDeviation="0.57604943" />
    </filter>
    <linearGradient
       inkscape:collect="always"
       id="linearGradient3586">
      <stop
         offset="0"
         id="stop3588"
         style="stop-color:#000000;stop-opacity:1;" />
      <stop
         offset="1"
         id="stop3590"
         style="stop-color:#000000;stop-opacity:0;" />
    </linearGradient>
    <linearGradient
       inkscape:collect="always"
       id="linearGradient3578">
      <stop
         offset="0"
         id="stop3580"
         style="stop-color:#c8cddc;stop-opacity:1;" />
      <stop
         offset="1"
         id="stop3582"
         style="stop-color:#c8cddc;stop-opacity:0;" />
    </linearGradient>
    <linearGradient
       id="linearGradient8882"
       inkscape:collect="always">
      <stop
         style="stop-color:#f9ccca;stop-opacity:1"
         id="stop8884"
         offset="0" />
      <stop
         style="stop-color:#c8cddc;stop-opacity:0;"
         id="stop8886"
         offset="1" />
    </linearGradient>
    <linearGradient
       id="linearGradient8894"
       inkscape:collect="always">
      <stop
         style="stop-color:#f9ccca;stop-opacity:1"
         id="stop8896"
         offset="0" />
      <stop
         style="stop-color:#bbc1d4;stop-opacity:0;"
         id="stop8898"
         offset="1" />
    </linearGradient>
    <filter
       inkscape:collect="always"
       id="filter3339"
       x="-0.083255699"
       y="-0.42668505"
       width="1.1665114"
       height="1.8533701">
      <feGaussianBlur
         inkscape:collect="always"
         id="feGaussianBlur3341"
         stdDeviation="0.50285367" />
    </filter>
    <linearGradient
       id="linearGradient8900"
       inkscape:collect="always">
      <stop
         style="stop-color:#f9ccca;stop-opacity:1"
         id="stop8902"
         offset="0" />
      <stop
         style="stop-color:#bbc1d4;stop-opacity:0;"
         id="stop8904"
         offset="1" />
    </linearGradient>
    <filter
       inkscape:collect="always"
       id="filter3283"
       x="-0.020813678"
       y="-0.13193184"
       width="1.0416274"
       height="1.2638637">
      <feGaussianBlur
         inkscape:collect="always"
         id="feGaussianBlur3285"
         stdDeviation="0.60896269" />
    </filter>
    <clipPath
       id="clipPath3289"
       clipPathUnits="userSpaceOnUse">
      <path
         d="M 463.75,435.375 C 462.47221,435.58506 461.71617,436.60113 461.75,437.375 C 461.67075,437.40672 460.87251,438.49769 460.79289,438.52941 C 462.04491,442.53121 465.95016,446.80149 477.54289,446.49816 C 489.04307,446.19726 493.45299,441.22873 494.71875,437.5625 C 494.5676,437.5025 494.39985,437.43497 494.25,437.375 C 494.28383,436.60113 493.52779,435.58506 492.25,435.375 C 489.83637,439.11764 488.24281,442.77637 478,443.0625 C 467.75719,443.34864 464.63251,439.11371 463.75,435.375 z M 459.125,438.40625 C 453.68198,440.50508 447.66707,442.67009 441.90625,445.28125 C 447.80188,443.05208 453.52791,442.11601 458.76072,440.15441 C 458.75013,439.92745 459.01107,438.6493 459.125,438.40625 z M 497.46875,438.625 C 497.52198,438.79302 497.56984,438.93659 497.5625,439.09375 C 501.77057,440.67121 506.39991,442.24968 511.125,443.96875 C 506.49146,442.00962 501.81994,440.29346 497.46875,438.625 z "
         id="path3291"
         style="fill:#f4f5f8;fill-opacity:1;fill-rule:evenodd;stroke:#98a2bf;stroke-width:1px;stroke-linecap:butt;stroke-linejoin:miter;stroke-opacity:1;filter:url(#filter3283)"
         sodipodi:nodetypes="cccscccsccccccccc" />
    </clipPath>
    <filter
       inkscape:collect="always"
       id="filter3393">
      <feGaussianBlur
         inkscape:collect="always"
         id="feGaussianBlur3395"
         stdDeviation="0.49977699" />
    </filter>
    <linearGradient
       inkscape:collect="always"
       id="linearGradient4126">
      <stop
         offset="0"
         id="stop4128"
         style="stop-color:#ffffff;stop-opacity:1;" />
      <stop
         offset="1"
         id="stop4130"
         style="stop-color:#ffffff;stop-opacity:0;" />
    </linearGradient>
    <filter
       inkscape:collect="always"
       id="filter4059">
      <feGaussianBlur
         inkscape:collect="always"
         id="feGaussianBlur4061"
         stdDeviation="1.5449742" />
    </filter>
    <clipPath
       id="clipPath4063"
       clipPathUnits="userSpaceOnUse">
      <path
         id="path4065"
         d="M 410.16587,443.06739 C 399.92306,443.35352 396.79838,439.11371 395.91587,435.375 C 394.63808,435.58506 393.88204,436.60113 393.91587,437.375 C 386.83254,440.20988 378.26803,443.06735 370.66587,446.875 C 367.84405,448.28835 364.62926,452.59537 363.79087,454.875 C 361.23389,461.82756 358.41587,471.625 358.41587,471.625 L 359.91587,473.375 C 375.56063,482.28715 396.79503,481.875 410.16587,481.875 C 423.53671,481.875 444.77111,482.28715 460.41587,473.375 L 461.91587,471.625 C 461.91587,471.625 459.09785,461.82756 456.54087,454.875 C 455.70248,452.59537 452.48769,448.28835 449.66587,446.875 C 442.06371,443.06735 433.4992,440.20988 426.41587,437.375 C 426.4497,436.60113 425.69366,435.58506 424.41587,435.375 C 422.00224,439.11764 420.40868,442.78126 410.16587,443.06739 z "
         style="fill:#f4f5f8;fill-opacity:1;fill-rule:evenodd;stroke:none;stroke-width:1px;stroke-linecap:butt;stroke-linejoin:miter;stroke-opacity:1"
         sodipodi:nodetypes="cccssccsccssccz" />
    </clipPath>
    <linearGradient
       id="linearGradient8914"
       inkscape:collect="always">
      <stop
         style="stop-color:#9c0f0f;stop-opacity:1"
         id="stop8916"
         offset="0" />
      <stop
         style="stop-color:#8d97b7;stop-opacity:0;"
         id="stop8918"
         offset="1" />
    </linearGradient>
    <filter
       inkscape:collect="always"
       id="filter3493">
      <feGaussianBlur
         inkscape:collect="always"
         id="feGaussianBlur3495"
         stdDeviation="1.105682" />
    </filter>
    <linearGradient
       id="linearGradient8888"
       inkscape:collect="always">
      <stop
         style="stop-color:#f9ccca;stop-opacity:1"
         id="stop8890"
         offset="0" />
      <stop
         style="stop-color:#c8cddc;stop-opacity:0;"
         id="stop8892"
         offset="1" />
    </linearGradient>
    <linearGradient
       inkscape:collect="always"
       id="linearGradient8906">
      <stop
         style="stop-color:#bf0303;stop-opacity:1"
         offset="0"
         id="stop8908" />
      <stop
         style="stop-color:#f08682;stop-opacity:1"
         offset="1"
         id="stop8910" />
    </linearGradient>
    <filter
       inkscape:collect="always"
       id="filter3775"
       x="-0.18809821"
       y="-0.059054089"
       width="1.3761964"
       height="1.1181082">
      <feGaussianBlur
         inkscape:collect="always"
         id="feGaussianBlur3777"
         stdDeviation="0.26451311" />
    </filter>
    <linearGradient
       id="linearGradient3733">
      <stop
         offset="0"
         id="stop3735"
         style="stop-color:#e2e2e2;stop-opacity:1;" />
      <stop
         offset="1"
         id="stop3737"
         style="stop-color:#ffffff;stop-opacity:1;" />
    </linearGradient>
    <filter
       inkscape:collect="always"
       id="filter3569"
       x="-0.1148592"
       y="-0.086798316"
       width="1.2297184"
       height="1.1735966">
      <feGaussianBlur
         inkscape:collect="always"
         id="feGaussianBlur3571"
         stdDeviation="0.6238629" />
    </filter>
    <linearGradient
       inkscape:collect="always"
       id="linearGradient3581">
      <stop
         offset="0"
         id="stop3583"
         style="stop-color:#dfcbba;stop-opacity:1;" />
      <stop
         offset="1"
         id="stop3585"
         style="stop-color:#dfcbba;stop-opacity:0;" />
    </linearGradient>
    <filter
       inkscape:collect="always"
       id="filter3625">
      <feGaussianBlur
         inkscape:collect="always"
         id="feGaussianBlur3627"
         stdDeviation="0.34264273" />
    </filter>
    <linearGradient
       inkscape:collect="always"
       id="linearGradient3499">
      <stop
         offset="0"
         id="stop3501"
         style="stop-color:#ffffff;stop-opacity:1;" />
      <stop
         offset="1"
         id="stop3503"
         style="stop-color:#ffffff;stop-opacity:0;" />
    </linearGradient>
    <filter
       inkscape:collect="always"
       id="filter3479"
       x="-0.028506439"
       y="-0.10615479"
       width="1.0570129"
       height="1.2123096">
      <feGaussianBlur
         inkscape:collect="always"
         id="feGaussianBlur3481"
         stdDeviation="0.4439284" />
    </filter>
    <linearGradient
       inkscape:collect="always"
       id="linearGradient3489">
      <stop
         offset="0"
         id="stop3491"
         style="stop-color:#765c44;stop-opacity:1;" />
      <stop
         offset="1"
         id="stop3493"
         style="stop-color:#765c44;stop-opacity:0;" />
    </linearGradient>
    <linearGradient
       inkscape:collect="always"
       id="linearGradient3368">
      <stop
         offset="0"
         id="stop3370"
         style="stop-color:#e5d3c3;stop-opacity:1;" />
      <stop
         offset="1"
         id="stop3372"
         style="stop-color:#e5d3c3;stop-opacity:0;" />
    </linearGradient>
    <filter
       inkscape:collect="always"
       id="filter3420">
      <feGaussianBlur
         inkscape:collect="always"
         id="feGaussianBlur3422"
         stdDeviation="1.110954" />
    </filter>
    <clipPath
       id="clipPath3429"
       clipPathUnits="userSpaceOnUse">
      <path
         id="path3431"
         d="M 303.70236,398.81874 L 303.52558,385.56049 L 306.17724,378.31265 L 311.48054,376.54488 L 319.96582,379.19653 L 327.39044,380.61074 L 334.63828,376.89843 L 339.94158,376.89843 L 343.65389,382.02496 L 345.59844,390.15668 L 345.42166,395.45998 L 345.77521,397.40453 L 337.99704,382.37851 L 328.4511,386.09082 L 321.55681,386.2676 L 311.12698,381.31785 L 303.70236,398.81874 z "
         style="fill:none;fill-opacity:0.75;fill-rule:evenodd;stroke:#000000;stroke-width:1px;stroke-linecap:butt;stroke-linejoin:miter;stroke-opacity:1" />
    </clipPath>
    <linearGradient
       inkscape:collect="always"
       id="linearGradient3433">
      <stop
         offset="0"
         id="stop3435"
         style="stop-color:#ffffff;stop-opacity:1;" />
      <stop
         offset="1"
         id="stop3437"
         style="stop-color:#ffffff;stop-opacity:0;" />
    </linearGradient>
    <filter
       inkscape:collect="always"
       id="filter3833"
       x="-0.15930008"
       y="-0.071685554"
       width="1.3186002"
       height="1.1433711">
      <feGaussianBlur
         inkscape:collect="always"
         id="feGaussianBlur3835"
         stdDeviation="0.10560268" />
    </filter>
    <linearGradient
       inkscape:collect="always"
       id="linearGradient3837">
      <stop
         offset="0"
         id="stop3839"
         style="stop-color:#f1e4d4;stop-opacity:1;" />
      <stop
         offset="1"
         id="stop3841"
         style="stop-color:#f1e4d4;stop-opacity:0;" />
    </linearGradient>
    <filter
       inkscape:collect="always"
       id="filter3325">
      <feGaussianBlur
         inkscape:collect="always"
         id="feGaussianBlur3327"
         stdDeviation="0.16076312" />
    </filter>
    <linearGradient
       inkscape:collect="always"
       id="linearGradient3329">
      <stop
         offset="0"
         id="stop3331"
         style="stop-color:#f9eee2;stop-opacity:1;" />
      <stop
         offset="1"
         id="stop3333"
         style="stop-color:#f9eee2;stop-opacity:0;" />
    </linearGradient>
    <mask
       id="mask3287"
       maskUnits="userSpaceOnUse">
      <path
         id="path3289"
         d="M 412.56716,362.7206 C 404.7906,362.9256 395.78945,368.58113 392.66091,375.5331 C 389.47419,382.61431 389.9381,391.06936 391.84841,400.8456 C 393.75873,410.62183 400.03668,420.79216 403.22341,424.4706 C 406.24381,427.95705 410.11265,427.32692 412.56716,427.25185 C 412.69296,427.25185 412.8695,427.24772 413.00466,427.25185 C 415.45917,427.32692 419.32801,427.95705 422.34841,424.4706 C 425.53514,420.79216 431.81309,410.62183 433.72341,400.8456 C 435.63374,391.06936 436.09763,382.61431 432.91091,375.5331 C 429.78236,368.58113 420.78122,362.9256 413.00466,362.7206 L 412.56716,362.7206 z "
         sodipodi:nodetypes="csssssssscc" />
    </mask>
    <linearGradient
       id="linearGradient3163">
      <stop
         offset="0"
         id="stop3165"
         style="stop-color:#fff5e4;stop-opacity:1;" />
      <stop
         offset="0.25"
         id="stop3173"
         style="stop-color:#ffecd0;stop-opacity:1;" />
      <stop
         offset="0.5"
         id="stop3171"
         style="stop-color:#ffd390;stop-opacity:1;" />
      <stop
         offset="1"
         id="stop3167"
         style="stop-color:#ffc46a;stop-opacity:1;" />
    </linearGradient>
    <linearGradient
       id="linearGradient3149-735">
      <stop
         offset="0"
         id="stop5584"
         style="stop-color:#faf0e4;stop-opacity:1;" />
      <stop
         offset="0.591133"
         id="stop5586"
         style="stop-color:#f8e7d4;stop-opacity:1;" />
      <stop
         offset="1"
         id="stop5588"
         style="stop-color:#f1cfa9;stop-opacity:1;" />
    </linearGradient>
    <filter
       inkscape:collect="always"
       id="filter3694">
      <feGaussianBlur
         inkscape:collect="always"
         id="feGaussianBlur3696"
         stdDeviation="1.640636" />
    </filter>
    <clipPath
       id="clipPath3705"
       clipPathUnits="userSpaceOnUse">
    </clipPath>
    <linearGradient
       id="linearGradient3654">
      <stop
         offset="0"
         id="stop3656"
         style="stop-color:#f9ede0;stop-opacity:1;" />
      <stop
         offset="0.5"
         id="stop3670"
         style="stop-color:#f9ede0;stop-opacity:0.80575538;" />
      <stop
         offset="1"
         id="stop3658"
         style="stop-color:#f9ede0;stop-opacity:0;" />
    </linearGradient>
    <filter
       inkscape:collect="always"
       id="filter3624">
      <feGaussianBlur
         inkscape:collect="always"
         id="feGaussianBlur3626"
         stdDeviation="1.1236176" />
    </filter>
    <filter
       inkscape:collect="always"
       x="-0.10290141"
       width="1.2058028"
       y="-0.089966137"
       height="1.1799323"
       id="filter8878">
      <feGaussianBlur
         inkscape:collect="always"
         stdDeviation="1.7150235"
         id="feGaussianBlur8880" />
    </filter>
    <linearGradient
       id="XMLID_5_"
       gradientUnits="userSpaceOnUse"
       x1="28"
       y1="56"
       x2="28"
       y2="8.0005"
       gradientTransform="translate(0,1)">
      <stop
         offset="0"
         style="stop-color:#A4C0E4"
         id="stop8163" />
      <stop
         offset="1"
         style="stop-color:#6193CF"
         id="stop8165" />
    </linearGradient>
    <linearGradient
       y2="70"
       x2="60.0005"
       y1="72"
       x1="60.0005"
       gradientUnits="userSpaceOnUse"
       id="XMLID_14_">
      <stop
         id="stop8131"
         style="stop-color:#BBBBBB"
         offset="0" />
      <stop
         id="stop8133"
         style="stop-color:#555555"
         offset="1" />
    </linearGradient>
    <linearGradient
       y2="-13.1904"
       x2="31.6279"
       y1="106.8096"
       x1="128.6279"
       gradientUnits="userSpaceOnUse"
       id="XMLID_11_">
      <stop
         id="stop8115"
         style="stop-color:#2C72C7"
         offset="0" />
      <stop
         id="stop8117"
         style="stop-color:#A4C0E4"
         offset="1" />
    </linearGradient>
    <linearGradient
       id="XMLID_10_"
       gradientUnits="userSpaceOnUse"
       x1="26.27"
       y1="-19.9668"
       x2="109.9365"
       y2="138.7002"
       gradientTransform="translate(0,1)">
      <stop
         offset="0"
         style="stop-color:#D9DEE4"
         id="stop8104" />
      <stop
         offset="0.2899"
         style="stop-color:#FFFFFF"
         id="stop8106" />
      <stop
         offset="1"
         style="stop-color:#C5C9CF"
         id="stop8108" />
    </linearGradient>
    <filter
       inkscape:collect="always"
       id="filter3372">
      <feGaussianBlur
         inkscape:collect="always"
         stdDeviation="2.2402508"
         id="feGaussianBlur3374" />
    </filter>
    <linearGradient
       inkscape:collect="always"
       xlink:href="#linearGradient3163"
       id="linearGradient3423"
       gradientUnits="userSpaceOnUse"
       x1="412.78592"
       y1="400.84558"
       x2="412.78592"
       y2="422.63611" />
    <linearGradient
       inkscape:collect="always"
       xlink:href="#linearGradient3433"
       id="linearGradient3431"
       gradientUnits="userSpaceOnUse"
       x1="324.65039"
       y1="398.85446"
       x2="325.7691"
       y2="370.57019" />
    <linearGradient
       inkscape:collect="always"
       xlink:href="#linearGradient8914"
       id="linearGradient3447"
       gradientUnits="userSpaceOnUse"
       x1="414.41586"
       y1="458.62646"
       x2="461.90625"
       y2="458.62648" />
    <linearGradient
       gradientUnits="userSpaceOnUse"
       y2="38.818275"
       x2="70.289223"
       y1="38.592541"
       x1="65.367043"
       id="linearGradient3397"
       xlink:href="#XMLID_11_"
       inkscape:collect="always" />
    <linearGradient
       inkscape:collect="always"
       xlink:href="#linearGradient4296"
       id="linearGradient17175"
       gradientUnits="userSpaceOnUse"
       x1="328.12448"
       y1="120.81158"
       x2="336.98077"
       y2="87.759453" />
    <linearGradient
       inkscape:collect="always"
       xlink:href="#XMLID_5_"
       id="linearGradient3856"
       gradientUnits="userSpaceOnUse"
       gradientTransform="matrix(1.2,0,0,1.1666666,6.4000015,14.666665)"
       x1="28"
       y1="56"
       x2="28"
       y2="8.0005" />
    <linearGradient
       inkscape:collect="always"
       xlink:href="#linearGradient3163"
       id="linearGradient3865"
       gradientUnits="userSpaceOnUse"
       x1="412.78592"
       y1="400.84558"
       x2="412.78592"
       y2="422.63611" />
    <linearGradient
       inkscape:collect="always"
       xlink:href="#linearGradient3433"
       id="linearGradient3873"
       gradientUnits="userSpaceOnUse"
       x1="324.65039"
       y1="398.85446"
       x2="325.7691"
       y2="370.57019" />
    <linearGradient
       inkscape:collect="always"
       xlink:href="#linearGradient8914"
       id="linearGradient3889"
       gradientUnits="userSpaceOnUse"
       x1="414.41586"
       y1="458.62646"
       x2="461.90625"
       y2="458.62648" />
    <linearGradient
       inkscape:collect="always"
       xlink:href="#linearGradient3163"
       id="linearGradient3933"
       gradientUnits="userSpaceOnUse"
       x1="412.78592"
       y1="400.84558"
       x2="412.78592"
       y2="422.63611" />
    <linearGradient
       inkscape:collect="always"
       xlink:href="#linearGradient3433"
       id="linearGradient3935"
       gradientUnits="userSpaceOnUse"
       x1="324.65039"
       y1="398.85446"
       x2="325.7691"
       y2="370.57019" />
    <linearGradient
       inkscape:collect="always"
       xlink:href="#linearGradient8914"
       id="linearGradient3937"
       gradientUnits="userSpaceOnUse"
       x1="414.41586"
       y1="458.62646"
       x2="461.90625"
       y2="458.62648" />
    <linearGradient
       inkscape:collect="always"
       xlink:href="#XMLID_10_"
       id="linearGradient3941"
       gradientUnits="userSpaceOnUse"
       x1="6.3379517"
       y1="-33.879009"
       x2="153.43973"
       y2="197.64415" />
    <clipPath
       clipPathUnits="userSpaceOnUse"
       id="clipPath4017">
      <rect
         style="opacity:0.5;fill:url(#linearGradient4021);stroke:none"
         x="-136"
         y="0"
         width="48"
         height="56"
         id="rect4019" />
    </clipPath>
    <linearGradient
       inkscape:collect="always"
       xlink:href="#XMLID_5_"
       id="linearGradient4021"
       gradientUnits="userSpaceOnUse"
       gradientTransform="matrix(1.2,0,0,1.1666666,-145.6,-9.333335)"
       x1="28"
       y1="56"
       x2="28"
       y2="8.0005" />
    <radialGradient
       inkscape:collect="always"
       xlink:href="#linearGradient3654"
       id="radialGradient4023"
       gradientUnits="userSpaceOnUse"
       gradientTransform="matrix(0.696437,0,0,1.188967,-175.09425,-439.0428)"
       cx="312"
       cy="431.38034"
       fx="311.27777"
       fy="433.70554"
       r="16.25" />
    <radialGradient
       inkscape:collect="always"
       xlink:href="#linearGradient3654"
       id="radialGradient4025"
       gradientUnits="userSpaceOnUse"
       gradientTransform="matrix(-0.696437,0,0,1.188967,285.63744,-439.0428)"
       cx="312"
       cy="431.38034"
       fx="311.27777"
       fy="433.70554"
       r="16.25" />
    <radialGradient
       inkscape:collect="always"
       xlink:href="#linearGradient3149-735"
       id="radialGradient4027"
       gradientUnits="userSpaceOnUse"
       gradientTransform="matrix(1.0059645,0,0,1.4472234,-271.44676,-535.35257)"
       cx="324.39757"
       cy="396.09259"
       fx="330.04404"
       fy="392.75388"
       r="22.444886" />
    <linearGradient
       inkscape:collect="always"
       xlink:href="#linearGradient3163"
       id="linearGradient4029"
       gradientUnits="userSpaceOnUse"
       x1="412.78592"
       y1="400.84558"
       x2="412.78592"
       y2="422.63611" />
    <linearGradient
       inkscape:collect="always"
       xlink:href="#linearGradient3329"
       id="linearGradient4031"
       gradientUnits="userSpaceOnUse"
       gradientTransform="translate(-372.5,-324.5)"
       x1="317.01251"
       y1="431.1243"
       x2="331.42062"
       y2="418.65884" />
    <radialGradient
       inkscape:collect="always"
       xlink:href="#linearGradient3837"
       id="radialGradient4033"
       gradientUnits="userSpaceOnUse"
       gradientTransform="matrix(1,0,0,2.5768702,43.133514,-626.29699)"
       cx="303.71943"
       cy="397.17727"
       fx="303.71943"
       fy="397.17727"
       r="0.79621875" />
    <radialGradient
       inkscape:collect="always"
       xlink:href="#linearGradient3837"
       id="radialGradient4035"
       gradientUnits="userSpaceOnUse"
       gradientTransform="matrix(1,0,0,2.5768702,-372.5,-950.79699)"
       cx="303.71943"
       cy="397.17727"
       fx="303.71943"
       fy="397.17727"
       r="0.79621875" />
    <linearGradient
       inkscape:collect="always"
       xlink:href="#linearGradient3433"
       id="linearGradient4037"
       gradientUnits="userSpaceOnUse"
       x1="324.65039"
       y1="398.85446"
       x2="325.7691"
       y2="370.57019" />
    <radialGradient
       inkscape:collect="always"
       xlink:href="#linearGradient3368"
       id="radialGradient4039"
       gradientUnits="userSpaceOnUse"
       gradientTransform="matrix(-0.7020433,-0.1106778,0.08385981,-0.5312371,265.2384,247.24451)"
       cx="332.49338"
       cy="369.61789"
       fx="332.49338"
       fy="369.61789"
       r="22.779817" />
    <linearGradient
       inkscape:collect="always"
       xlink:href="#linearGradient3489"
       id="linearGradient4041"
       gradientUnits="userSpaceOnUse"
       x1="304.88664"
       y1="385.86126"
       x2="345.62039"
       y2="384.62384" />
    <linearGradient
       inkscape:collect="always"
       xlink:href="#linearGradient3499"
       id="linearGradient4043"
       gradientUnits="userSpaceOnUse"
       gradientTransform="translate(-372.5,-324.5)"
       x1="330.09335"
       y1="407.39011"
       x2="320.36423"
       y2="367.39182" />
    <linearGradient
       inkscape:collect="always"
       xlink:href="#linearGradient3581"
       id="linearGradient4045"
       gradientUnits="userSpaceOnUse"
       gradientTransform="translate(-372.5,-324.5)"
       x1="353.44516"
       y1="390.86218"
       x2="339.76785"
       y2="373.61218" />
    <linearGradient
       inkscape:collect="always"
       xlink:href="#linearGradient3733"
       id="linearGradient4047"
       gradientUnits="userSpaceOnUse"
       gradientTransform="matrix(0.5366445,0,0,1.8634309,-372.5,-324.5)"
       x1="563.64667"
       y1="214.96599"
       x2="568.9887"
       y2="214.96599" />
    <linearGradient
       inkscape:collect="always"
       xlink:href="#linearGradient8906"
       id="linearGradient4049"
       gradientUnits="userSpaceOnUse"
       x1="52.461521"
       y1="127.04261"
       x2="60.561855"
       y2="86.540939" />
    <linearGradient
       inkscape:collect="always"
       xlink:href="#linearGradient8888"
       id="linearGradient4051"
       gradientUnits="userSpaceOnUse"
       gradientTransform="translate(-372.5,-324.5)"
       x1="283.50647"
       y1="463.03894"
       x2="312.78384"
       y2="443.03894" />
    <linearGradient
       inkscape:collect="always"
       xlink:href="#linearGradient8914"
       id="linearGradient4053"
       gradientUnits="userSpaceOnUse"
       x1="414.41586"
       y1="458.62646"
       x2="461.90625"
       y2="458.62648" />
    <linearGradient
       inkscape:collect="always"
       xlink:href="#linearGradient4126"
       id="linearGradient4055"
       gradientUnits="userSpaceOnUse"
       gradientTransform="translate(-372.5,-324.5)"
       x1="326"
       y1="476.40894"
       x2="310.53195"
       y2="429.73987" />
    <linearGradient
       inkscape:collect="always"
       xlink:href="#linearGradient8900"
       id="linearGradient4057"
       gradientUnits="userSpaceOnUse"
       gradientTransform="translate(-372.5,-324.5)"
       x1="315.72318"
       y1="453.0892"
       x2="290.62091"
       y2="434.35086" />
    <linearGradient
       inkscape:collect="always"
       xlink:href="#linearGradient8894"
       id="linearGradient4059"
       gradientUnits="userSpaceOnUse"
       gradientTransform="translate(58.5,26.5)"
       x1="315.72318"
       y1="453.0892"
       x2="290.62091"
       y2="434.35086" />
    <linearGradient
       inkscape:collect="always"
       xlink:href="#linearGradient8882"
       id="linearGradient4061"
       gradientUnits="userSpaceOnUse"
       x1="284.67853"
       y1="460.62231"
       x2="299.28384"
       y2="441.53894" />
    <linearGradient
       inkscape:collect="always"
       xlink:href="#linearGradient3578"
       id="linearGradient4063"
       gradientUnits="userSpaceOnUse"
       gradientTransform="translate(-372.5,-324.5)"
       x1="313.74829"
       y1="444.45746"
       x2="305.67725"
       y2="463.13513" />
    <linearGradient
       inkscape:collect="always"
       xlink:href="#linearGradient3586"
       id="linearGradient4065"
       gradientUnits="userSpaceOnUse"
       gradientTransform="translate(-372.5,-324.5)"
       x1="313.74829"
       y1="444.45746"
       x2="305.67725"
       y2="463.13513" />
  </defs>
  <sodipodi:namedview
     id="base"
     pagecolor="#000000"
     bordercolor="#666666"
     borderopacity="1.0"
     inkscape:pageopacity="0"
     inkscape:pageshadow="2"
     inkscape:zoom="2.7510873"
     inkscape:cx="119.68447"
     inkscape:cy="69.326844"
     inkscape:document-units="px"
     inkscape:current-layer="layer1"
     height="128px"
     width="128px"
     inkscape:window-width="1321"
     inkscape:window-height="697"
     inkscape:window-x="228"
     inkscape:window-y="0"
     showgrid="true"
     showborder="true"
     gridtolerance="10000"
     borderlayer="true">
    <inkscape:grid
       type="xygrid"
       id="grid17159"
       spacingx="8px"
       spacingy="8px"
       empspacing="5"
       visible="true"
       enabled="true" />
    <inkscape:grid
       id="GridFromPre046Settings"
       type="xygrid"
       originx="0px"
       originy="0px"
       spacingx="8px"
       spacingy="8px"
       color="#0000ff"
       empcolor="#0000ff"
       opacity="0.2"
       empopacity="0.4"
       empspacing="2"
       visible="true"
       enabled="true" />
  </sodipodi:namedview>
  <metadata
     id="metadata9007">
    <rdf:RDF>
      <cc:Work
         rdf:about="">
        <dc:format>image/svg+xml</dc:format>
        <dc:type
           rdf:resource="http://purl.org/dc/dcmitype/StillImage" />
        <dc:title></dc:title>
        <dc:date>31/08/2007</dc:date>
        <dc:creator>
          <cc:Agent>
            <dc:title>David Vignoni</dc:title>
          </cc:Agent>
        </dc:creator>
        <dc:contributor>
          <cc:Agent>
            <dc:title>Nuno F. Pinheiro</dc:title>
          </cc:Agent>
        </dc:contributor>
      </cc:Work>
    </rdf:RDF>
  </metadata>
  <g
     inkscape:label="Livello 1"
     inkscape:groupmode="layer"
     id="layer1">
    <g
       id="g3857">
      <path
         style="fill:none;stroke:#000000;stroke-opacity:1;stroke-width:8;stroke-miterlimit:4;stroke-dasharray:none;filter:url(#filter3372);opacity:0.5"
         d="M 11.733333,15.974923 C 9.68,15.974923 8,17.774923 8,19.974923 L 8,108 C 8,110.2 9.68,112 11.733333,112 L 30.4,112 C 32.453333,112 34.133333,111.1 34.133333,110 C 34.133333,108.9 32.453333,108 30.4,108 L 30.4,108 C 28.346667,108 26.666667,107.20313 26.666667,108.01254 L 26.666667,108.01254 C 26.666667,105.81254 28.346667,104.01254 30.4,104.01254 L 45.333333,104.01254 C 47.386667,104.01254 49.066667,105.81254 49.066667,108.01254 L 49.066667,108.01254 C 49.33319,107.01786 47.386667,108 45.333333,108 L 45.333333,108 C 43.28,108 41.6,108.9 41.6,110 C 41.6,111.1 43.28,112 45.333333,112 L 82.666667,112 C 84.72,112 86.4,111.1 86.4,110 C 86.4,108.9 84.72,108 82.666667,108 L 82.666667,108 C 80.613333,108 78.933333,106.80188 78.933333,108.01254 L 78.933333,108.01254 C 78.933333,105.81254 80.613333,104.01254 82.666667,104.01254 L 97.6,104.01254 C 99.653333,104.01254 101.33333,105.81254 101.33333,108.01254 L 101.33333,108.01254 C 101.33333,107.40376 99.653333,108 97.6,108 L 97.6,108 C 95.546667,108 93.866667,108.9 93.866667,110 C 93.866667,111.1 95.546667,112 97.6,112 L 116.26667,112 C 118.32,112 120,110.2 120,108 L 120,19.974923 C 120,17.774923 118.32,15.974923 116.26667,15.974923 L 11.733333,15.974923 z "
         id="path3362"
         sodipodi:nodetypes="cccccsccccccccccsccsccccccccccscccccc" />
      <path
         sodipodi:nodetypes="cccccsccccccccccsccsccccccccccscccccc"
         id="path8101"
         d="M 11.733333,15.974923 C 9.68,15.974923 8,17.774923 8,19.974923 L 8,108 C 8,110.2 9.68,112 11.733333,112 L 30.4,112 C 32.453333,112 34.133333,111.1 34.133333,110 C 34.133333,108.9 32.453333,108 30.4,108 L 30.4,108 C 28.346667,108 26.666667,107.20313 26.666667,108.01254 L 26.666667,108.01254 C 26.666667,105.81254 28.346667,104.01254 30.4,104.01254 L 45.333333,104.01254 C 47.386667,104.01254 49.066667,105.81254 49.066667,108.01254 L 49.066667,108.01254 C 49.33319,107.01786 47.386667,108 45.333333,108 L 45.333333,108 C 43.28,108 41.6,108.9 41.6,110 C 41.6,111.1 43.28,112 45.333333,112 L 82.666667,112 C 84.72,112 86.4,111.1 86.4,110 C 86.4,108.9 84.72,108 82.666667,108 L 82.666667,108 C 80.613333,108 78.933333,106.80188 78.933333,108.01254 L 78.933333,108.01254 C 78.933333,105.81254 80.613333,104.01254 82.666667,104.01254 L 97.6,104.01254 C 99.653333,104.01254 101.33333,105.81254 101.33333,108.01254 L 101.33333,108.01254 C 101.33333,107.40376 99.653333,108 97.6,108 L 97.6,108 C 95.546667,108 93.866667,108.9 93.866667,110 C 93.866667,111.1 95.546667,112 97.6,112 L 116.26667,112 C 118.32,112 120,110.2 120,108 L 120,19.974923 C 120,17.774923 118.32,15.974923 116.26667,15.974923 L 11.733333,15.974923 z "
         style="fill:#ffffff" />
      <path
         sodipodi:type="inkscape:offset"
         inkscape:radius="-3.6349266"
         inkscape:original="M 15.75 20 C 13.696667 20 12 21.8 12 24 L 12 108 C 12 110.2 13.696667 112 15.75 112 L 30.40625 112 C 32.459583 112 34.125 111.1 34.125 110 C 34.125 108.9 32.459583 108 30.40625 108 C 28.352917 108 26.65625 107.19063 26.65625 108 C 26.65625 105.8 28.352917 104 30.40625 104 L 45.34375 104 C 47.397084 104 49.0625 105.8 49.0625 108 C 49.329023 107.00536 47.397084 108 45.34375 108 C 43.290417 108 41.59375 108.9 41.59375 110 C 41.59375 111.1 43.290417 112 45.34375 112 L 82.65625 112 C 84.709583 112 86.40625 111.1 86.40625 110 C 86.40625 108.9 84.709583 108 82.65625 108 C 80.602916 108 78.9375 106.78938 78.9375 108 C 78.9375 105.8 80.602916 104 82.65625 104 L 97.59375 104 C 99.647083 104 101.34375 105.8 101.34375 108 C 101.34375 107.39126 99.647083 108 97.59375 108 C 95.540417 108 93.875 108.9 93.875 110 C 93.875 111.1 95.540417 112 97.59375 112 L 112.25 112 C 114.30333 112 116 110.2 116 108 L 116 24 C 116 21.8 114.30333 20 112.25 20 L 15.75 20 z "
         style="fill:url(#linearGradient3941)"
         id="path3939"
         d="m 15.75,23.625 c 0.07098,0 -0.125,0.04387 -0.125,0.375 l 0,84 c 0,0.33113 0.195975,0.375 0.125,0.375 l 14.46875,0 c 0.01642,-0.12197 0.0625,-0.2782 0.0625,-0.375 l -7.25,0 c 0,-4.06887 3.197359,-7.625 7.375,-7.625 l 14.9375,0 c 4.177641,0 7.34375,3.59056 7.34375,7.625 l -3.625,0 -3.5,-0.9375 c -0.06087,0.22718 -0.09343,0.72073 0,1.3125 l 36.90625,0 c 0.0082,-0.0969 0.09375,-0.31062 0.09375,-0.375 l -7.25,0 c 0,-4.03444 3.166109,-7.625 7.34375,-7.625 l 14.9375,0 c 4.17764,0 7.375,3.55613 7.375,7.625 l -7.25,0 c 0,0.10475 0.07526,0.25484 0.09375,0.375 l 14.4375,0 c -0.071,0 0.125,-0.0439 0.125,-0.375 l 0,-84 c 0,-0.33113 -0.19598,-0.375 -0.125,-0.375 l -96.5,0 z" />
      <g
         id="g8128"
         transform="matrix(0.824052,0,0,1,14.76186,24)">
        <linearGradient
           y2="70"
           x2="60.0005"
           y1="72"
           x1="60.0005"
           gradientUnits="userSpaceOnUse"
           id="linearGradient9249">
          <stop
             id="stop9251"
             style="stop-color:#BBBBBB"
             offset="0" />
          <stop
             id="stop9253"
             style="stop-color:#555555"
             offset="1" />
        </linearGradient>
        <path
           id="path8135"
           d="M 118,71 C 118,71.55 117.55,72 117,72 L 3,72 C 2.45,72 2,71.55 2,71 L 2,71 C 2,70.45 2.45,70 3,70 L 117,70 C 117.55,70 118,70.45 118,71 L 118,71 z "
           style="fill:url(#XMLID_14_)" />
      </g>
      <rect
         id="rect8160"
         height="54.599918"
         width="47.730194"
         y="23.973619"
         x="16.003475"
         style="fill:#ffffff" />
      <rect
         id="rect8167"
         height="56"
         width="48"
         y="24"
         x="16"
         style="opacity:0.5;fill:url(#linearGradient3856);stroke:none" />
      <g
         id="g3985"
         clip-path="url(#clipPath4017)"
         transform="translate(152.0771,23.999998)">
        <path
           transform="matrix(1.175075,0,0,1.1339621,-145.6402,-11.576923)"
           style="opacity:0.8;fill:#00316e;fill-opacity:1;fill-rule:evenodd;stroke:#022169;stroke-width:3.85611582;stroke-linecap:butt;stroke-linejoin:miter;stroke-miterlimit:4;stroke-opacity:1;stroke-dasharray:none;filter:url(#filter8878)"
           d="m 28.625,14.25 c -4.853271,0 -8.781246,3.931163 -8.78125,8.78125 1e-6,1.157973 -0.128625,2.318534 0.1875,3.34375 -0.324977,-0.242269 -0.903926,-0.0445 -0.84375,0.5625 0.759574,3.561546 1.418781,4.290881 2.09375,4.4375 0.570459,1.639209 1.338656,3.201861 2.09375,4.46875 0.430817,2.401857 0.665317,4.996325 -0.15625,6.28125 -0.325268,0.152014 -0.510425,0.449164 -0.5,0.6875 C 19.981271,43.907366 16.687993,45.029441 13.75,46.5 12.659457,47.04586 11.38651,48.682066 11.0625,49.5625 10.074308,52.247683 9,56.03125 9,56.03125 l 0.59375,0.6875 C 15.639954,60.160753 23.832596,60 29,60 c 5.167405,10e-7 13.360049,0.160752 19.40625,-3.28125 L 49,56.03125 c 0,-10e-7 -1.074309,-3.783566 -2.0625,-6.46875 -0.324011,-0.880435 -1.565706,-2.51664 -2.65625,-3.0625 -2.937993,-1.470559 -6.262518,-2.592633 -9,-3.6875 0.01308,-0.298876 -0.287424,-0.700124 -0.78125,-0.78125 -0.839733,-1.464447 -0.469818,-4.429268 0.03125,-6.96875 0.714979,-1.297526 1.397076,-2.812735 1.875,-4.375 0.55328,-0.355403 1.096935,-1.365629 1.71875,-4.28125 C 38.18183,25.832971 37.676049,25.629489 37.34375,25.8125 37.522089,24.937361 37.5,24.007308 37.5,23.03125 c 10e-7,-3.961735 -2.642155,-7.311227 -6.25,-8.40625 -0.256148,-0.07967 -0.515674,-0.162469 -0.78125,-0.21875 -0.02003,-0.0041 -0.04243,0.004 -0.0625,0 -0.266062,-0.05445 -0.538298,-0.09518 -0.8125,-0.125 -0.02035,-0.0021 -0.04211,0.0019 -0.0625,0 C 29.235803,14.251235 28.92833,14.25 28.625,14.25 z"
           id="path8719" />
        <g
           transform="matrix(0.46967968,0,0,0.45267898,-137.63253,1.2927489)"
           id="g6403">
          <path
             id="path3259"
             style="fill:#c8cddc;fill-opacity:1;fill-rule:evenodd;stroke:none;filter:url(#filter3624)"
             sodipodi:nodetypes="ccsccc"
             transform="matrix(1.0059645,0,0,1.0053055,103.05489,-34.059089)"
             d="m -98.9545,147.40533 1.14644,1.21967 c 15.64476,8.91215 36.43722,8.5 49.80806,8.5 13.37084,0 34.60524,0.41215 50.25,-8.5 l 1.5,-1.75 c -32.9308,-25.78368 -88.77254,-47.21838 -102.7045,0.53033 z" />
          <path
             sodipodi:nodetypes="cccc"
             style="fill:#ddc2a4;fill-opacity:1;fill-rule:evenodd;stroke:none"
             d="m 73.403249,48.295662 c 1.923342,-0.162934 3.799245,-1.52128 5.957331,-11.640304 0.208847,-2.106673 -2.601866,-2.306109 -2.756373,-0.444288 -2.089812,4.028202 -3.005488,8.056411 -3.200958,12.084592 z"
             id="path3845" />
          <path
             sodipodi:nodetypes="cccc"
             style="fill:#ddc2a4;fill-opacity:1;fill-rule:evenodd;stroke:none"
             id="path3715"
             d="m 35.980896,49.717379 c -1.923346,-0.162934 -3.799249,-1.521314 -5.957334,-11.640293 -0.208848,-2.106674 2.601865,-2.306137 2.756372,-0.444288 2.089812,4.028202 3.005492,8.056366 3.200962,12.084581 z" />
          <path
             sodipodi:nodetypes="cccccccc"
             style="fill:#cbb7a2;fill-opacity:1;fill-rule:evenodd;stroke:none"
             id="path3629"
             d="m 38.924665,51.517533 c 1.522237,7.240557 5.775484,23.520516 0.502983,27.394571 0.650325,7.036923 7.120818,9.695095 15.089463,11.246857 l 1.508948,0 C 63.994707,88.607199 70.465197,85.949027 71.115526,78.912104 65.843025,75.038049 70.096272,58.75809 71.618505,51.517533 L 55.271589,58.963065 38.924665,51.517533 z" />
          <path
             sodipodi:nodetypes="cccccccc"
             style="fill:url(#radialGradient4023);fill-opacity:1;fill-rule:evenodd;stroke:none"
             d="m 38.924665,51.517533 c 1.522237,7.240557 5.775484,23.520516 0.502983,27.394571 0.650325,7.036923 7.120818,9.695095 15.089463,11.246857 l 1.508948,0 C 63.994707,88.607199 70.465197,85.949027 71.115526,78.912104 65.843025,75.038049 70.096272,58.75809 71.618505,51.517533 L 55.271589,58.963065 38.924665,51.517533 z"
             id="path3634" />
          <path
             sodipodi:nodetypes="cccccccc"
             style="opacity:0.74906365;fill:url(#radialGradient4025);fill-opacity:1;fill-rule:evenodd;stroke:none"
             id="path3672"
             d="m 71.618505,51.517533 c -1.522233,7.240557 -5.77548,23.520516 -0.502979,27.394571 -0.650329,7.036923 -7.120819,9.695095 -15.089467,11.246857 l -1.508948,0 C 46.548466,88.607199 40.077973,85.949027 39.427648,78.912104 44.700149,75.038049 40.446902,58.75809 38.924665,51.517533 l 16.346924,7.445532 16.346916,-7.445532 z" />
          <path
             style="fill:#382509;fill-opacity:1;fill-rule:evenodd;stroke:none;filter:url(#filter3694)"
             d="m 324.17882,363.78125 c -7.77656,0.205 -13.87771,5.86053 -17.00625,12.8125 -3.18672,7.08121 -2.72281,15.53626 -0.8125,25.3125 1.91032,9.77623 5.28827,19.94656 8.475,23.625 3.0204,3.48645 6.88924,2.85632 9.34375,2.78125 0.1258,0 0.30234,-0.004 0.4375,0 2.45451,0.0751 6.32335,0.7052 9.34375,-2.78125 3.18673,-3.67844 7.56468,-13.84877 9.475,-23.625 1.91033,-9.77624 2.37422,-18.23129 -0.8125,-25.3125 -3.12855,-6.95197 -10.22969,-12.6075 -18.00625,-12.8125 l -0.4375,0 z"
             clip-path="url(#clipPath3705)"
             sodipodi:nodetypes="csssssssscc"
             transform="matrix(1.0059645,0,0,1.0053055,-271.46562,-360.28069)"
             id="path3676" />
          <path
             sodipodi:nodetypes="csssssssscc"
             style="fill:url(#radialGradient4027);fill-opacity:1;fill-rule:evenodd;stroke:none"
             id="path2169"
             d="M 54.665563,5.3991564 C 46.842622,5.6052254 37.787786,11.290762 34.640587,18.279618 31.43486,25.39839 31.901537,33.898301 33.823241,43.72642 c 1.921714,9.828099 8.237108,20.052352 11.442841,23.75033 3.038417,3.504942 6.93033,2.871473 9.399481,2.795993 0.126549,0 0.304142,-0.0041 0.44011,0 2.469151,0.07548 6.361064,0.708949 9.399481,-2.795993 C 67.710887,63.778772 74.026281,53.554519 75.947995,43.72642 77.869723,33.898301 78.336376,25.39839 75.130649,18.279618 71.98344,11.290762 62.928614,5.6052254 55.105673,5.3991564 l -0.44011,0 z" />
          <path
             style="fill:url(#linearGradient4029);fill-opacity:1;fill-rule:evenodd;stroke:none"
             d="m 391.84841,400.84559 c 3.67809,10.12978 8.18827,19.94656 11.375,23.625 3.0204,3.48645 6.88924,2.85632 9.34375,2.78125 0.1258,0 0.30234,-0.004 0.4375,0 2.45451,0.0751 6.32335,0.7052 9.34375,-2.78125 3.18673,-3.67844 8.05047,-13.84877 11.375,-23.625 l -41.875,0 z"
             sodipodi:nodetypes="csssscc"
             mask="url(#mask3287)"
             transform="matrix(1.0059645,0,0,1.0053055,-360.33441,-359.22512)"
             id="path3157" />
          <path
             d="m -34.57938,94.15885 c -2.03036,3.63213 -3.0434,3.30165 -5.10812,5.8099 -2.86612,3.30838 -6.79588,2.25873 -9.125,2.1875 -0.12825,-0.004 -0.28689,-1e-5 -0.40625,0 -2.32915,0.0712 -6.30889,0.68335 -9.175,-2.625 -0.32265,-0.37242 -0.71291,-0.83899 -1.09375,-1.34375 0.74015,1.06708 1.48636,2.02247 2.0625,2.6875 2.86612,3.30835 6.81462,2.69624 9.14375,2.625 0.11936,1e-5 0.30924,-0.004 0.4375,0 2.32911,0.0713 5.97763,0.68336 8.84375,-2.625 1.4015,-1.61776 2.41748,-3.10243 4.42062,-6.71615 z"
             sodipodi:nodetypes="ccssscssssc"
             style="fill:url(#linearGradient4031);fill-opacity:1;fill-rule:evenodd;stroke:none;filter:url(#filter3325)"
             transform="matrix(1.0059645,0,0,1.0053055,103.05489,-34.059089)"
             id="path3161" />
          <path
             id="path3849"
             style="fill:url(#radialGradient4033);fill-opacity:1;fill-rule:evenodd;stroke:none;filter:url(#filter3833)"
             sodipodi:nodetypes="csss"
             transform="matrix(-1.0059645,0,0,1.0053055,424.44171,-361.70241)"
             d="m 347.29991,395.43789 c -0.0925,-0.73861 -1.15458,-0.0553 -1.23744,0.88388 -0.0829,0.93913 0.75464,3.21422 0.90599,2.87262 1.21215,-2.73577 0.46272,-2.70792 0.33145,-3.7565 z" />
          <path
             d="m -68.3336,70.93789 c -0.09247,-0.73861 -1.15458,-0.05525 -1.23744,0.88388 -0.08286,0.93913 0.75464,3.21422 0.90599,2.87262 1.21215,-2.73577 0.46272,-2.70792 0.33145,-3.7565 z"
             sodipodi:nodetypes="csss"
             style="fill:url(#radialGradient4035);fill-opacity:1;fill-rule:evenodd;stroke:none;filter:url(#filter3833)"
             transform="matrix(1.0059645,0,0,1.0053055,103.05489,-34.059089)"
             id="path3779" />
          <path
             style="fill:url(#linearGradient4037);fill-opacity:1;stroke:none;filter:url(#filter3420)"
             d="m 324.5,363.375 c -12.558,0 -22.74999,10.19201 -22.75,22.75 0,3.49706 -0.34202,6.96567 1.0697,9.92678 L 304,396.91529 c 2.57247,-4.54407 0.92256,-8.09951 2,-12.04029 1,-2.5 2.58874,-4.663 5,-5.5 4.29826,-1.49201 10.81729,4.17868 13.5,4.25 2.90006,0.0771 9.05852,-5.34646 13.46875,-4.05 2.43629,0.71618 4.44027,3.0071 5,5.5 1.04798,4.66743 1.59553,6.25655 2.0026,11.27963 l 1.18306,-0.60463 c 1.37425,-2.92891 1.09559,-6.17758 1.09559,-9.625 0,-12.558 -10.19199,-22.74999 -22.75,-22.75 z"
             clip-path="url(#clipPath3429)"
             sodipodi:nodetypes="cscccssssccsc"
             transform="matrix(1.0059645,0,0,1.0053055,-271.84166,-360.28069)"
             id="path3380" />
          <path
             sodipodi:nodetypes="cscccssssccsc"
             style="fill:#b09278;fill-opacity:1;stroke:none"
             id="path3347"
             d="m 54.768603,5.0221546 c -12.632899,0 -22.885676,10.2460854 -22.885687,22.8707024 0,3.5156 -0.344062,7.002607 1.076081,9.979453 l 1.187338,0.868075 c 2.587813,-4.568186 0.928062,-8.645127 2.01193,-12.60682 1.005965,-2.513269 2.604179,-4.687741 5.029819,-5.529181 4.323899,-1.499916 10.88181,4.200858 13.580519,4.272562 2.917358,0.0775 9.112547,-2.135552 13.549081,-0.83223 2.450822,0.719992 4.466756,3.02306 5.029822,5.52918 1.054231,4.692193 1.605048,3.55312 2.014547,8.602853 l 1.190116,-0.607845 c 1.382446,-2.944439 1.102123,-6.210335 1.102123,-9.676047 0,-12.624617 -10.252777,-22.8707024 -22.885689,-22.8707024 z" />
          <path
             sodipodi:nodetypes="ccsssccsc"
             style="fill:url(#radialGradient4039);fill-opacity:1;stroke:none"
             d="M 54.768603,5.0221546 C 46.69594,9.4065202 45.000549,12.012847 41.188084,20.604384 c 4.323899,-1.499916 10.88181,4.200858 13.580519,4.272562 2.917358,0.0775 9.704242,-2.511838 14.140776,-1.208517 2.450822,0.719993 4.466756,3.023061 5.029822,5.529181 1.05423,4.692193 1.013353,3.929406 1.422852,8.979139 l 1.190116,-0.607845 c 1.382446,-2.944439 1.102123,-6.210335 1.102123,-9.676047 0,-12.624617 -10.252777,-22.8707024 -22.885689,-22.8707024 z"
             id="path3358" />
          <path
             style="fill:url(#linearGradient4041);fill-opacity:1;stroke:none;filter:url(#filter3479)"
             d="m 312.54197,377.13598 c -0.59485,-0.0263 -1.18147,0.0448 -1.71875,0.21875 -2.41126,0.78087 -4.44194,3.60538 -5.44194,6.08211 -0.92612,4.1784 0.39346,5.94573 -0.49464,11.15501 0.84705,-3.03043 0.69815,-9.51676 0.93658,-10.42462 1,-2.50001 2.58874,-4.663 5,-5.5 4.29826,-1.49202 10.81729,4.17868 13.5,4.25 2.90006,0.0771 9.05852,-2.12428 13.46875,-0.82782 2.43629,0.71617 4.44027,3.0071 5,5.5 l 0,-0.5625 c -0.55973,-2.50593 -2.56371,-4.8521 -5,-5.625 -4.41023,-1.39914 -10.12675,-0.66589 -13.02681,-0.81051 -2.34737,-0.11705 -8.05923,-3.27163 -12.22319,-3.45542 z"
             clip-path="none"
             sodipodi:nodetypes="cscccsssccssc"
             mask="none"
             transform="matrix(1.0059645,0,0,1.0053055,-272.17782,-360.28069)"
             id="path3441" />
          <path
             d="m -39.6875,56.221855 c 5.490352,-0.197478 -5.37217,-1.720195 -9.01956,-2.301355 -5.891562,-0.938737 -13.74889,-4.05702 -14.84149,-6.96579 -0.71516,-1.90391 4.892,-4.76519 4.54855,-3.84253 -0.65577,1.86233 -1.47583,3.56833 3.125,7.625 2.30198,1.77729 4.87994,3.83927 8.375,4.125 2.5,0.26777 5.3125,1.832065 7.8125,1.359675 z"
             sodipodi:nodetypes="csscccc"
             style="opacity:0.88014981;fill:url(#linearGradient4043);fill-opacity:1;fill-rule:evenodd;stroke:none;filter:url(#filter3625)"
             transform="matrix(1.0059645,0,0,1.0053055,103.05489,-34.059089)"
             id="path3497" />
          <path
             d="m -29.75,50.61218 2.25,4.5 c 1.52892,6.14118 0.92245,5.35732 0.73483,8.33318 C -28.54202,59.02869 -27.22154,56.27885 -33,53.11218 l -6.25,-4 9.5,1.5 z"
             sodipodi:nodetypes="cccccc"
             style="fill:url(#linearGradient4045);fill-opacity:1;fill-rule:evenodd;stroke:none;filter:url(#filter3569)"
             transform="matrix(1.0059645,0,0,1.0053055,102.2077,-34.059089)"
             id="path3535" />
          <path
             d="m -68.53033,81.05152 1.375,-2.5 c 0,0 -1.25,-3.125 -1.25,-4 0,-0.875 -0.88886,-3.4545 -0.88886,-3.4545 l -0.72791,0.47032 1.49177,9.48418 z"
             sodipodi:nodetypes="ccsccc"
             style="opacity:0.33333333;fill:url(#linearGradient4047);fill-opacity:1;fill-rule:evenodd;stroke:none;filter:url(#filter3775)"
             transform="matrix(1.0059645,0,0,1.0053055,103.05489,-34.059089)"
             id="path3717" />
          <path
             sodipodi:nodetypes="cccssccsccssccz"
             style="fill:url(#linearGradient4049);fill-opacity:1;fill-rule:evenodd;stroke:none"
             id="path3875"
             d="m 55.570237,85.133393 c -10.3039,0.287646 -13.447219,-3.97465 -14.33499,-7.733178 -1.285414,0.211168 -2.04596,1.232637 -2.01193,2.010599 -7.125576,2.849902 -15.741169,5.722579 -23.388669,9.550396 -2.83865,1.420857 -6.072616,5.75072 -6.916005,8.042463 -2.572232,6.989447 -5.407061,16.838837 -5.407061,16.838837 l 1.508948,1.75932 c 15.73807,8.95942 37.099121,8.5451 50.549707,8.5451 13.450588,0 34.811639,0.41432 50.549703,-8.5451 l 1.50895,-1.75932 c 0,0 -2.83483,-9.84939 -5.40706,-16.838837 -0.84339,-2.291743 -4.07735,-6.621606 -6.916,-8.042463 -7.647505,-3.827817 -16.263098,-6.700494 -23.388674,-9.550396 0.03403,-0.777962 -0.726516,-1.799431 -2.01193,-2.010599 -2.428022,3.762485 -4.031087,7.445532 -14.334989,7.733178 z" />
          <path
             d="m -78.34358,152.98437 c -3.91725,-13.01958 -5.49592,-19.83203 3.53553,-26.87006 l 19.09189,-5.65686 -8.48528,-6.36395 -19.79899,7.77817 -10.6066,12.72792 c 0,0 -4.24265,9.8995 -1.41422,11.31371 2.82843,1.41422 9.8995,5.65686 9.8995,5.65686 l 7.77817,1.41421 z"
             sodipodi:nodetypes="ccccccscc"
             style="opacity:0.32209742;fill:url(#linearGradient4051);fill-opacity:1;fill-rule:evenodd;stroke:none;filter:url(#filter3493)"
             transform="matrix(1.0059645,0,0,1.0053055,103.05489,-34.059089)"
             id="path3451" />
          <path
             style="fill:url(#linearGradient4053);fill-opacity:1;fill-rule:evenodd;stroke:none;filter:url(#filter4059)"
             d="m 395.90625,435.375 c -1.27778,0.21006 -2.03383,1.22613 -2,2 -7.08332,2.83488 -15.64784,5.69235 -23.25,9.5 -2.82181,1.41335 -6.03661,5.72037 -6.875,8 -2.55697,6.95256 -5.375,16.75 -5.375,16.75 l 1.5,1.75 c 15.64477,8.91215 36.87916,8.5 50.25,8.5 13.37085,0 34.60524,0.41215 50.25,-8.5 l 1.5,-1.75 c 10e-6,0 -2.81802,-9.79744 -5.375,-16.75 -0.83838,-2.27963 -4.05318,-6.58665 -6.875,-8 -7.60215,-3.80765 -16.16667,-6.66512 -23.25,-9.5 0.0338,-0.77387 -0.72221,-1.78994 -2,-2 -2.41362,3.74264 -4.00719,7.40137 -14.25,7.6875 -0.64018,0.0179 -1.25799,0.0163 -1.84375,0 0.80243,0.0468 1.64422,0.0883 2.5625,0.0625 9.79135,-0.27525 11.31776,-3.80588 13.625,-7.40625 1.22147,0.20208 1.93858,1.19304 1.90625,1.9375 6.77112,2.72711 14.95165,5.46211 22.21875,9.125 2.69745,1.35963 5.79232,5.52579 6.59375,7.71875 2.44429,6.68826 5.12499,16.09377 5.125,16.09375 l -1.4375,1.6875 c -14.95522,8.57336 -35.24974,8.18749 -48.03125,8.1875 -12.78153,0 -34.57865,1.62329 -49.53385,-6.95006 l -1.52589,-3.01333 c 0,0 3.74138,-14.97395 6.89277,-17.2428 1.89483,-1.36419 3.71952,-5.12167 6.41697,-6.48131 7.2671,-3.6629 15.44762,-6.39789 22.21875,-9.125 -0.0206,-0.47514 0.25339,-1.06595 0.78125,-1.46875 -0.0867,-0.26793 -0.15627,-0.54781 -0.21875,-0.8125 z"
             clip-path="url(#clipPath4063)"
             sodipodi:nodetypes="ccssccsccssccscsccssccsccssccc"
             transform="matrix(1.0059645,0,0,1.0053055,-357.03287,-360.28069)"
             id="path3885" />
          <path
             d="m -84.125,124.875 -1,1.75 c 4.03714,8.1176 5.20663,18.14697 7.4375,27.46875 -6.98354,-1.21816 -13.72843,-3.25291 -19.8125,-6.71875 l 0,0.4375 c 15.64477,8.91216 36.87916,8.5 50.25,8.5 13.37085,1e-5 34.60524,0.41215 50.25,-8.5 l 1.5,-1.75 -1.833441,1.48405 c -15.64475,8.91216 -36.545719,8.46226 -49.916559,8.46226 -7.45098,0 -17.33699,-0.57992 -27.34375,-2.00881 -3.17708,-14.39161 -6.35417,-22.16587 -9.53125,-29.125 z"
             sodipodi:nodetypes="cccccscccscc"
             style="fill:url(#linearGradient4055);fill-opacity:1;fill-rule:evenodd;stroke:none;filter:url(#filter3393)"
             transform="matrix(1.0059645,0,0,1.0053055,103.05489,-34.059089)"
             id="path3880" />
          <path
             style="fill:#f9ccca;fill-opacity:1;fill-rule:evenodd;stroke:#9c0f0f;stroke-width:0.12359718;stroke-linecap:butt;stroke-linejoin:miter;stroke-miterlimit:4;stroke-opacity:1;stroke-dasharray:none;filter:url(#filter3283)"
             d="m 463.75,435.375 c -1.27779,0.21006 -2.03383,1.22613 -2,2 -0.0793,0.0317 -0.17038,0.062 -0.25,0.0937 1.25202,4.0018 5.15727,8.27208 16.75,7.96875 11.50018,-0.3009 13.82799,-3.95877 16.46875,-7.875 -0.15115,-0.06 -0.3189,-0.12753 -0.46875,-0.1875 0.0338,-0.77387 -0.72221,-1.78994 -2,-2 -2.41363,3.74264 -4.00719,7.40137 -14.25,7.6875 -10.24281,0.28614 -13.36749,-3.94879 -14.25,-7.6875 z m 33.71875,3.25 c 0.0532,0.16802 0.10109,0.31159 0.0937,0.46875 4.20807,1.57746 8.83741,3.15593 13.5625,4.875 -4.63354,-1.95913 -9.30506,-3.67529 -13.65625,-5.34375 z"
             clip-path="url(#clipPath3289)"
             sodipodi:nodetypes="cccscccsccccc"
             transform="matrix(1.0059645,0,0,1.0053055,-425.2807,-360.27676)"
             id="path3261" />
          <path
             d="m -59.25169,118.68969 -17.32412,0.70711 15.20279,-2.12132 2.12133,1.41421 z"
             sodipodi:nodetypes="cccc"
             style="fill:url(#linearGradient4057);fill-opacity:1;fill-rule:evenodd;stroke:none;filter:url(#filter3339)"
             transform="matrix(1.0059645,0,0,1.0053055,103.05489,-34.059089)"
             id="path3293" />
          <path
             sodipodi:nodetypes="cccc"
             style="fill:url(#linearGradient4059);fill-opacity:1;fill-rule:evenodd;stroke:none;filter:url(#filter3339)"
             id="path3357"
             transform="matrix(0.3417414,0.9455184,0.9461381,-0.3415175,-540.77608,-70.969975)"
             d="m 371.74831,469.68969 -17.32412,0.70711 15.20279,-2.12132 2.12133,1.41421 z" />
          <path
             id="path3498"
             style="opacity:0.5;fill:url(#linearGradient4061);fill-opacity:1;fill-rule:evenodd;stroke:none;filter:url(#filter3493)"
             sodipodi:nodetypes="ccccccscc"
             transform="matrix(-1.0059645,0,0,1.0053055,383.00502,-360.28069)"
             d="m 294.15642,477.48437 c -3.91725,-13.01958 -5.49592,-19.83203 3.53553,-26.87006 l 19.09189,-5.65686 -8.48528,-6.36395 -19.79899,7.77817 -10.6066,12.72792 c 0,0 -4.24265,9.8995 -1.41422,11.31371 2.82843,1.41422 9.8995,5.65686 9.8995,5.65686 l 7.77817,1.41421 z" />
          <path
             d="m -59.2517,120.45746 -7.07106,17.67767 7.07106,-17.67767 z"
             style="opacity:0.06367044;fill:url(#linearGradient4063);fill-opacity:1;fill-rule:evenodd;stroke:url(#linearGradient4065);stroke-width:0.24719436px;stroke-linecap:butt;stroke-linejoin:miter;stroke-opacity:1;filter:url(#filter3574)"
             transform="matrix(1.0059645,0,0,1.0053055,103.05489,-34.059089)"
             id="path3524" />
        </g>
      </g>
      <g
         transform="matrix(1.7775438,0,0,1.7775438,-8.2663472,-10.11717)"
         inkscape:label="Livello 1"
         id="g3922">
        <path
           sodipodi:nodetypes="cccsssccccsssccccssccsccsscsssssssssssssccssscccsccssssscccccccccccccccccccccccssssssccccssssssscccccccccccccccccccccccccccccccccccccssccsssssssscccssssccsccccccsscccccsssccccssscccccssccsssssssscccssssccsssssccsssssccssssccsssscccccccccccccssssccccsssssccssccsccsssssssccccsssccccsssccccccssccsssssssscccssssccsccccccsscccccsscsssccccsssccccsssccccccccccccccccccccccccccssccsssssssscccssssccsccccccsscccccsssssssssssccsssssssssssscssssscccsssssssccsssssssccssssssscccccccccccccccccsccsscccccc"
           style="font-size:4.63464545999999977px;font-style:normal;font-weight:normal;fill:url(#linearGradient3397);fill-opacity:1.0;stroke:none;stroke-width:1px;stroke-linecap:butt;stroke-linejoin:miter;stroke-opacity:1;font-family:FreeSans"
           d="m 45.145055,32.230615 0,-3.378656 1.30234,0 c 0.42947,3e-6 0.76626,0.149857 1.01035,0.44956 0.24409,0.29971 0.36614,0.712193 0.36614,1.237451 0,0.525261 -0.12359,0.939289 -0.37077,1.242085 -0.24409,0.299707 -0.57933,0.44956 -1.00572,0.44956 l -1.30234,0 m 0.43103,-0.380041 0.79716,0 c 0.33369,10e-7 0.58705,-0.111231 0.76008,-0.333694 0.17302,-0.222462 0.25953,-0.546887 0.25954,-0.973276 -1e-5,-0.429475 -0.08652,-0.755444 -0.25954,-0.97791 -0.17303,-0.22246 -0.42639,-0.333691 -0.76008,-0.333694 l -0.79716,0 0,2.618574 m 2.807,-1.330143 c 0.01854,-0.525257 0.34296,-0.787887 0.97328,-0.78789 0.2997,3e-6 0.5268,0.05716 0.68129,0.171482 0.15448,0.111234 0.23173,0.274991 0.23173,0.491273 l 0,1.427471 c 0,0.12668 0.06952,0.19002 0.20856,0.19002 0.0278,0 0.05561,-0.0031 0.08342,-0.0093 l 0,0.291982 c -0.10814,0.02781 -0.1962,0.04171 -0.26417,0.04171 -0.12359,0 -0.21783,-0.02935 -0.28272,-0.08806 -0.06179,-0.05562 -0.10041,-0.145219 -0.11586,-0.26881 -0.25954,0.237912 -0.53453,0.356868 -0.82497,0.356868 -0.24409,0 -0.43875,-0.06489 -0.58396,-0.194655 -0.14213,-0.12977 -0.2132,-0.304341 -0.2132,-0.523715 0,-0.07106 0.0062,-0.135949 0.01854,-0.194655 0.01545,-0.0587 0.0309,-0.109686 0.04635,-0.152943 0.01853,-0.04635 0.04943,-0.08806 0.09269,-0.125136 0.04326,-0.04017 0.07879,-0.07261 0.1066,-0.09733 0.03089,-0.02472 0.08033,-0.04789 0.14831,-0.06952 0.07106,-0.02472 0.12513,-0.04171 0.16221,-0.05098 0.03707,-0.01236 0.10196,-0.02626 0.19465,-0.04171 0.09269,-0.01545 0.16067,-0.02626 0.20393,-0.03244 0.04325,-0.0062 0.1205,-0.01699 0.23173,-0.03244 0.1514,-0.01854 0.25645,-0.04789 0.31516,-0.08806 0.0587,-0.04017 0.08805,-0.100416 0.08805,-0.180751 l 0,-0.101963 c 0,-0.117409 -0.04789,-0.207012 -0.14367,-0.268809 -0.09269,-0.06179 -0.22555,-0.09269 -0.39858,-0.09269 -0.17921,2e-6 -0.31516,0.03553 -0.40785,0.106597 -0.09269,0.06798 -0.14676,0.176118 -0.16221,0.324425 l -0.38931,0 m 0.77399,1.478452 c 0.21319,0 0.38776,-0.05561 0.52371,-0.166847 0.13595,-0.114321 0.20392,-0.236366 0.20392,-0.366137 l 0,-0.435657 c -0.07724,0.03708 -0.19465,0.06798 -0.35223,0.09269 -0.15449,0.02472 -0.28889,0.04635 -0.40321,0.06489 -0.11432,0.01854 -0.21783,0.06334 -0.31052,0.134405 -0.0927,0.06798 -0.13904,0.163758 -0.13904,0.287348 0,0.123591 0.04171,0.219373 0.12513,0.287348 0.08342,0.06798 0.20084,0.101962 0.35224,0.101962 m 2.72589,0.231732 -0.42175,0 -0.85278,-2.428554 0.43566,0 0.64885,1.969724 0.68593,-1.969724 0.43565,0 -0.93156,2.428554 m 1.69165,-3.378656 0,0.486638 -0.38932,0 0,-0.486638 0.38932,0 m 0,0.950102 0,2.428554 -0.38468,0 0,-2.428554 0.38468,0 m 2.63088,-0.950102 0,3.378656 -0.34296,0 0,-0.31979 c -0.10506,0.151398 -0.21938,0.25954 -0.34297,0.324425 -0.1205,0.06797 -0.26417,0.101962 -0.43102,0.101962 -0.32751,0 -0.58551,-0.117411 -0.77398,-0.352233 -0.18848,-0.237911 -0.28272,-0.562336 -0.28272,-0.973275 0,-0.386219 0.09424,-0.695195 0.28272,-0.92693 0.19156,-0.234819 0.44492,-0.35223 0.76008,-0.352233 0.33369,3e-6 0.58242,0.125138 0.74617,0.375407 l 0,-1.255989 0.38468,0 m -1.06597,1.242085 c -0.2101,2e-6 -0.38004,0.08651 -0.50981,0.25954 -0.12977,0.173028 -0.19465,0.400126 -0.19465,0.681293 0,0.284259 0.06488,0.512901 0.19465,0.685927 0.12977,0.169938 0.30125,0.254906 0.51445,0.254906 0.20392,0 0.36768,-0.08497 0.49127,-0.254906 0.12359,-0.169936 0.18538,-0.395489 0.18538,-0.676658 0,-0.290436 -0.06179,-0.520623 -0.18538,-0.690562 -0.12359,-0.173025 -0.28889,-0.259538 -0.49591,-0.25954 m 4.80606,2.136571 -0.4542,0 -0.95937,-2.831768 0,2.831768 -0.40785,0 0,-3.378656 0.59787,0 1.00109,2.943 0.98254,-2.943 0.59787,0 0,3.378656 -0.40785,0 0,-2.831768 -0.9501,2.831768 m 2.3914,-3.378656 0,0.486638 -0.38931,0 0,-0.486638 0.38931,0 m 0,0.950102 0,2.428554 -0.38467,0 0,-2.428554 0.38467,0 m 1.0412,-0.950102 0,3.378656 -0.38931,0 0,-3.378656 0.38931,0 m 1.03194,0 0,3.378656 -0.38931,0 0,-3.378656 0.38931,0 m 2.70504,2.294149 -1.78898,0 c 0.0031,0.222464 0.04635,0.395491 0.12977,0.519081 0.13286,0.210104 0.32752,0.315156 0.58397,0.315155 0.31515,1e-6 0.5268,-0.162212 0.63495,-0.486637 l 0.38931,0 c -0.04944,0.26572 -0.16531,0.472734 -0.3476,0.621042 -0.1823,0.148309 -0.41249,0.222463 -0.69057,0.222463 -0.33987,0 -0.60868,-0.114321 -0.80642,-0.342964 -0.19775,-0.231731 -0.29662,-0.546887 -0.29662,-0.945467 0,-0.398578 0.10042,-0.716824 0.30125,-0.954737 0.20392,-0.240999 0.47428,-0.3615 0.81106,-0.361503 0.22865,3e-6 0.42948,0.05716 0.60251,0.171482 0.17611,0.114324 0.30279,0.270357 0.38004,0.468099 0.06488,0.169939 0.09732,0.427934 0.09733,0.773986 m -1.77971,-0.315156 1.36259,0 c 0.0031,-0.0062 0.0046,-0.01545 0.0046,-0.02781 0,-0.200833 -0.06488,-0.369225 -0.19465,-0.505177 -0.12977,-0.139037 -0.2889,-0.208557 -0.47737,-0.208559 -0.19466,2e-6 -0.35532,0.06798 -0.482,0.203925 -0.12668,0.132861 -0.19775,0.312067 -0.2132,0.537618 m 3.46969,-0.690562 c -0.25954,0.0062 -0.4542,0.06643 -0.58397,0.180751 -0.12977,0.114323 -0.19465,0.330607 -0.19465,0.648851 l 0,1.260623 -0.38931,0 0,-2.428554 0.35686,0 0,0.440291 c 0.11123,-0.182293 0.21783,-0.312063 0.3198,-0.38931 0.10505,-0.08033 0.21937,-0.120498 0.34296,-0.120501 0.03398,3e-6 0.08342,0.0046 0.14831,0.0139 l 0,0.393945 m -23.321487,11.131668 0,-3.378656 1.30234,0 c 0.42947,3e-6 0.76626,0.149856 1.01035,0.44956 0.24409,0.29971 0.36614,0.712193 0.36614,1.237451 0,0.525261 -0.12359,0.939288 -0.37077,1.242085 -0.24409,0.299707 -0.57933,0.44956 -1.00572,0.44956 l -1.30234,0 m 0.43103,-0.380041 0.79716,0 c 0.33369,10e-7 0.58705,-0.111231 0.76008,-0.333694 0.17302,-0.222462 0.25953,-0.546887 0.25954,-0.973276 -10e-6,-0.429475 -0.08652,-0.755445 -0.25954,-0.97791 -0.17303,-0.22246 -0.42639,-0.333691 -0.76008,-0.333694 l -0.79716,0 0,2.618574 m 4.88332,-0.704466 -1.78897,0 c 0.0031,0.222464 0.04634,0.395491 0.12977,0.51908 0.13286,0.210105 0.32751,0.315157 0.58396,0.315156 0.31516,1e-6 0.52681,-0.162212 0.63495,-0.486637 l 0.38931,0 c -0.04944,0.26572 -0.1653,0.472734 -0.3476,0.621042 -0.1823,0.148309 -0.41248,0.222463 -0.69056,0.222463 -0.33988,0 -0.60869,-0.114321 -0.80643,-0.342964 -0.19775,-0.231732 -0.29662,-0.546887 -0.29662,-0.945467 0,-0.398578 0.10042,-0.716824 0.30126,-0.954737 0.20392,-0.241 0.47427,-0.3615 0.81106,-0.361503 0.22864,3e-6 0.42947,0.05716 0.6025,0.171482 0.17612,0.114324 0.3028,0.270357 0.38004,0.468099 0.06489,0.169939 0.09733,0.427934 0.09733,0.773986 m -1.7797,-0.315156 1.36258,0 c 0.0031,-0.0062 0.0046,-0.01545 0.0046,-0.02781 -1e-5,-0.200833 -0.06489,-0.369225 -0.19466,-0.505176 -0.12977,-0.139037 -0.28889,-0.208557 -0.47737,-0.208559 -0.19465,2e-6 -0.35532,0.06798 -0.482,0.203924 -0.12668,0.132862 -0.19775,0.312068 -0.21319,0.537619 m 2.54739,0.676658 c 0.01853,0.14522 0.06797,0.261086 0.1483,0.347599 0.08343,0.08342 0.23174,0.125136 0.44493,0.125135 0.16994,10e-7 0.30589,-0.03399 0.40785,-0.101962 0.10505,-0.07106 0.15757,-0.163757 0.15758,-0.278079 -1e-5,-0.0896 -0.02936,-0.160667 -0.08806,-0.213193 -0.05871,-0.05253 -0.15449,-0.09424 -0.28735,-0.125136 l -0.3615,-0.08806 c -0.28735,-0.06797 -0.48818,-0.152942 -0.60251,-0.254906 -0.11123,-0.10505 -0.16684,-0.253359 -0.16684,-0.444925 0,-0.225551 0.08497,-0.404757 0.2549,-0.537619 0.16994,-0.135948 0.39549,-0.203922 0.67666,-0.203925 0.28117,3e-6 0.49745,0.06489 0.64885,0.194655 0.1514,0.129773 0.22864,0.313613 0.23173,0.551523 l -0.40784,0 c -0.0093,-0.259538 -0.17149,-0.389308 -0.48664,-0.38931 -0.15758,2e-6 -0.28272,0.03399 -0.37541,0.101962 -0.09269,0.06489 -0.13904,0.152945 -0.13904,0.264175 0,0.08651 0.03553,0.15758 0.1066,0.213194 0.07106,0.05253 0.18538,0.09733 0.34296,0.134404 l 0.37077,0.08806 c 0.241,0.05871 0.41558,0.14213 0.52372,0.25027 0.10814,0.105053 0.16221,0.247182 0.16221,0.426388 0,0.234822 -0.09115,0.421753 -0.27344,0.560792 -0.17921,0.139039 -0.42176,0.208559 -0.72764,0.208559 -0.62722,0 -0.9501,-0.276534 -0.96864,-0.829602 l 0.40785,0 m 2.44709,-2.655651 0,0.486637 -0.38931,0 0,-0.486637 0.38931,0 m 0,0.950102 0,2.428554 -0.38468,0 0,-2.428554 0.38468,0 m 1.47222,2.535151 c -0.28426,0 -0.52217,-0.115866 -0.71373,-0.347598 -0.19157,-0.234822 -0.28735,-0.545343 -0.28735,-0.931564 0,-0.395488 0.09424,-0.715279 0.28271,-0.959372 0.19157,-0.244089 0.44184,-0.366134 0.75081,-0.366137 0.3028,3e-6 0.54998,0.140587 0.74155,0.421753 l 0,-0.352233 0.35687,0 0,2.029975 c -10e-6,0.231732 -0.01391,0.424842 -0.04172,0.57933 -0.02781,0.157578 -0.07879,0.302797 -0.15294,0.435657 -0.07415,0.132859 -0.18539,0.231731 -0.33369,0.296617 -0.14522,0.06488 -0.33061,0.09733 -0.55616,0.09733 -0.28426,-10e-7 -0.51136,-0.06489 -0.68129,-0.194655 -0.16994,-0.129771 -0.26572,-0.308977 -0.28735,-0.537619 l 0.39394,0 c 0.04326,0.271899 0.23946,0.407848 0.5886,0.407849 0.25954,-1e-6 0.4372,-0.07415 0.53299,-0.222463 0.09578,-0.14522 0.14367,-0.367682 0.14367,-0.667389 l 0,-0.125136 c -0.10814,0.154489 -0.22092,0.26572 -0.33833,0.333695 -0.11432,0.06797 -0.24718,0.101962 -0.39858,0.101962 m 0.07416,-2.247803 c -0.20702,2e-6 -0.37078,0.08497 -0.49127,0.254905 -0.12051,0.169939 -0.18076,0.400126 -0.18076,0.690563 0,0.293528 0.06025,0.52526 0.18076,0.695196 0.12049,0.166848 0.2858,0.250272 0.4959,0.250271 0.20392,10e-7 0.36459,-0.08188 0.482,-0.245636 0.11741,-0.166846 0.17612,-0.395489 0.17612,-0.685927 0,-0.302796 -0.05871,-0.537618 -0.17612,-0.704467 -0.11432,-0.169934 -0.27653,-0.254903 -0.48663,-0.254905 m 1.69461,-0.287348 0.35687,0 0,0.407849 c 0.10814,-0.169935 0.22401,-0.291981 0.3476,-0.366137 0.12668,-0.07415 0.27962,-0.111229 0.45883,-0.111232 0.23482,3e-6 0.42175,0.06025 0.56079,0.180751 0.13904,0.120503 0.20856,0.281171 0.20856,0.482004 l 0,1.835319 -0.38468,0 0,-1.682376 c 0,-0.145217 -0.0448,-0.261083 -0.1344,-0.347599 -0.08961,-0.08651 -0.21165,-0.129767 -0.36614,-0.12977 -0.19774,3e-6 -0.35687,0.0757 -0.47737,0.227098 -0.1205,0.14831 -0.18075,0.346055 -0.18075,0.593235 l 0,1.339412 -0.38931,0 0,-2.428554 m 4.63298,1.344047 -1.78897,0 c 0.0031,0.222464 0.04634,0.395491 0.12977,0.51908 0.13286,0.210105 0.32751,0.315157 0.58396,0.315156 0.31516,10e-7 0.52681,-0.162212 0.63495,-0.486637 l 0.38931,0 c -0.04944,0.26572 -0.1653,0.472734 -0.3476,0.621042 -0.1823,0.148309 -0.41248,0.222463 -0.69056,0.222463 -0.33988,0 -0.60869,-0.114321 -0.80643,-0.342964 -0.19774,-0.231732 -0.29662,-0.546887 -0.29662,-0.945467 0,-0.398578 0.10042,-0.716824 0.30126,-0.954737 0.20392,-0.241 0.47427,-0.3615 0.81106,-0.361503 0.22864,3e-6 0.42947,0.05716 0.6025,0.171482 0.17612,0.114324 0.3028,0.270357 0.38004,0.468099 0.06489,0.169939 0.09733,0.427934 0.09733,0.773986 m -1.7797,-0.315156 1.36258,0 c 0.0031,-0.0062 0.0046,-0.01545 0.0046,-0.02781 0,-0.200833 -0.06489,-0.369225 -0.19466,-0.505176 -0.12977,-0.139037 -0.28889,-0.208557 -0.47737,-0.208559 -0.19465,2e-6 -0.35532,0.06798 -0.482,0.203924 -0.12668,0.132862 -0.19775,0.312068 -0.21319,0.537619 m 3.46968,-0.690562 c -0.25954,0.0062 -0.4542,0.06643 -0.58396,0.180751 -0.12978,0.114323 -0.19466,0.330607 -0.19466,0.648851 l 0,1.260623 -0.38931,0 0,-2.428554 0.35687,0 0,0.440291 c 0.11123,-0.182294 0.21783,-0.312064 0.31979,-0.38931 0.10505,-0.08033 0.21937,-0.120498 0.34296,-0.120501 0.03399,3e-6 0.08342,0.0046 0.14831,0.0139 l 0,0.393945 m -18.406865,8.025282 0.35686,0 0,0.342964 c 0.10506,-0.145217 0.21474,-0.250269 0.32906,-0.315156 0.11741,-0.06488 0.25645,-0.09733 0.41712,-0.09733 0.29971,3e-6 0.51754,0.123593 0.65349,0.370772 0.11432,-0.135948 0.22709,-0.23173 0.33833,-0.287348 0.11123,-0.05561 0.24717,-0.08342 0.40785,-0.08342 0.22555,3e-6 0.39857,0.05871 0.51907,0.176117 0.12359,0.114323 0.18539,0.28117 0.18539,0.500541 l 0,1.821416 -0.38931,0 0,-1.673107 c 0,-0.154486 -0.04017,-0.273442 -0.1205,-0.356868 -0.07725,-0.08651 -0.18693,-0.129768 -0.32906,-0.12977 -0.15758,2e-6 -0.29199,0.0618 -0.40321,0.185386 -0.11124,0.123592 -0.16685,0.273446 -0.16685,0.449561 l 0,1.524798 -0.38931,0 0,-1.673107 c 0,-0.154486 -0.04017,-0.273442 -0.1205,-0.356868 -0.07725,-0.08651 -0.18693,-0.129768 -0.32906,-0.12977 -0.15758,2e-6 -0.29199,0.0618 -0.40322,0.185386 -0.11123,0.123592 -0.16684,0.273446 -0.16684,0.449561 l 0,1.524798 -0.38931,0 0,-2.428554 m 4.23599,-0.950103 0,0.486638 -0.38931,0 0,-0.486638 0.38931,0 m 0,0.950103 0,2.428554 -0.38468,0 0,-2.428554 0.38468,0 m 1.0412,-0.950103 0,3.378657 -0.38931,0 0,-3.378657 0.38931,0 m 1.03193,0 0,3.378657 -0.38931,0 0,-3.378657 0.38931,0 m 2.70505,2.29415 -1.78898,0 c 0.0031,0.222464 0.04635,0.39549 0.12977,0.51908 0.13286,0.210105 0.32752,0.315156 0.58397,0.315156 0.31515,0 0.5268,-0.162212 0.63494,-0.486638 l 0.38931,0 c -0.04943,0.26572 -0.1653,0.472734 -0.34759,0.621043 -0.1823,0.148308 -0.41249,0.222463 -0.69057,0.222463 -0.33987,0 -0.60868,-0.114321 -0.80643,-0.342964 -0.19774,-0.231732 -0.29661,-0.546887 -0.29661,-0.945468 0,-0.398578 0.10041,-0.716823 0.30125,-0.954737 0.20392,-0.240999 0.47428,-0.361499 0.81106,-0.361502 0.22864,3e-6 0.42948,0.05716 0.60251,0.171482 0.17611,0.114323 0.30279,0.270356 0.38004,0.468099 0.06488,0.169939 0.09732,0.427934 0.09733,0.773986 m -1.77971,-0.315156 1.36259,0 c 0.0031,-0.0062 0.0046,-0.01545 0.0046,-0.02781 0,-0.200833 -0.06489,-0.369225 -0.19465,-0.505176 -0.12978,-0.139037 -0.2889,-0.208557 -0.47737,-0.208559 -0.19466,2e-6 -0.35533,0.06798 -0.48201,0.203924 -0.12668,0.132862 -0.19774,0.312068 -0.21319,0.537619 m 3.46968,-0.690562 c -0.25954,0.0062 -0.45419,0.06643 -0.58396,0.180751 -0.12977,0.114323 -0.19466,0.330606 -0.19466,0.64885 l 0,1.260624 -0.38931,0 0,-2.428554 0.35687,0 0,0.440291 c 0.11123,-0.182294 0.21783,-0.312064 0.31979,-0.38931 0.10505,-0.08033 0.21937,-0.120498 0.34297,-0.120501 0.03398,3e-6 0.08342,0.0046 0.1483,0.0139 l 0,0.393945 m 3.14222,-0.231732 0.38468,0 -0.41712,1.2977 c -0.03708,0.108143 -0.05562,0.185387 -0.05562,0.231733 0,0.05562 0.02317,0.103507 0.06952,0.143674 0.04635,0.04017 0.10042,0.06025 0.16222,0.06025 0.19774,10e-7 0.37694,-0.109686 0.53761,-0.32906 0.16067,-0.219372 0.241,-0.465008 0.24101,-0.736908 -10e-6,-0.386219 -0.16222,-0.719913 -0.48664,-1.001084 -0.32134,-0.281165 -0.70293,-0.42175 -1.14476,-0.421753 -0.48818,3e-6 -0.91457,0.180754 -1.27916,0.542254 -0.3615,0.361504 -0.54226,0.784802 -0.54225,1.269893 -10e-6,0.441837 0.16684,0.814153 0.50054,1.116949 0.33369,0.299707 0.74617,0.449561 1.23745,0.449561 0.24409,0 0.54225,-0.04944 0.89448,-0.148309 l 0.12978,0.310522 c -0.34606,0.129769 -0.6952,0.194654 -1.04744,0.194655 -0.38313,-10e-7 -0.7369,-0.08342 -1.06133,-0.250271 -0.32443,-0.163758 -0.58088,-0.387766 -0.76935,-0.672024 -0.18539,-0.284258 -0.27808,-0.594778 -0.27808,-0.931564 0,-0.302795 0.06489,-0.599412 0.19466,-0.889851 0.12977,-0.293526 0.30897,-0.543796 0.53761,-0.750813 0.20393,-0.185383 0.44338,-0.330602 0.71838,-0.435657 0.27498,-0.108138 0.54997,-0.162209 0.82496,-0.162212 0.54071,3e-6 1.00417,0.16994 1.3904,0.509811 0.3893,0.339876 0.58396,0.744635 0.58396,1.214277 0,0.380042 -0.13286,0.72455 -0.39858,1.033526 -0.23482,0.274989 -0.52217,0.412483 -0.86204,0.412483 -0.29662,0 -0.46656,-0.118955 -0.50981,-0.356868 -0.20393,0.222464 -0.4233,0.333695 -0.65812,0.333695 -0.21629,0 -0.39704,-0.08033 -0.54226,-0.241002 -0.14213,-0.163756 -0.21319,-0.366136 -0.21319,-0.607138 0,-0.336783 0.1205,-0.634945 0.3615,-0.894487 0.241,-0.259538 0.51754,-0.389308 0.8296,-0.38931 0.25954,2e-6 0.44802,0.134407 0.56543,0.403214 l 0.10196,-0.305886 m -0.98254,1.737992 c 0.20083,0 0.37077,-0.128225 0.50981,-0.384676 0.14212,-0.256449 0.21319,-0.502085 0.21319,-0.736909 0,-0.117409 -0.04171,-0.216281 -0.12513,-0.296617 -0.08343,-0.08033 -0.18694,-0.120499 -0.31052,-0.120501 -0.19466,2e-6 -0.36769,0.10042 -0.51908,0.301252 -0.15141,0.200837 -0.2271,0.431024 -0.2271,0.690562 0,0.1514 0.0448,0.28117 0.1344,0.389311 0.0896,0.105052 0.19774,0.157578 0.32443,0.157578 m 3.86819,-1.914109 c 0.34914,3e-6 0.61949,0.115869 0.81106,0.347598 0.19465,0.228645 0.29198,0.55307 0.29198,0.973276 0,0.39858 -0.09887,0.712191 -0.29661,0.940833 -0.19466,0.228643 -0.46192,0.342964 -0.8018,0.342964 -0.34605,0 -0.61641,-0.114321 -0.81106,-0.342964 -0.19157,-0.231732 -0.28735,-0.551522 -0.28735,-0.959372 0,-0.407847 0.09733,-0.726092 0.29199,-0.954737 0.19465,-0.231729 0.46191,-0.347595 0.80179,-0.347598 m 0.0046,0.356868 c -0.21628,2e-6 -0.38622,0.08497 -0.50981,0.254905 -0.12359,0.166849 -0.18538,0.397036 -0.18538,0.690562 0,0.293529 0.06179,0.525261 0.18538,0.695197 0.12359,0.166848 0.29353,0.250271 0.50981,0.250271 0.21319,0 0.38159,-0.08342 0.50518,-0.250271 0.12668,-0.169936 0.19002,-0.397033 0.19002,-0.681293 0,-0.299705 -0.0618,-0.534527 -0.18539,-0.704466 -0.1205,-0.169935 -0.29044,-0.254903 -0.50981,-0.254905 m 2.54117,0.885217 0.83887,1.255989 -0.44957,0 -0.60713,-0.931564 -0.61641,0.931564 -0.44029,0 0.85741,-1.23745 -0.81107,-1.191104 0.44029,0 0.58397,0.880582 0.58396,-0.880582 0.43566,0 -0.81569,1.172565 m 2.76224,-1.172565 0.41712,0 -1.07987,2.938365 c -0.12668,0.333694 -0.33524,0.500541 -0.62568,0.500542 -0.09578,-1e-6 -0.1823,-0.02009 -0.25954,-0.06025 l 0,-0.347598 c 0.08342,0.01854 0.1514,0.02781 0.20392,0.02781 0.08034,-1e-6 0.14368,-0.01854 0.19003,-0.05562 0.04634,-0.03399 0.08651,-0.09424 0.1205,-0.180751 l 0.14831,-0.384676 -0.82034,-2.437823 0.41249,0 0.62104,1.890935 0.67202,-1.890935"
           id="text2396" />
      </g>
      <path
         id="text4170"
         d="M 73.176647,29.674692 L 73.176647,31.588704 L 72,31.588704 L 72,25.8702 L 73.176647,25.8702 L 73.176647,28.38038 L 75.412277,25.8702 L 76.80072,25.8702 L 74.518025,28.333314 L 77.043894,31.588704 L 75.639762,31.588704 L 73.764971,29.062835 L 73.176647,29.674692 M 78.259149,31.588704 L 78.259149,25.8702 L 80.494779,25.8702 C 80.934057,25.870206 81.294896,25.922502 81.577294,26.027086 C 81.864915,26.131683 82.105473,26.299029 82.298971,26.529122 C 82.764395,27.08346 82.99711,27.815596 82.997115,28.72553 C 82.99711,29.645929 82.764395,30.378065 82.298971,30.921938 C 81.92767,31.366449 81.326273,31.588704 80.494779,31.588704 L 78.259149,31.588704 M 79.435796,30.608165 L 80.494779,30.608165 C 81.378568,30.608165 81.820464,29.983235 81.820468,28.733374 C 81.820464,27.47829 81.378568,26.850745 80.494779,26.850739 L 79.435796,26.850739 L 79.435796,30.608165 M 85.564535,29.12559 L 85.564535,30.608165 L 88.663039,30.608165 L 88.663039,31.588704 L 84.387888,31.588704 L 84.387888,25.8702 L 88.521841,25.8702 L 88.521841,26.850739 L 85.564535,26.850739 L 85.564535,28.145051 L 88.3022,28.145051 L 88.3022,29.12559 L 85.564535,29.12559"
         style="font-size:12px;font-style:normal;font-weight:bold;fill:#555753;fill-opacity:1;stroke:none;stroke-width:1px;stroke-linecap:butt;stroke-linejoin:miter;stroke-opacity:1;font-family:FreeSans" />
    </g>
  </g>
</svg>
