<svg height="22" width="22" xmlns="http://www.w3.org/2000/svg" xmlns:xlink="http://www.w3.org/1999/xlink"><radialGradient id="a" cx="2.671429" cy="4.233122" gradientTransform="matrix(1.4401425 0 0 1.3334653 -1.175809 -1.504)" gradientUnits="userSpaceOnUse" r="1.414286"><stop offset="0" stop-color="#ffeb55"/><stop offset="1" stop-color="#f3c300"/></radialGradient><linearGradient id="b" gradientUnits="userSpaceOnUse" x1="2.720816" x2="2.720816" y1=".675006" y2="4.581935"><stop offset="0" stop-color="#ffd500"/><stop offset="1" stop-color="#c19300"/></linearGradient><filter id="c"><feGaussianBlur stdDeviation=".0069934987"/></filter><linearGradient id="d" gradientTransform="matrix(.943958 0 0 .9416252 .612084 .408623)" gradientUnits="userSpaceOnUse" x1="11.43258" x2="11.43258" y1="2.802255" y2="19.248545"><stop offset="0" stop-color="#fff299"/><stop offset="1" stop-color="#fff299" stop-opacity="0"/></linearGradient><radialGradient id="e" cx="11" cy="2.339683" fy="-1.815812" gradientTransform="matrix(.5542849 0 0 .1969933 4.902866 1.878781)" gradientUnits="userSpaceOnUse" r="10"><stop offset="0" stop-color="#fff"/><stop offset="1" stop-color="#fff" stop-opacity="0"/></radialGradient><linearGradient id="f" gradientUnits="userSpaceOnUse" x1="8.852381" x2="8.852381" y1="6.02963" y2="9.354075"><stop offset="0" stop-color="#ffd400"/><stop offset="1" stop-color="#ffffbf"/></linearGradient><linearGradient id="g" gradientUnits="userSpaceOnUse" x1="19.843752" x2="12.468555" y1="4.373643" y2="17.318401"><stop offset="0" stop-color="#fff"/><stop offset="1" stop-color="#fffff4" stop-opacity="0"/></linearGradient><path d="m4.0857143 2.9857142a1.4142857 1.3095238 0 1 1 -2.8285713 0 1.4142857 1.3095238 0 1 1 2.8285713 0z" fill="url(#b)" transform="matrix(7.0707073 0 0 7.6363636 -7.88889 -11.799999)"/><path d="m4.0857143 2.9857142a1.4142857 1.3095238 0 1 1 -2.8285713 0 1.4142857 1.3095238 0 1 1 2.8285713 0z" fill="url(#a)" transform="matrix(6.3636367 0 0 6.8727274 -6.000002 -9.52)"/><path d="m4.0857143 2.9857142a1.4142857 1.3095238 0 1 1 -2.8285713 0 1.4142857 1.3095238 0 1 1 2.8285713 0z" style="fill:none;stroke:#ffffb3;stroke-width:.015121;stroke-linecap:round;stroke-linejoin:round;filter:url(#c)" transform="matrix(6.3636367 0 0 6.8727274 -6.000002 -9.52)"/><path d="m10.995622 2.2918738c-4.6895834 0-8.495622 3.796633-8.495622 8.4746272 0 .171536.0194077.331216.0294987.500238 1.6293477.276063 3.3533401.441387 5.1622704.441387 4.5474689 0 8.6638609-.944879 11.6519819-2.4717662-.72495-3.9457356-4.18416-6.944486-8.348129-6.944486z" fill="url(#d)" opacity=".85" stroke="url(#g)" stroke-linecap="round" stroke-linejoin="round"/><path d="m11 1c-5.52 0-10.00000001 4.4800002-10 10h1c0-4.9679999 4.0319999-9 9-9 4.968 0 9 4.0319999 9 9h1c0-5.52-4.48-9.9999999-10-10z" fill="url(#e)" opacity=".644444"/><path d="m9.7777776 7.6126986a.9253968 1.1873016 0 1 1 -1.8507936 0 .9253968 1.1873016 0 1 1 1.8507936 0z" fill="none" stroke="url(#f)" stroke-linecap="round" stroke-linejoin="round" stroke-width="1.711705" transform="matrix(1.0806175 0 0 1.2633689 -.566038 -2.117647)"/><path d="m9.7777776 7.6126986a.9253968 1.1873016 0 1 1 -1.8507936 0 .9253968 1.1873016 0 1 1 1.8507936 0z" fill="#382509" transform="matrix(1.0806175 0 0 1.2633689 -.566038 -2.117647)"/><path d="m9.7777776 7.6126986a.9253968 1.1873016 0 1 1 -1.8507936 0 .9253968 1.1873016 0 1 1 1.8507936 0z" fill="none" stroke="url(#f)" stroke-linecap="round" stroke-linejoin="round" stroke-width="1.711705" transform="matrix(1.0806175 0 0 1.2633689 3.433962 -2.117647)"/><path d="m9.7777776 7.6126986a.9253968 1.1873016 0 1 1 -1.8507936 0 .9253968 1.1873016 0 1 1 1.8507936 0z" fill="#382509" transform="matrix(1.0806175 0 0 1.2633689 3.433962 -2.117647)"/><path d="m5.03125 10.020155c-.0131983.162321-.03125-.185858-.03125-.020155 0 3.312 2.688 6.000001 6 6 3.312 0 6.000001-2.687999 6-6 0-.165703-.018052.182476-.03125.020155-.307441 2.520264-2.86375 3.979845-5.96875 3.979845s-5.6613087-1.459581-5.96875-3.979845z" fill="#ffd400"/><path d="m5.03125 12.020155c-.0131983.162321-.03125-.185858-.03125-.020155 0 3.312 2.688 6.000001 6 6 3.312 0 6.000001-2.687999 6-6 0-.165703-.018052.182476-.03125.020155-.307441 2.520264-2.86375 3.979845-5.96875 3.979845s-5.6613087-1.459581-5.96875-3.979845z" fill="#fffebe"/><path d="m5.03125 11.020155c-.0131983.162321-.03125-.185858-.03125-.020155 0 3.312 2.688 6.000001 6 6 3.312 0 6.000001-2.687999 6-6 0-.165703-.018052.182476-.03125.020155-.307441 2.520264-2.86375 3.979845-5.96875 3.979845s-5.6613087-1.459581-5.96875-3.979845z" fill="#75511a"/></svg>