<?xml version="1.0" encoding="UTF-8" standalone="no"?>
<!-- Generator: Adobe Illustrator 12.0.0, SVG Export Plug-In . SVG Version: 6.00 Build 51448)  -->

<svg
   xmlns:ns="http://ns.adobe.com/SaveForWeb/1.0/"
   xmlns:dc="http://purl.org/dc/elements/1.1/"
   xmlns:cc="http://creativecommons.org/ns#"
   xmlns:rdf="http://www.w3.org/1999/02/22-rdf-syntax-ns#"
   xmlns:svg="http://www.w3.org/2000/svg"
   xmlns="http://www.w3.org/2000/svg"
   xmlns:xlink="http://www.w3.org/1999/xlink"
   xmlns:sodipodi="http://sodipodi.sourceforge.net/DTD/sodipodi-0.dtd"
   xmlns:inkscape="http://www.inkscape.org/namespaces/inkscape"
   version="1.1"
   id="Layer_1"
   width="128"
   height="128"
   viewBox="0 0 128 128"
   overflow="visible"
   enable-background="new 0 0 128 128"
   xml:space="preserve"
   sodipodi:version="0.32"
   inkscape:version="0.48.1 r9760"
   sodipodi:docname="archive-extract.svgz"
   inkscape:output_extension="org.inkscape.output.svgz.inkscape"
   inkscape:export-filename="/home/pinheiro/pics/oxygen-icons/scalable/actions/small/16x16/document-export.png"
   inkscape:export-xdpi="90"
   inkscape:export-ydpi="90"><defs
   id="defs105"><filter
     id="filter3797"
     inkscape:collect="always"><feGaussianBlur
       id="feGaussianBlur3799"
       stdDeviation="0.89030997"
       inkscape:collect="always" /></filter><linearGradient
     inkscape:collect="always"
     xlink:href="#linearGradient3757"
     id="linearGradient2706"
     gradientUnits="userSpaceOnUse"
     gradientTransform="matrix(0,-1.0293895,1.0293895,0,11.93834,80.22496)"
     x1="64.129814"
     y1="56.231236"
     x2="5.1264462"
     y2="56.231236" /><filter
     id="filter3827"
     inkscape:collect="always"><feGaussianBlur
       id="feGaussianBlur3829"
       stdDeviation="1.7999096"
       inkscape:collect="always" /></filter><linearGradient
     id="linearGradient3757"><stop
       id="stop3759"
       offset="0"
       style="stop-color:#000000;stop-opacity:1;" /><stop
       style="stop-color:#000000;stop-opacity:1;"
       offset="0"
       id="stop3761" /><stop
       style="stop-color:#000000;stop-opacity:0.58823532;"
       offset="0.56999999"
       id="stop3763" /><stop
       id="stop3765"
       offset="0.74199998"
       style="stop-color:#3b3b3b;stop-opacity:0.72000003;" /><stop
       id="stop3767"
       offset="1"
       style="stop-color:white;stop-opacity:0;" /></linearGradient><linearGradient
     inkscape:collect="always"
     xlink:href="#linearGradient3757"
     id="linearGradient2704"
     gradientUnits="userSpaceOnUse"
     gradientTransform="matrix(0,-1.0293895,1.0293895,0,11.93834,80.22496)"
     x1="64.129814"
     y1="56.231236"
     x2="5.1264462"
     y2="56.231236" /><linearGradient
     id="linearGradient3716"><stop
       id="stop3718"
       offset="0"
       style="stop-color:#fefefe;stop-opacity:1" /><stop
       style="stop-color:#e9eaea;stop-opacity:1"
       offset="0.23920465"
       id="stop3732" /><stop
       id="stop3720"
       offset="1"
       style="stop-color:#fdfdfd;stop-opacity:1" /></linearGradient><linearGradient
     inkscape:collect="always"
     xlink:href="#linearGradient3716"
     id="linearGradient2686"
     gradientUnits="userSpaceOnUse"
     gradientTransform="matrix(0,1.1624527,-1.1624527,0,126.50102,-26.032027)"
     x1="63.998402"
     y1="2.0128229"
     x2="63.998402"
     y2="74.721313" /><inkscape:perspective
     sodipodi:type="inkscape:persp3d"
     inkscape:vp_x="0 : 64 : 1"
     inkscape:vp_y="0 : 1000 : 0"
     inkscape:vp_z="128 : 64 : 1"
     inkscape:persp3d-origin="64 : 42.666667 : 1"
     id="perspective123" /><linearGradient
     y2="95.293"
     x2="87.293"
     y1="103"
     x1="95"
     gradientUnits="userSpaceOnUse"
     id="linearGradient4175">
	<stop
   id="stop4177"
   style="stop-color:#000000;stop-opacity:1"
   offset="0" />
	<stop
   id="stop4179"
   style="stop-color:#393B38"
   offset="1" />
</linearGradient><linearGradient
     id="linearGradient3207"><stop
       style="stop-color:#ffffff;stop-opacity:1;"
       offset="0"
       id="stop3209" /><stop
       style="stop-color:#252525;stop-opacity:0;"
       offset="1"
       id="stop3211" /></linearGradient><linearGradient
     inkscape:collect="always"
     xlink:href="#linearGradient4175"
     id="linearGradient2295"
     gradientUnits="userSpaceOnUse"
     x1="85.219681"
     y1="93.219681"
     x2="61.336319"
     y2="69.336319" /><linearGradient
     inkscape:collect="always"
     xlink:href="#XMLID_12_"
     id="linearGradient2297"
     gradientUnits="userSpaceOnUse"
     x1="96"
     y1="104"
     x2="88.0002"
     y2="96.0002" /><radialGradient
     inkscape:collect="always"
     xlink:href="#XMLID_8_"
     id="radialGradient2272"
     gradientUnits="userSpaceOnUse"
     gradientTransform="matrix(0.9787234,0,0,0.9818182,-6.6382955,1.1636364)"
     cx="102"
     cy="112.3047"
     r="139.55859" /><radialGradient
     inkscape:collect="always"
     xlink:href="#XMLID_7_"
     id="radialGradient2275"
     gradientUnits="userSpaceOnUse"
     gradientTransform="translate(-7.9999976,0)"
     cx="102"
     cy="112.3047"
     r="139.5585" /><filter
     inkscape:collect="always"
     id="filter3241"><feGaussianBlur
       inkscape:collect="always"
       stdDeviation="1.0394514"
       id="feGaussianBlur3243" /></filter><filter
     inkscape:collect="always"
     id="filter3772"><feGaussianBlur
       inkscape:collect="always"
       stdDeviation="0.50063244"
       id="feGaussianBlur3774" /></filter><filter
     inkscape:collect="always"
     id="filter4171"><feGaussianBlur
       inkscape:collect="always"
       stdDeviation="0.4901192"
       id="feGaussianBlur4173" /></filter><filter
     inkscape:collect="always"
     id="filter4209"><feGaussianBlur
       inkscape:collect="always"
       stdDeviation="0.90565481"
       id="feGaussianBlur4211" /></filter><filter
     inkscape:collect="always"
     id="filter4293"
     x="-0.12357724"
     width="1.2471545"
     y="-0.12357724"
     height="1.2471545"><feGaussianBlur
       inkscape:collect="always"
       stdDeviation="1.7720846"
       id="feGaussianBlur4295" /></filter><linearGradient
     id="linearGradient3202"><stop
       id="stop3204"
       offset="0"
       style="stop-color:#cbff9c;stop-opacity:1;" /><stop
       id="stop3206"
       offset="1"
       style="stop-color:#65c171;stop-opacity:0" /></linearGradient><radialGradient
     id="XMLID_4_"
     cx="48"
     cy="-0.2148"
     r="55.147999"
     gradientTransform="matrix(0.9792,0,0,0.9725,133.0002,20.8762)"
     gradientUnits="userSpaceOnUse"><stop
       offset="0"
       style="stop-color:#72D13D"
       id="stop3082" /><stop
       offset="0.3553"
       style="stop-color:#35AC1C"
       id="stop3084" /><stop
       offset="0.6194"
       style="stop-color:#0F9508"
       id="stop3086" /><stop
       offset="0.7574"
       style="stop-color:#008C00"
       id="stop3088" /><stop
       offset="1"
       style="stop-color:#007A00"
       id="stop3090" /></radialGradient><linearGradient
     y2="0"
     x2="28"
     y1="57.5"
     x1="28"
     gradientUnits="userSpaceOnUse"
     id="linearGradient5412"><stop
       id="stop5414"
       style="stop-color:#fff14d;stop-opacity:1;"
       offset="0" /><stop
       id="stop5416"
       style="stop-color:#f8ffa0;stop-opacity:0;"
       offset="1" /></linearGradient></defs><sodipodi:namedview
   inkscape:window-height="687"
   inkscape:window-width="1022"
   inkscape:pageshadow="2"
   inkscape:pageopacity="0.0"
   guidetolerance="10.0"
   gridtolerance="10.0"
   objecttolerance="10.0"
   borderopacity="1.0"
   bordercolor="#666666"
   pagecolor="#ffffff"
   id="base"
   inkscape:zoom="2.5522135"
   inkscape:cx="-7.7319262"
   inkscape:cy="84.536459"
   inkscape:window-x="404"
   inkscape:window-y="248"
   inkscape:current-layer="Layer_1"
   showgrid="true"
   showguides="true"
   inkscape:guide-bbox="true"
   inkscape:window-maximized="0"><inkscape:grid
     id="GridFromPre046Settings"
     type="xygrid"
     originx="0px"
     originy="0px"
     spacingx="4px"
     spacingy="4px"
     color="#0000ff"
     empcolor="#0000ff"
     opacity="0.2"
     empopacity="0.4"
     empspacing="2"
     enabled="true"
     visible="true" /></sodipodi:namedview>
<metadata
   id="metadata3">
	<ns:sfw>
		<ns:slices>
			<ns:slice
   y="0"
   x="0"
   height="128"
   width="128"
   sliceID="1316743234" />
		</ns:slices>
		<ns:sliceSourceBounds
   y="0"
   x="0"
   height="128"
   width="128"
   bottomLeftOrigin="true" />
		<ns:optimizationSettings>
			<ns:targetSettings
   targetSettingsID="0"
   fileFormat="PNG24Format">
				<ns:PNG24Format
   transparency="true"
   filtered="false"
   matteColor="#FFFFFF"
   noMatteColor="false"
   interlaced="false">
					</ns:PNG24Format>
			</ns:targetSettings>
			<ns:targetSettings
   targetSettingsID="1696735251"
   fileFormat="PNG24Format">
				<ns:PNG24Format
   transparency="true"
   filtered="false"
   matteColor="#FFFFFF"
   noMatteColor="false"
   interlaced="false">
					</ns:PNG24Format>
			</ns:targetSettings>
		</ns:optimizationSettings>
	</ns:sfw>
<rdf:RDF><cc:Work
     rdf:about=""><dc:format>image/svg+xml</dc:format><dc:type
       rdf:resource="http://purl.org/dc/dcmitype/StillImage" /><dc:title></dc:title></cc:Work></rdf:RDF></metadata>

<radialGradient
   id="XMLID_7_"
   cx="102"
   cy="112.3047"
   r="139.5585"
   gradientUnits="userSpaceOnUse">
	<stop
   offset="0"
   style="stop-color:#00537D"
   id="stop16" />
	<stop
   offset="0.0151"
   style="stop-color:#186389"
   id="stop18" />
	<stop
   offset="0.0558"
   style="stop-color:#558CA8"
   id="stop20" />
	<stop
   offset="0.0964"
   style="stop-color:#89AFC3"
   id="stop22" />
	<stop
   offset="0.1357"
   style="stop-color:#B3CCD8"
   id="stop24" />
	<stop
   offset="0.1737"
   style="stop-color:#D4E2E9"
   id="stop26" />
	<stop
   offset="0.2099"
   style="stop-color:#ECF2F5"
   id="stop28" />
	<stop
   offset="0.2435"
   style="stop-color:#FAFCFD"
   id="stop30" />
	<stop
   offset="0.2722"
   style="stop-color:#FFFFFF"
   id="stop32" />
</radialGradient>

<radialGradient
   id="XMLID_8_"
   cx="102"
   cy="112.3047"
   r="139.55859"
   gradientUnits="userSpaceOnUse">
	<stop
   offset="0"
   style="stop-color:#535557"
   id="stop37" />
	
	<stop
   offset="0.11366145"
   style="stop-color:#898A8C"
   id="stop41" />
	
	
	<stop
   offset="0.20296688"
   style="stop-color:#ECECEC"
   id="stop47" />
	<stop
   offset="0.2363"
   style="stop-color:#FAFAFA"
   id="stop49" />
	<stop
   offset="0.2722"
   style="stop-color:#FFFFFF"
   id="stop51" />
	<stop
   offset="0.5313"
   style="stop-color:#FAFAFA"
   id="stop53" />
	<stop
   offset="0.8449"
   style="stop-color:#EBECEC"
   id="stop55" />
	<stop
   offset="1"
   style="stop-color:#E1E2E3"
   id="stop57" />
</radialGradient>

<linearGradient
   id="XMLID_9_"
   gradientUnits="userSpaceOnUse"
   x1="94.3438"
   y1="102.3447"
   x2="86.5356"
   y2="94.5366">
	<stop
   offset="0"
   style="stop-color:#FFFFFF"
   id="stop62" />
	<stop
   offset="1"
   style="stop-color:#555753"
   id="stop64" />
</linearGradient>

<linearGradient
   id="XMLID_10_"
   gradientUnits="userSpaceOnUse"
   x1="95"
   y1="103"
   x2="86.5865"
   y2="94.5865">
	<stop
   offset="0"
   style="stop-color:#FFFFFF"
   id="stop69" />
	<stop
   offset="1"
   style="stop-color:#555753"
   id="stop71" />
</linearGradient>

<linearGradient
   id="XMLID_11_"
   gradientUnits="userSpaceOnUse"
   x1="95"
   y1="103"
   x2="87.293"
   y2="95.293">
	<stop
   offset="0"
   style="stop-color:#FFFFFF"
   id="stop76" />
	<stop
   offset="1"
   style="stop-color:#393B38"
   id="stop78" />
</linearGradient>

<linearGradient
   id="XMLID_12_"
   gradientUnits="userSpaceOnUse"
   x1="96"
   y1="104"
   x2="88.0002"
   y2="96.0002">
	<stop
   offset="0"
   style="stop-color:#888A85"
   id="stop83" />
	<stop
   offset="0.0072"
   style="stop-color:#8C8E89"
   id="stop85" />
	<stop
   offset="0.0673"
   style="stop-color:#ABACA9"
   id="stop87" />
	<stop
   offset="0.1347"
   style="stop-color:#C5C6C4"
   id="stop89" />
	<stop
   offset="0.2115"
   style="stop-color:#DBDBDA"
   id="stop91" />
	<stop
   offset="0.3012"
   style="stop-color:#EBEBEB"
   id="stop93" />
	<stop
   offset="0.4122"
   style="stop-color:#F7F7F6"
   id="stop95" />
	<stop
   offset="0.5679"
   style="stop-color:#FDFDFD"
   id="stop97" />
	<stop
   offset="1"
   style="stop-color:#FFFFFF"
   id="stop99" />
</linearGradient>
<path
   sodipodi:nodetypes="cccccccc"
   transform="matrix(1.0416667,0,0,1.0357143,-17.958333,-3.3215342)"
   style="opacity:0.7150685;fill:#000000;fill-opacity:1;filter:url(#filter3241)"
   d="m 23,9 0.04082,112 61.131184,0 c 0.53,0 1.039,-0.211 1.414,-0.586 L 118.414,87.586 C 118.789,87.211 119,86.702 119,86.172 L 119,9 23,9 z"
   id="path4081"
   inkscape:connector-curvature="0" /><path
   sodipodi:nodetypes="cccccccc"
   transform="matrix(1.0416667,0,0,1.0357143,-17.958333,-3.3215342)"
   style="opacity:0.89589042;fill:#000000;fill-opacity:1;filter:url(#filter3772)"
   d="m 24.919999,10.931136 0,108.137934 58.676001,-1e-4 c 0.53,0 1.039,-0.211 1.414,-0.586 l 31.484,-31.765936 c 0.375,-0.375 0.586,-0.884 0.586,-1.414 l 0,-74.371898 -92.160001,0 z"
   id="path3726"
   inkscape:connector-curvature="0" /><path
   id="path6594"
   d="M 23,9.9655172 23.040816,121 84.172,121 c 0.53,0 1.039,-0.211 1.414,-0.586 13.296921,-8.21061 24.14086,-19.26784 32.828,-32.828 0.375,-0.375 0.586,-0.884 0.586,-1.414 l 0,-76.2064828 -96,0 z"
   style="opacity:0.83561647;fill:#000000;fill-opacity:1;filter:url(#filter3241)"
   transform="matrix(1.0416667,0,0,1.0357143,-17.958333,-3.3215342)"
   sodipodi:nodetypes="cccccccc"
   inkscape:connector-curvature="0" /><path
   style="fill:url(#radialGradient2275)"
   d="m 8.000002,8 0,112 61.172,0 c 0.53,0 1.039,-0.211 1.414,-0.586 L 103.414,86.586 C 103.789,86.211 104,85.702 104,85.172 L 104,8 8.000002,8 z"
   id="path34"
   sodipodi:nodetypes="cccccccc"
   inkscape:connector-curvature="0" /><path
   style="fill:url(#radialGradient2272);fill-opacity:1"
   d="m 16.678725,16 c -0.539276,0 -0.978723,0.440836 -0.978723,0.981818 l 0.3,94.036362 c 0,0.54197 0.439447,0.98182 0.978723,0.98182 l 51.913022,0 c 0.257404,0 0.509915,-0.10407 0.691957,-0.28767 L 95.71323,85.4812 C 95.89626,85.2976 96,85.045273 96,84.787055 L 96,16.981818 C 96,16.440836 95.56153,16 95.02128,16 l -78.342555,0 z"
   id="path59"
   sodipodi:nodetypes="ccccccccccc"
   inkscape:connector-curvature="0" /><g
   id="g1973"
   transform="translate(-7.9999976,0)"><path
     style="opacity:0.90684934;fill:#000000;fill-opacity:1;filter:url(#filter4293)"
     id="path66"
     d="M 111.414,86.586 C 111.664,86.336 85.035,85 80,85 c -1.654,0 -3,1.346 -3,3 0,5.035 1.336,31.664 1.586,31.414 l 32.828,-32.828 z"
     sodipodi:nodetypes="csscc"
     inkscape:connector-curvature="0" /><path
     style="opacity:0.2;fill:#000000;fill-opacity:1;filter:url(#filter4209)"
     id="path73"
     d="M 111.414,86.586 C 111.789,86.211 89.444,86 80,86 c -1.103,0 -2,0.897 -2,2 0,9.444 0.211,31.789 0.586,31.414 l 32.828,-32.828 z"
     sodipodi:nodetypes="csscc"
     inkscape:connector-curvature="0" /><path
     style="opacity:0.1;fill:url(#linearGradient2295);filter:url(#filter4171)"
     id="path80"
     d="M 111.414,86.586 C 111.653,86.347 89.807,87 80,87 c -0.553,0 -1,0.447 -1,1 0,9.807 -0.653,31.653 -0.414,31.414 l 32.828,-32.828 z"
     sodipodi:nodetypes="csscc"
     inkscape:connector-curvature="0" /><path
     style="fill:url(#linearGradient2297)"
     id="path101"
     d="m 78.586,119.414 c 0,0 11.914,-9.914 17.414,-15.414 5.5,-5.5 15.414,-17.414 15.414,-17.414 0,0 -21.164,1.414 -31.414,1.414 0,10.25 -1.414,31.414 -1.414,31.414 z"
     sodipodi:nodetypes="csccc"
     inkscape:connector-curvature="0" /></g>

<path
   style="fill:none;stroke:#000000;stroke-width:1px;stroke-linecap:butt;stroke-linejoin:miter;stroke-opacity:1"
   d="m 93.2785,83.622527 0,0 z"
   id="path3341"
   inkscape:connector-curvature="0" /><path
   sodipodi:type="inkscape:offset"
   inkscape:radius="6.3651431e-05"
   inkscape:original="M 62.6875 3.21875 C 62.209361 3.3251895 61.823747 3.7277733 61.46875 4.0625 L 61.375 3.96875 L 26.40625 36.40625 C 25.944476 36.842055 25.46876 37.372515 25.46875 38.53125 C 25.46875 39.690023 25.94457 40.220514 26.40625 40.65625 L 34.5625 48.84375 C 34.572825 48.85426 34.583242 48.864675 34.59375 48.875 C 35.688109 49.933529 37.244424 50.003065 38.4375 49.09375 C 38.448008 49.083427 38.458425 49.073008 38.46875 49.0625 L 54.3125 36.40625 L 55.3125 74.59375 C 55.319633 76.084319 55.500393 77.522997 57.21875 77.53125 L 68.5625 77.53125 C 70.279853 77.523029 71.491782 76.311095 71.5 74.59375 L 72.5 36.40625 L 88.34375 49.0625 C 88.354075 49.07301 88.364492 49.083425 88.375 49.09375 C 89.446736 49.910588 91.218935 49.811821 92.1875 48.875 C 92.198008 48.864677 92.208425 48.854258 92.21875 48.84375 L 100.46875 40.625 C 101.15606 39.976349 101.31251 39.23812 101.3125 38.53125 C 101.3125 37.824378 101.09357 37.054917 100.40625 36.40625 L 65.40625 3.96875 C 64.973706 3.5572792 64.408622 3.3135174 63.8125 3.28125 C 63.537956 3.2172038 63.21617 3.1010615 62.6875 3.21875 z "
   style="fill:url(#linearGradient2706);fill-opacity:1;stroke:none;filter:url(#filter3797)"
   id="path3769"
   d="M 62.6875,3.21875 C 62.209361,3.3251895 61.823747,3.7277733 61.46875,4.0625 L 61.375,3.96875 26.40625,36.40625 c -0.461774,0.435805 -0.93749,0.966265 -0.9375,2.125 0,1.158773 0.47582,1.689264 0.9375,2.125 l 8.15625,8.1875 c 0.01033,0.01051 0.02074,0.02092 0.03125,0.03125 1.094359,1.058529 2.650674,1.128065 3.84375,0.21875 0.01051,-0.01032 0.02092,-0.02074 0.03125,-0.03125 l 15.84375,-12.65625 1,38.1875 c 0.0071,1.490569 0.187893,2.929247 1.90625,2.9375 l 11.34375,0 c 1.717353,-0.0082 2.929282,-1.220155 2.9375,-2.9375 l 1,-38.1875 15.84375,12.65625 c 0.01032,0.01051 0.02074,0.02092 0.03125,0.03125 1.071736,0.816838 2.843935,0.718071 3.8125,-0.21875 0.01051,-0.01032 0.02093,-0.02074 0.03125,-0.03125 l 8.25,-8.21875 c 0.68731,-0.648651 0.84376,-1.38688 0.84375,-2.09375 0,-0.706872 -0.21893,-1.476333 -0.90625,-2.125 l -35,-32.4375 C 64.973706,3.5572792 64.408622,3.3135174 63.8125,3.28125 63.537956,3.2172038 63.21617,3.1010615 62.6875,3.21875 z"
   transform="matrix(0,1.1624527,-1.1624527,0,128.25009,-26.032027)" /><path
   transform="matrix(0,1.1624527,-1.1624527,0,128.25009,-26.032027)"
   d="m 62.5625,2.65625 c -0.545945,0.121534 -0.885393,0.4596071 -1.1875,0.75 -0.0054,0.00523 -0.02586,-0.0052 -0.03125,0 A 0.56202262,0.56202262 0 0 0 61,3.5625 L 26.03125,36 c -0.487207,0.459808 -1.124989,1.218707 -1.125,2.53125 0,1.299271 0.640131,2.03886 1.125,2.5 l 0,0.03125 8.125,8.1875 c 0.01268,0.01291 0.01842,0.01864 0.03125,0.03125 1.276892,1.235085 3.2023,1.310508 4.59375,0.25 A 0.56202262,0.56202262 0 0 0 38.8125,49.5 L 38.875,49.46875 53.78125,37.53125 54.75,74.59375 c 0.0037,0.767135 0.04152,1.581995 0.375,2.28125 0.333476,0.699255 1.077838,1.213871 2.09375,1.21875 l 11.34375,0 c 1.980464,-0.0095 3.490523,-1.519543 3.5,-3.5 l 0.96875,-37.0625 14.90625,11.9375 c 0.01268,0.01291 0.01842,0.01864 0.03125,0.03125 L 88,49.5 a 0.56202262,0.56202262 0 0 0 0.03125,0.03125 c 1.326646,1.011121 3.361897,0.911254 4.5625,-0.25 0.01291,-0.01268 0.01864,-0.01842 0.03125,-0.03125 l 8.21875,-8.21875 0,-0.03125 c 0.79355,-0.761926 1.03126,-1.685895 1.03125,-2.46875 0,-0.822906 -0.28842,-1.77121 -1.09375,-2.53125 l -35,-32.4375 C 65.275784,3.0816601 64.630638,2.8098994 63.9375,2.75 l 0,-0.03125 c -0.01516,-0.00354 -0.07607,0.00438 -0.09375,0 -0.242188,-0.060001 -0.673216,-0.1978559 -1.28125,-0.0625 z"
   id="path3801"
   style="opacity:0.38118813;fill:url(#linearGradient2704);fill-opacity:1;stroke:none;filter:url(#filter3827)"
   inkscape:original="M 62.6875 3.21875 C 62.209361 3.3251895 61.823747 3.7277733 61.46875 4.0625 L 61.375 3.96875 L 26.40625 36.40625 C 25.944476 36.842055 25.46876 37.372515 25.46875 38.53125 C 25.46875 39.690023 25.94457 40.220514 26.40625 40.65625 L 34.5625 48.84375 C 34.572825 48.85426 34.583242 48.864675 34.59375 48.875 C 35.688109 49.933529 37.244424 50.003065 38.4375 49.09375 C 38.448008 49.083427 38.458425 49.073008 38.46875 49.0625 L 54.3125 36.40625 L 55.3125 74.59375 C 55.319633 76.084319 55.500393 77.522997 57.21875 77.53125 L 68.5625 77.53125 C 70.279853 77.523029 71.491782 76.311095 71.5 74.59375 L 72.5 36.40625 L 88.34375 49.0625 C 88.354075 49.07301 88.364492 49.083425 88.375 49.09375 C 89.446736 49.910588 91.218935 49.811821 92.1875 48.875 C 92.198008 48.864677 92.208425 48.854258 92.21875 48.84375 L 100.46875 40.625 C 101.15606 39.976349 101.31251 39.23812 101.3125 38.53125 C 101.3125 37.824378 101.09357 37.054917 100.40625 36.40625 L 65.40625 3.96875 C 64.973706 3.5572792 64.408622 3.3135174 63.8125 3.28125 C 63.537956 3.2172038 63.21617 3.1010615 62.6875 3.21875 z "
   inkscape:radius="0.56196642"
   sodipodi:type="inkscape:offset" /><path
   style="fill:url(#linearGradient2686);fill-opacity:1;stroke:none"
   d="M 122.10238,48.00237 83.81065,88.687337 c -0.09228,0.09779 -0.220793,0.1532 -0.355245,0.1532 -0.134454,0 -0.262963,-0.05541 -0.355247,-0.1532 L 73.527227,79.114404 C 73.35937,78.940864 73.343479,78.670722 73.489837,78.4787 L 92,55.331649 l -51.641486,0 c -0.267944,-0.0013 -0.484841,-0.218179 -0.486123,-0.486126 l 0,-14.3594 C 39.873691,40.218178 40.09057,40.001282 40.358514,40 L 92,40 73.489837,16.852947 c -0.146354,-0.192022 -0.130463,-0.462162 0.03739,-0.635702 l 9.572931,-9.5729317 c 0.09228,-0.097782 0.220793,-0.153205 0.355247,-0.153205 0.134452,0 0.262963,0.055423 0.355245,0.153205 l 38.29173,40.6849627 c 0.27495,0.194779 0,0.469059 0,0.673094 z"
   id="path2842"
   sodipodi:nodetypes="ccsccccccccccccsccc"
   inkscape:connector-curvature="0" /><path
   style="fill:#ffffff;fill-opacity:1;stroke:none"
   d="m 122.21771,47.488788 c -0.0129,-0.05629 -0.0658,-0.130651 -0.13451,-0.179346 L 83.793207,6.6431353 c -0.09228,-0.097783 -0.224237,-0.134508 -0.35869,-0.134511 -0.134453,0 -0.221566,0.036729 -0.313853,0.134511 l -4.511382,4.4945437 34.673498,36.171763 c 0.27495,0.194779 0,0.468505 0,0.672544 l -34.143153,36.718041 3.981037,3.99311 c 0.09229,0.09777 0.1794,0.13449 0.313853,0.1345 0.134453,0 0.266409,-0.03673 0.35869,-0.1345 L 122.0832,47.981986 c 0,-0.15303 0.17318,-0.32432 0.13451,-0.493198 z"
   id="path2861"
   sodipodi:nodetypes="cccsccccccsccc"
   inkscape:connector-curvature="0" /></svg>