<?xml version="1.0" encoding="UTF-8" standalone="no"?>
<svg
   xmlns:dc="http://purl.org/dc/elements/1.1/"
   xmlns:cc="http://creativecommons.org/ns#"
   xmlns:rdf="http://www.w3.org/1999/02/22-rdf-syntax-ns#"
   xmlns:svg="http://www.w3.org/2000/svg"
   xmlns="http://www.w3.org/2000/svg"
   xmlns:xlink="http://www.w3.org/1999/xlink"
   xmlns:sodipodi="http://sodipodi.sourceforge.net/DTD/sodipodi-0.dtd"
   xmlns:inkscape="http://www.inkscape.org/namespaces/inkscape"
   sodipodi:docname="document-multiple.svg"
   inkscape:version="1.0 (unknown)"
   id="svg2069"
   version="1.1"
   viewBox="0 0 31.860903 36.027599"
   height="36.027599mm"
   width="31.860903mm">
  <defs
     id="defs2063">
    <filter
       inkscape:collect="always"
       id="filter5749">
      <feGaussianBlur
         inkscape:collect="always"
         stdDeviation="1.493351"
         id="feGaussianBlur5751" />
    </filter>
    <radialGradient
       inkscape:collect="always"
       xlink:href="#path59_1_"
       id="radialGradient3332"
       gradientUnits="userSpaceOnUse"
       gradientTransform="matrix(0.35488356,0,0,-0.35457862,44.340166,-64.024902)"
       cx="407.15656"
       cy="-379.50104"
       fx="407.15656"
       fy="-379.50104"
       r="94.664803" />
    <radialGradient
       id="path59_1_"
       cx="402.76709"
       cy="-375.27051"
       r="94.664803"
       gradientTransform="matrix(1,0,0,-1,-281.9995,-305)"
       gradientUnits="userSpaceOnUse">
      <stop
         offset="0"
         style="stop-color:#535557"
         id="stop38" />
      <stop
         offset="0.07095145"
         style="stop-color:#898A8C"
         id="stop40" />
      <stop
         offset="0.203"
         style="stop-color:#ECECEC"
         id="stop42" />
      <stop
         offset="0.2363"
         style="stop-color:#FAFAFA"
         id="stop44" />
      <stop
         offset="0.2722"
         style="stop-color:#FFFFFF"
         id="stop46" />
      <stop
         offset="0.5313"
         style="stop-color:#FAFAFA"
         id="stop48" />
      <stop
         offset="0.8449"
         style="stop-color:#EBECEC"
         id="stop50" />
      <stop
         offset="1"
         style="stop-color:#E1E2E3"
         id="stop52" />
    </radialGradient>
    <filter
       inkscape:collect="always"
       id="filter5704">
      <feGaussianBlur
         inkscape:collect="always"
         stdDeviation="0.90323211"
         id="feGaussianBlur5706" />
    </filter>
    <linearGradient
       inkscape:collect="always"
       xlink:href="#path101_1_"
       id="linearGradient3334"
       gradientUnits="userSpaceOnUse"
       gradientTransform="matrix(0.312508,0,0,-0.31223944,62.874576,-46.730991)"
       x1="398.44479"
       y1="-369.5"
       x2="392.48816"
       y2="-363.53824" />
    <linearGradient
       id="path101_1_"
       gradientUnits="userSpaceOnUse"
       x1="398.44479"
       y1="-369.5"
       x2="392.9447"
       y2="-363.99991"
       gradientTransform="matrix(1,0,0,-1,-281.9995,-305)">
      <stop
         offset="0"
         style="stop-color:#888A85"
         id="stop74" />
      <stop
         offset="0.0072"
         style="stop-color:#8C8E89"
         id="stop4208" />
      <stop
         offset="0.0673"
         style="stop-color:#ABACA9"
         id="stop4210" />
      <stop
         offset="0.1347"
         style="stop-color:#C5C6C4"
         id="stop80" />
      <stop
         offset="0.2115"
         style="stop-color:#DBDBDA"
         id="stop82" />
      <stop
         offset="0.3012"
         style="stop-color:#EBEBEB"
         id="stop84" />
      <stop
         offset="0.4122"
         style="stop-color:#F7F7F6"
         id="stop86" />
      <stop
         offset="0.5679"
         style="stop-color:#FDFDFD"
         id="stop88" />
      <stop
         offset="1"
         style="stop-color:#FFFFFF"
         id="stop90" />
    </linearGradient>
    <radialGradient
       inkscape:collect="always"
       xlink:href="#path59_1_"
       id="radialGradient3278"
       gradientUnits="userSpaceOnUse"
       gradientTransform="matrix(0.35488356,0,0,-0.35457862,48.573496,-59.791572)"
       cx="407.15656"
       cy="-379.50104"
       fx="407.15656"
       fy="-379.50104"
       r="94.664803" />
    <radialGradient
       id="radialGradient1971"
       cx="402.76709"
       cy="-375.27051"
       r="94.664803"
       gradientTransform="matrix(1,0,0,-1,-281.9995,-305)"
       gradientUnits="userSpaceOnUse">
      <stop
         offset="0"
         style="stop-color:#535557"
         id="stop1955" />
      <stop
         offset="0.07095145"
         style="stop-color:#898A8C"
         id="stop1957" />
      <stop
         offset="0.203"
         style="stop-color:#ECECEC"
         id="stop1959" />
      <stop
         offset="0.2363"
         style="stop-color:#FAFAFA"
         id="stop1961" />
      <stop
         offset="0.2722"
         style="stop-color:#FFFFFF"
         id="stop1963" />
      <stop
         offset="0.5313"
         style="stop-color:#FAFAFA"
         id="stop1965" />
      <stop
         offset="0.8449"
         style="stop-color:#EBECEC"
         id="stop1967" />
      <stop
         offset="1"
         style="stop-color:#E1E2E3"
         id="stop1969" />
    </radialGradient>
    <linearGradient
       inkscape:collect="always"
       xlink:href="#path101_1_"
       id="linearGradient3280"
       gradientUnits="userSpaceOnUse"
       gradientTransform="matrix(0.312508,0,0,-0.31223944,67.107916,-42.497657)"
       x1="398.44479"
       y1="-369.5"
       x2="392.48816"
       y2="-363.53824" />
    <radialGradient
       inkscape:collect="always"
       xlink:href="#path59_1_"
       id="radialGradient3224"
       gradientUnits="userSpaceOnUse"
       gradientTransform="matrix(0.35488356,0,0,-0.35457862,52.806826,-55.558232)"
       cx="407.15656"
       cy="-379.50104"
       fx="407.15656"
       fy="-379.50104"
       r="94.664803" />
    <radialGradient
       id="radialGradient2019"
       cx="402.76709"
       cy="-375.27051"
       r="94.664803"
       gradientTransform="matrix(1,0,0,-1,-281.9995,-305)"
       gradientUnits="userSpaceOnUse">
      <stop
         offset="0"
         style="stop-color:#535557"
         id="stop2003" />
      <stop
         offset="0.07095145"
         style="stop-color:#898A8C"
         id="stop2005" />
      <stop
         offset="0.203"
         style="stop-color:#ECECEC"
         id="stop2007" />
      <stop
         offset="0.2363"
         style="stop-color:#FAFAFA"
         id="stop2009" />
      <stop
         offset="0.2722"
         style="stop-color:#FFFFFF"
         id="stop2011" />
      <stop
         offset="0.5313"
         style="stop-color:#FAFAFA"
         id="stop2013" />
      <stop
         offset="0.8449"
         style="stop-color:#EBECEC"
         id="stop2015" />
      <stop
         offset="1"
         style="stop-color:#E1E2E3"
         id="stop2017" />
    </radialGradient>
    <linearGradient
       inkscape:collect="always"
       xlink:href="#path101_1_"
       id="linearGradient3226"
       gradientUnits="userSpaceOnUse"
       gradientTransform="matrix(0.312508,0,0,-0.31223944,71.341247,-38.264324)"
       x1="398.44479"
       y1="-369.5"
       x2="392.48816"
       y2="-363.53824" />
  </defs>
  <sodipodi:namedview
     inkscape:window-maximized="1"
     inkscape:window-y="0"
     inkscape:window-x="0"
     inkscape:window-height="983"
     inkscape:window-width="1920"
     showgrid="false"
     inkscape:document-rotation="0"
     inkscape:current-layer="layer1"
     inkscape:document-units="mm"
     inkscape:cy="88.357332"
     inkscape:cx="59.055089"
     inkscape:zoom="3.959798"
     inkscape:pageshadow="2"
     inkscape:pageopacity="0.0"
     borderopacity="1.0"
     bordercolor="#666666"
     pagecolor="#ffffff"
     id="base" />
  <metadata
     id="metadata2066">
    <rdf:RDF>
      <cc:Work
         rdf:about="">
        <dc:format>image/svg+xml</dc:format>
        <dc:type
           rdf:resource="http://purl.org/dc/dcmitype/StillImage" />
        <dc:title></dc:title>
      </cc:Work>
    </rdf:RDF>
  </metadata>
  <g
     transform="translate(-170.78979,-47.754058)"
     id="layer1"
     inkscape:groupmode="layer"
     inkscape:label="Слой 1">
    <path
       id="path3284"
       d="M 29.920355,32.569314 29.920365,86 l 27.3926,0.186153 c 0.388142,0 0.754938,-0.157106 1.029297,-0.427632 l 19.40286,-19.880598 c 0.27436,-0.271578 0.431641,-0.635526 0.431641,-1.019736 L 78,32.569314 Z"
       style="opacity:0.45;fill:#000000;fill-opacity:1;filter:url(#filter5749)"
       sodipodi:nodetypes="cccccccc"
       transform="matrix(0.39832918,0,0,0.39832918,160.79383,38.848814)" />
    <path
       id="path3286"
       d="m 173.77031,52.975753 v 18.974848 h 9.525 c 0.14208,0 0.27634,-0.05805 0.37677,-0.157998 l 6.87357,-6.639945 c 0.10042,-0.100343 0.158,-0.234813 0.158,-0.37677 l 0.0559,-11.79969 z"
       style="fill:#ffffff;fill-opacity:1;stroke-width:0.264583"
       sodipodi:nodetypes="cccccccc" />
    <path
       sodipodi:nodetypes="cccccccc"
       style="fill:url(#radialGradient3332);stroke-width:0.264583"
       d="m 174.87247,53.958935 v 16.933333 h 8.17795 c 0.12954,0 0.25194,-0.05292 0.3435,-0.144047 l 6.10735,-5.980873 c 0.0916,-0.09148 0.14404,-0.214078 0.14404,-0.343498 V 53.958935 Z"
       id="path3288" />
    <path
       transform="matrix(0.34856224,0,0,0.35092664,217.8538,44.070921)"
       id="path3290"
       d="m -99.99277,80.598 c 0,0 7.392424,-6.696974 11.177678,-10.478974 3.785253,-3.782 11.412735,-12.092026 11.412735,-12.092026 0,0 -11.142492,-0.626944 -23.142493,-0.626944 0,12 0.55208,23.197944 0.55208,23.197944 z"
       style="opacity:0.3;fill:#000000;fill-opacity:1;filter:url(#filter5704)"
       sodipodi:nodetypes="csccc" />
    <path
       sodipodi:nodetypes="csccc"
       style="fill:url(#linearGradient3334);stroke-width:0.264583"
       d="m 183.47664,71.950601 c 0,0 2.73314,-2.128223 3.91504,-3.309114 1.18191,-1.180889 3.25077,-3.585458 3.25077,-3.585458 0,0 -2.9085,0.222439 -6.65538,0.222439 0,3.746876 -0.51043,6.672133 -0.51043,6.672133 z"
       id="path3292" />
    <path
       transform="matrix(0.39832918,0,0,0.39832918,165.02716,43.082147)"
       sodipodi:nodetypes="cccccccc"
       style="opacity:0.45;fill:#000000;fill-opacity:1;filter:url(#filter5749)"
       d="M 29.920355,32.569314 29.920365,86 l 27.3926,0.186153 c 0.388142,0 0.754938,-0.157106 1.029297,-0.427632 l 19.40286,-19.880598 c 0.27436,-0.271578 0.431641,-0.635526 0.431641,-1.019736 L 78,32.569314 Z"
       id="path3230" />
    <path
       sodipodi:nodetypes="cccccccc"
       style="fill:#ffffff;fill-opacity:1;stroke-width:0.264583"
       d="m 178.00364,57.209087 1e-5,18.974847 h 9.525 c 0.14207,0 0.27634,-0.05805 0.37677,-0.157999 l 6.87356,-6.639944 c 0.10043,-0.100342 0.158,-0.234813 0.158,-0.37677 l 0.0559,-11.79969 z"
       id="path3232" />
    <path
       id="path3234"
       d="m 179.1058,58.192268 1e-5,16.933333 h 8.17795 c 0.12953,0 0.25193,-0.05292 0.34349,-0.144047 l 6.10735,-5.980873 c 0.0916,-0.09148 0.14405,-0.214077 0.14405,-0.343498 V 58.192268 Z"
       style="fill:url(#radialGradient3278);stroke-width:0.264583"
       sodipodi:nodetypes="cccccccc" />
    <path
       sodipodi:nodetypes="csccc"
       style="opacity:0.3;fill:#000000;fill-opacity:1;filter:url(#filter5704)"
       d="m -99.99277,80.598 c 0,0 7.392424,-6.696974 11.177678,-10.478974 3.785253,-3.782 11.412735,-12.092026 11.412735,-12.092026 0,0 -11.142492,-0.626944 -23.142493,-0.626944 0,12 0.55208,23.197944 0.55208,23.197944 z"
       id="path3236"
       transform="matrix(0.34856224,0,0,0.35092664,222.08714,48.304255)" />
    <path
       id="path3238"
       d="m 187.70998,76.183934 c 0,0 2.73314,-2.128223 3.91504,-3.309114 1.1819,-1.180888 3.25076,-3.585457 3.25076,-3.585457 0,0 -2.9085,0.222439 -6.65537,0.222439 0,3.746875 -0.51043,6.672132 -0.51043,6.672132 z"
       style="fill:url(#linearGradient3280);stroke-width:0.264583"
       sodipodi:nodetypes="csccc" />
    <path
       style="fill:#ffffff;fill-opacity:0.756881;fill-rule:nonzero;stroke:none;stroke-width:0.132292;stroke-linecap:round;stroke-linejoin:round;stroke-miterlimit:4;stroke-dasharray:none;stroke-dashoffset:4;stroke-opacity:1"
       d="M 202.65069,48.611817 V 47.754058 Z"
       id="path3260"
       sodipodi:nodetypes="ccc" />
    <path
       id="path2532"
       d="M 29.920355,32.569314 29.920365,86 l 27.3926,0.186153 c 0.388142,0 0.754938,-0.157106 1.029297,-0.427632 l 19.40286,-19.880598 c 0.27436,-0.271578 0.431641,-0.635526 0.431641,-1.019736 L 78,32.569314 Z"
       style="opacity:0.45;fill:#000000;fill-opacity:1;filter:url(#filter5749)"
       sodipodi:nodetypes="cccccccc"
       transform="matrix(0.39832918,0,0,0.39832918,169.2605,47.31548)" />
    <path
       id="path4712"
       d="m 182.23698,61.44242 v 18.974847 h 9.525 c 0.14208,0 0.27634,-0.05805 0.37677,-0.157998 l 6.87356,-6.639945 c 0.10043,-0.100342 0.158,-0.234812 0.158,-0.376769 l 0.0559,-11.79969 z"
       style="fill:#ffffff;fill-opacity:1;stroke-width:0.264583"
       sodipodi:nodetypes="cccccccc" />
    <path
       sodipodi:nodetypes="cccccccc"
       style="fill:url(#radialGradient3224);stroke-width:0.264583"
       d="m 183.33914,62.425601 v 16.933333 h 8.17795 c 0.12953,0 0.25194,-0.05292 0.3435,-0.144047 l 6.10734,-5.980873 c 0.0916,-0.09148 0.14405,-0.214077 0.14405,-0.343498 V 62.425601 Z"
       id="path59" />
    <path
       transform="matrix(0.34856224,0,0,0.35092664,226.32047,52.537588)"
       id="path4924"
       d="m -99.99277,80.598 c 0,0 7.392424,-6.696974 11.177678,-10.478974 3.785253,-3.782 11.412735,-12.092026 11.412735,-12.092026 0,0 -11.142492,-0.626944 -23.142493,-0.626944 0,12 0.55208,23.197944 0.55208,23.197944 z"
       style="opacity:0.3;fill:#000000;fill-opacity:1;filter:url(#filter5704)"
       sodipodi:nodetypes="csccc" />
    <path
       sodipodi:nodetypes="csccc"
       style="fill:url(#linearGradient3226);stroke-width:0.264583"
       d="m 191.94331,80.417267 c 0,0 2.73314,-2.128223 3.91504,-3.309114 1.18191,-1.180889 3.25077,-3.585457 3.25077,-3.585457 0,0 -2.90851,0.222439 -6.65538,0.222439 0,3.746875 -0.51043,6.672132 -0.51043,6.672132 z"
       id="path101" />
    <path
       sodipodi:nodetypes="ccc"
       id="path2408"
       d="M 191.36559,48.768849 V 47.91109 Z"
       style="fill:#ffffff;fill-opacity:0.756881;fill-rule:nonzero;stroke:none;stroke-width:0.132292;stroke-linecap:round;stroke-linejoin:round;stroke-miterlimit:4;stroke-dasharray:none;stroke-dashoffset:4;stroke-opacity:1" />
  </g>
</svg>
