<?xml version="1.0" encoding="UTF-8" standalone="no"?>
<!-- Generator: Adobe Illustrator 12.0.0, SVG Export Plug-In . SVG Version: 6.00 Build 51448)  -->
<svg
   xmlns:ns="http://ns.adobe.com/SaveForWeb/1.0/"
   xmlns:dc="http://purl.org/dc/elements/1.1/"
   xmlns:cc="http://creativecommons.org/ns#"
   xmlns:rdf="http://www.w3.org/1999/02/22-rdf-syntax-ns#"
   xmlns:svg="http://www.w3.org/2000/svg"
   xmlns="http://www.w3.org/2000/svg"
   xmlns:xlink="http://www.w3.org/1999/xlink"
   xmlns:sodipodi="http://sodipodi.sourceforge.net/DTD/sodipodi-0.dtd"
   xmlns:inkscape="http://www.inkscape.org/namespaces/inkscape"
   version="1.1"
   id="Layer_1"
   width="128"
   height="128"
   viewBox="0 0 128 128"
   overflow="visible"
   enable-background="new 0 0 128 128"
   xml:space="preserve"
   sodipodi:version="0.32"
   inkscape:version="0.46"
   sodipodi:docname="archive-extract.svgz"
   sodipodi:docbase="/Users/david/Desktop/sandbox"
   inkscape:output_extension="org.inkscape.output.svgz.inkscape"
   inkscape:export-filename="/home/pinheiro/pics/oxygen/scalable/actions/small/16x16/archive-extract.png"
   inkscape:export-xdpi="90"
   inkscape:export-ydpi="90"><defs
   id="defs105"><filter
     id="filter3797"
     inkscape:collect="always"><feGaussianBlur
       id="feGaussianBlur3799"
       stdDeviation="0.89030997"
       inkscape:collect="always" /></filter><linearGradient
     inkscape:collect="always"
     xlink:href="#linearGradient3757"
     id="linearGradient2706"
     gradientUnits="userSpaceOnUse"
     gradientTransform="matrix(0,-1.0293895,1.0293895,0,11.93834,80.22496)"
     x1="64.129814"
     y1="56.231236"
     x2="5.1264462"
     y2="56.231236" /><filter
     id="filter3827"
     inkscape:collect="always"><feGaussianBlur
       id="feGaussianBlur3829"
       stdDeviation="1.7999096"
       inkscape:collect="always" /></filter><linearGradient
     id="linearGradient3757"><stop
       id="stop3759"
       offset="0"
       style="stop-color:#000000;stop-opacity:1;" /><stop
       style="stop-color:#000000;stop-opacity:1;"
       offset="0"
       id="stop3761" /><stop
       style="stop-color:#000000;stop-opacity:0.58823532;"
       offset="0.56999999"
       id="stop3763" /><stop
       id="stop3765"
       offset="0.74199998"
       style="stop-color:#3b3b3b;stop-opacity:0.72000003;" /><stop
       id="stop3767"
       offset="1"
       style="stop-color:white;stop-opacity:0;" /></linearGradient><linearGradient
     inkscape:collect="always"
     xlink:href="#linearGradient3757"
     id="linearGradient2704"
     gradientUnits="userSpaceOnUse"
     gradientTransform="matrix(0,-1.0293895,1.0293895,0,11.93834,80.22496)"
     x1="64.129814"
     y1="56.231236"
     x2="5.1264462"
     y2="56.231236" /><linearGradient
     id="linearGradient3716"><stop
       id="stop3718"
       offset="0"
       style="stop-color:#fefefe;stop-opacity:1" /><stop
       style="stop-color:#e9eaea;stop-opacity:1"
       offset="0.23920465"
       id="stop3732" /><stop
       id="stop3720"
       offset="1"
       style="stop-color:#fdfdfd;stop-opacity:1" /></linearGradient><linearGradient
     inkscape:collect="always"
     xlink:href="#linearGradient3716"
     id="linearGradient2686"
     gradientUnits="userSpaceOnUse"
     gradientTransform="matrix(1.1624527,0,0,1.1624527,-9.6545543,-1.2225281)"
     x1="63.998402"
     y1="2.0128229"
     x2="63.998402"
     y2="74.721313" /><inkscape:perspective
     sodipodi:type="inkscape:persp3d"
     inkscape:vp_x="0 : 64 : 1"
     inkscape:vp_y="0 : 1000 : 0"
     inkscape:vp_z="128 : 64 : 1"
     inkscape:persp3d-origin="64 : 42.666667 : 1"
     id="perspective123" /><linearGradient
     y2="95.293"
     x2="87.293"
     y1="103"
     x1="95"
     gradientUnits="userSpaceOnUse"
     id="linearGradient4175">
	<stop
   id="stop4177"
   style="stop-color:#000000;stop-opacity:1"
   offset="0" />
	<stop
   id="stop4179"
   style="stop-color:#393B38"
   offset="1" />
</linearGradient><linearGradient
     id="linearGradient3207"><stop
       style="stop-color:#ffffff;stop-opacity:1;"
       offset="0"
       id="stop3209" /><stop
       style="stop-color:#252525;stop-opacity:0;"
       offset="1"
       id="stop3211" /></linearGradient><linearGradient
     inkscape:collect="always"
     xlink:href="#linearGradient4175"
     id="linearGradient2295"
     gradientUnits="userSpaceOnUse"
     x1="85.219681"
     y1="93.219681"
     x2="61.336319"
     y2="69.336319" /><linearGradient
     inkscape:collect="always"
     xlink:href="#XMLID_12_"
     id="linearGradient2297"
     gradientUnits="userSpaceOnUse"
     x1="96"
     y1="104"
     x2="88.0002"
     y2="96.0002" /><radialGradient
     inkscape:collect="always"
     xlink:href="#XMLID_8_"
     id="radialGradient2272"
     gradientUnits="userSpaceOnUse"
     gradientTransform="matrix(0.9787234,0,0,0.9818182,1.3617045,1.1636364)"
     cx="102"
     cy="112.3047"
     r="139.55859" /><radialGradient
     inkscape:collect="always"
     xlink:href="#XMLID_7_"
     id="radialGradient2275"
     gradientUnits="userSpaceOnUse"
     gradientTransform="translate(2.4e-6,0)"
     cx="102"
     cy="112.3047"
     r="139.5585" /><filter
     inkscape:collect="always"
     id="filter3241"><feGaussianBlur
       inkscape:collect="always"
       stdDeviation="1.0394514"
       id="feGaussianBlur3243" /></filter><filter
     inkscape:collect="always"
     id="filter3772"><feGaussianBlur
       inkscape:collect="always"
       stdDeviation="0.50063244"
       id="feGaussianBlur3774" /></filter><filter
     inkscape:collect="always"
     id="filter4171"><feGaussianBlur
       inkscape:collect="always"
       stdDeviation="0.4901192"
       id="feGaussianBlur4173" /></filter><filter
     inkscape:collect="always"
     id="filter4209"><feGaussianBlur
       inkscape:collect="always"
       stdDeviation="0.90565481"
       id="feGaussianBlur4211" /></filter><filter
     inkscape:collect="always"
     id="filter4293"
     x="-0.12357724"
     width="1.2471545"
     y="-0.12357724"
     height="1.2471545"><feGaussianBlur
       inkscape:collect="always"
       stdDeviation="1.7720846"
       id="feGaussianBlur4295" /></filter><linearGradient
     id="linearGradient3202"><stop
       id="stop3204"
       offset="0"
       style="stop-color:#cbff9c;stop-opacity:1;" /><stop
       id="stop3206"
       offset="1"
       style="stop-color:#65c171;stop-opacity:0" /></linearGradient><radialGradient
     id="XMLID_4_"
     cx="48"
     cy="-0.2148"
     r="55.147999"
     gradientTransform="matrix(0.9792,0,0,0.9725,133.0002,20.8762)"
     gradientUnits="userSpaceOnUse"><stop
       offset="0"
       style="stop-color:#72D13D"
       id="stop3082" /><stop
       offset="0.3553"
       style="stop-color:#35AC1C"
       id="stop3084" /><stop
       offset="0.6194"
       style="stop-color:#0F9508"
       id="stop3086" /><stop
       offset="0.7574"
       style="stop-color:#008C00"
       id="stop3088" /><stop
       offset="1"
       style="stop-color:#007A00"
       id="stop3090" /></radialGradient><linearGradient
     y2="0"
     x2="28"
     y1="57.5"
     x1="28"
     gradientUnits="userSpaceOnUse"
     id="linearGradient5412"><stop
       id="stop5414"
       style="stop-color:#fff14d;stop-opacity:1;"
       offset="0" /><stop
       id="stop5416"
       style="stop-color:#f8ffa0;stop-opacity:0;"
       offset="1" /></linearGradient></defs><sodipodi:namedview
   inkscape:window-height="687"
   inkscape:window-width="1022"
   inkscape:pageshadow="2"
   inkscape:pageopacity="0.0"
   guidetolerance="10.0"
   gridtolerance="10.0"
   objecttolerance="10.0"
   borderopacity="1.0"
   bordercolor="#666666"
   pagecolor="#ffffff"
   id="base"
   inkscape:zoom="2.5522135"
   inkscape:cx="-38.904016"
   inkscape:cy="68.811816"
   inkscape:window-x="404"
   inkscape:window-y="248"
   inkscape:current-layer="Layer_1"
   showgrid="true"
   showguides="true"
   inkscape:guide-bbox="true"><inkscape:grid
     id="GridFromPre046Settings"
     type="xygrid"
     originx="0px"
     originy="0px"
     spacingx="4px"
     spacingy="4px"
     color="#0000ff"
     empcolor="#0000ff"
     opacity="0.2"
     empopacity="0.4"
     empspacing="2"
     enabled="true"
     visible="true" /></sodipodi:namedview>
<metadata
   id="metadata3">
	<ns:sfw>
		<ns:slices>
			<ns:slice
   y="0"
   x="0"
   height="128"
   width="128"
   sliceID="1316743234" />
		</ns:slices>
		<ns:sliceSourceBounds
   y="0"
   x="0"
   height="128"
   width="128"
   bottomLeftOrigin="true" />
		<ns:optimizationSettings>
			<ns:targetSettings
   targetSettingsID="0"
   fileFormat="PNG24Format">
				<ns:PNG24Format
   transparency="true"
   filtered="false"
   matteColor="#FFFFFF"
   noMatteColor="false"
   interlaced="false">
					</ns:PNG24Format>
			</ns:targetSettings>
			<ns:targetSettings
   targetSettingsID="1696735251"
   fileFormat="PNG24Format">
				<ns:PNG24Format
   transparency="true"
   filtered="false"
   matteColor="#FFFFFF"
   noMatteColor="false"
   interlaced="false">
					</ns:PNG24Format>
			</ns:targetSettings>
		</ns:optimizationSettings>
	</ns:sfw>
<rdf:RDF><cc:Work
     rdf:about=""><dc:format>image/svg+xml</dc:format><dc:type
       rdf:resource="http://purl.org/dc/dcmitype/StillImage" /></cc:Work></rdf:RDF></metadata>

<radialGradient
   id="XMLID_7_"
   cx="102"
   cy="112.3047"
   r="139.5585"
   gradientUnits="userSpaceOnUse">
	<stop
   offset="0"
   style="stop-color:#00537D"
   id="stop16" />
	<stop
   offset="0.0151"
   style="stop-color:#186389"
   id="stop18" />
	<stop
   offset="0.0558"
   style="stop-color:#558CA8"
   id="stop20" />
	<stop
   offset="0.0964"
   style="stop-color:#89AFC3"
   id="stop22" />
	<stop
   offset="0.1357"
   style="stop-color:#B3CCD8"
   id="stop24" />
	<stop
   offset="0.1737"
   style="stop-color:#D4E2E9"
   id="stop26" />
	<stop
   offset="0.2099"
   style="stop-color:#ECF2F5"
   id="stop28" />
	<stop
   offset="0.2435"
   style="stop-color:#FAFCFD"
   id="stop30" />
	<stop
   offset="0.2722"
   style="stop-color:#FFFFFF"
   id="stop32" />
</radialGradient>

<radialGradient
   id="XMLID_8_"
   cx="102"
   cy="112.3047"
   r="139.55859"
   gradientUnits="userSpaceOnUse">
	<stop
   offset="0"
   style="stop-color:#535557"
   id="stop37" />
	
	<stop
   offset="0.11366145"
   style="stop-color:#898A8C"
   id="stop41" />
	
	
	<stop
   offset="0.20296688"
   style="stop-color:#ECECEC"
   id="stop47" />
	<stop
   offset="0.2363"
   style="stop-color:#FAFAFA"
   id="stop49" />
	<stop
   offset="0.2722"
   style="stop-color:#FFFFFF"
   id="stop51" />
	<stop
   offset="0.5313"
   style="stop-color:#FAFAFA"
   id="stop53" />
	<stop
   offset="0.8449"
   style="stop-color:#EBECEC"
   id="stop55" />
	<stop
   offset="1"
   style="stop-color:#E1E2E3"
   id="stop57" />
</radialGradient>

<linearGradient
   id="XMLID_9_"
   gradientUnits="userSpaceOnUse"
   x1="94.3438"
   y1="102.3447"
   x2="86.5356"
   y2="94.5366">
	<stop
   offset="0"
   style="stop-color:#FFFFFF"
   id="stop62" />
	<stop
   offset="1"
   style="stop-color:#555753"
   id="stop64" />
</linearGradient>

<linearGradient
   id="XMLID_10_"
   gradientUnits="userSpaceOnUse"
   x1="95"
   y1="103"
   x2="86.5865"
   y2="94.5865">
	<stop
   offset="0"
   style="stop-color:#FFFFFF"
   id="stop69" />
	<stop
   offset="1"
   style="stop-color:#555753"
   id="stop71" />
</linearGradient>

<linearGradient
   id="XMLID_11_"
   gradientUnits="userSpaceOnUse"
   x1="95"
   y1="103"
   x2="87.293"
   y2="95.293">
	<stop
   offset="0"
   style="stop-color:#FFFFFF"
   id="stop76" />
	<stop
   offset="1"
   style="stop-color:#393B38"
   id="stop78" />
</linearGradient>

<linearGradient
   id="XMLID_12_"
   gradientUnits="userSpaceOnUse"
   x1="96"
   y1="104"
   x2="88.0002"
   y2="96.0002">
	<stop
   offset="0"
   style="stop-color:#888A85"
   id="stop83" />
	<stop
   offset="0.0072"
   style="stop-color:#8C8E89"
   id="stop85" />
	<stop
   offset="0.0673"
   style="stop-color:#ABACA9"
   id="stop87" />
	<stop
   offset="0.1347"
   style="stop-color:#C5C6C4"
   id="stop89" />
	<stop
   offset="0.2115"
   style="stop-color:#DBDBDA"
   id="stop91" />
	<stop
   offset="0.3012"
   style="stop-color:#EBEBEB"
   id="stop93" />
	<stop
   offset="0.4122"
   style="stop-color:#F7F7F6"
   id="stop95" />
	<stop
   offset="0.5679"
   style="stop-color:#FDFDFD"
   id="stop97" />
	<stop
   offset="1"
   style="stop-color:#FFFFFF"
   id="stop99" />
</linearGradient>
<path
   sodipodi:nodetypes="cccccccc"
   transform="matrix(1.0416667,0,0,1.0357143,-9.9583333,-3.3215342)"
   style="opacity:0.71506849;fill:#000000;fill-opacity:1;filter:url(#filter3241)"
   d="M 23,9 L 23.040816,121 L 84.172,121 C 84.702,121 85.211,120.789 85.586,120.414 L 118.414,87.586 C 118.789,87.211 119,86.702 119,86.172 L 119,9 L 23,9 z"
   id="path4081" /><path
   sodipodi:nodetypes="cccccccc"
   transform="matrix(1.0416667,0,0,1.0357143,-9.9583333,-3.3215342)"
   style="opacity:0.89589041000000003;fill:#000000;fill-opacity:1;filter:url(#filter3772)"
   d="M 24.919999,10.931136 L 24.919999,119.06907 L 83.596,119.06897 C 84.126,119.06897 84.635,118.85797 85.01,118.48297 L 116.494,86.717034 C 116.869,86.342034 117.08,85.833034 117.08,85.303034 L 117.08,10.931136 L 24.919999,10.931136 z"
   id="path3726" /><path
   id="path6594"
   d="M 23,9.9655172 L 23.040816,121 L 84.172,121 C 84.702,121 85.211,120.789 85.586,120.414 C 98.882921,112.20339 109.72686,101.14616 118.414,87.586 C 118.789,87.211 119,86.702 119,86.172 L 119,9.9655172 L 23,9.9655172 z"
   style="opacity:0.83561644;fill:#000000;fill-opacity:1;filter:url(#filter3241)"
   transform="matrix(1.0416667,0,0,1.0357143,-9.9583333,-3.3215342)"
   sodipodi:nodetypes="cccccccc" /><path
   style="fill:url(#radialGradient2275)"
   d="M 16.000002,8 L 16.000002,120 L 77.172002,120 C 77.702002,120 78.211002,119.789 78.586002,119.414 L 111.414,86.586 C 111.789,86.211 112,85.702 112,85.172 L 112,8 L 16.000002,8 z "
   id="path34"
   sodipodi:nodetypes="cccccccc" /><path
   style="fill:url(#radialGradient2272);fill-opacity:1"
   d="M 24.678725,16 C 24.139449,16 23.700002,16.440836 23.700002,16.981818 L 24.000002,111.01818 C 24.000002,111.56015 24.439449,112 24.978725,112 L 76.891747,112 C 77.149151,112 77.401662,111.89593 77.583704,111.71233 L 103.71323,85.4812 C 103.89626,85.2976 104,85.045273 104,84.787055 L 104,16.981818 C 104,16.440836 103.56153,16 103.02128,16 L 24.678725,16 z"
   id="path59"
   sodipodi:nodetypes="ccccccccccc" /><g
   id="g1973"
   transform="translate(2.4e-6,0)"><path
     style="opacity:0.90684931999999996;fill:#000000;filter:url(#filter4293);fill-opacity:1"
     id="path66"
     d="M 111.414,86.586 C 111.664,86.336 85.035,85 80,85 C 78.346,85 77,86.346 77,88 C 77,93.035 78.336,119.664 78.586,119.414 L 111.414,86.586 z"
     sodipodi:nodetypes="csscc" /><path
     style="opacity:0.2;fill:#000000;filter:url(#filter4209);fill-opacity:1"
     id="path73"
     d="M 111.414,86.586 C 111.789,86.211 89.444,86 80,86 C 78.897,86 78,86.897 78,88 C 78,97.444 78.211,119.789 78.586,119.414 L 111.414,86.586 z"
     sodipodi:nodetypes="csscc" /><path
     style="opacity:0.10000000000000001;fill:url(#linearGradient2295);filter:url(#filter4171)"
     id="path80"
     d="M 111.414,86.586 C 111.653,86.347 89.807,87 80,87 C 79.447,87 79,87.447 79,88 C 79,97.807 78.347,119.653 78.586,119.414 L 111.414,86.586 z"
     sodipodi:nodetypes="csscc" /><path
     style="fill:url(#linearGradient2297)"
     id="path101"
     d="M 78.586,119.414 C 78.586,119.414 90.5,109.5 96,104 C 101.5,98.5 111.414,86.586 111.414,86.586 C 111.414,86.586 90.25,88 80,88 C 80,98.25 78.586,119.414 78.586,119.414 z"
     sodipodi:nodetypes="csccc" /></g>

<path
   style="fill:none;fill-rule:evenodd;stroke:#000000;stroke-width:1px;stroke-linecap:butt;stroke-linejoin:miter;stroke-opacity:1"
   d="M 100,32 L 100,32 z"
   id="path3341" /><path
   sodipodi:type="inkscape:offset"
   inkscape:radius="6.3651431e-05"
   inkscape:original="M 62.6875 3.21875 C 62.209361 3.3251895 61.823747 3.7277733 61.46875 4.0625 L 61.375 3.96875 L 26.40625 36.40625 C 25.944476 36.842055 25.46876 37.372515 25.46875 38.53125 C 25.46875 39.690023 25.94457 40.220514 26.40625 40.65625 L 34.5625 48.84375 C 34.572825 48.85426 34.583242 48.864675 34.59375 48.875 C 35.688109 49.933529 37.244424 50.003065 38.4375 49.09375 C 38.448008 49.083427 38.458425 49.073008 38.46875 49.0625 L 54.3125 36.40625 L 55.3125 74.59375 C 55.319633 76.084319 55.500393 77.522997 57.21875 77.53125 L 68.5625 77.53125 C 70.279853 77.523029 71.491782 76.311095 71.5 74.59375 L 72.5 36.40625 L 88.34375 49.0625 C 88.354075 49.07301 88.364492 49.083425 88.375 49.09375 C 89.446736 49.910588 91.218935 49.811821 92.1875 48.875 C 92.198008 48.864677 92.208425 48.854258 92.21875 48.84375 L 100.46875 40.625 C 101.15606 39.976349 101.31251 39.23812 101.3125 38.53125 C 101.3125 37.824378 101.09357 37.054917 100.40625 36.40625 L 65.40625 3.96875 C 64.973706 3.5572792 64.408622 3.3135174 63.8125 3.28125 C 63.537956 3.2172038 63.21617 3.1010615 62.6875 3.21875 z "
   style="fill:url(#linearGradient2706);fill-opacity:1;stroke:none;stroke-width:8;stroke-linejoin:round;stroke-miterlimit:4;stroke-opacity:1;filter:url(#filter3797)"
   id="path3769"
   d="M 62.6875,3.21875 C 62.209361,3.3251895 61.823747,3.7277733 61.46875,4.0625 L 61.375,3.96875 L 26.40625,36.40625 C 25.944476,36.842055 25.46876,37.372515 25.46875,38.53125 C 25.46875,39.690023 25.94457,40.220514 26.40625,40.65625 L 34.5625,48.84375 C 34.572825,48.85426 34.583242,48.864675 34.59375,48.875 C 35.688109,49.933529 37.244424,50.003065 38.4375,49.09375 C 38.448008,49.083427 38.458425,49.073008 38.46875,49.0625 L 54.3125,36.40625 L 55.3125,74.59375 C 55.319633,76.084319 55.500393,77.522997 57.21875,77.53125 L 68.5625,77.53125 C 70.279853,77.523029 71.491782,76.311095 71.5,74.59375 L 72.5,36.40625 L 88.34375,49.0625 C 88.354075,49.07301 88.364492,49.083425 88.375,49.09375 C 89.446736,49.910588 91.218935,49.811821 92.1875,48.875 C 92.198008,48.864677 92.208425,48.854258 92.21875,48.84375 L 100.46875,40.625 C 101.15606,39.976349 101.31251,39.23812 101.3125,38.53125 C 101.3125,37.824378 101.09357,37.054917 100.40625,36.40625 L 65.40625,3.96875 C 64.973706,3.5572792 64.408622,3.3135174 63.8125,3.28125 C 63.537956,3.2172038 63.21617,3.1010615 62.6875,3.21875 z"
   transform="matrix(1.1624527,0,0,1.1624527,-9.6545543,-2.9715975)" /><path
   transform="matrix(1.1624527,0,0,1.1624527,-9.6545543,-2.9715975)"
   d="M 62.5625,2.65625 C 62.016555,2.777784 61.677107,3.1158571 61.375,3.40625 C 61.369559,3.4114798 61.349139,3.4010459 61.34375,3.40625 C 61.214576,3.4171314 61.093135,3.472332 61,3.5625 L 26.03125,36 C 25.544043,36.459808 24.906261,37.218707 24.90625,38.53125 C 24.90625,39.843861 25.54416,40.602782 26.03125,41.0625 L 34.15625,49.25 C 34.168931,49.262908 34.174671,49.268644 34.1875,49.28125 C 35.464392,50.516335 37.3898,50.591758 38.78125,49.53125 C 38.792072,49.521247 38.802497,49.510822 38.8125,49.5 C 38.822915,49.50029 38.833335,49.50029 38.84375,49.5 L 38.875,49.46875 L 53.78125,37.53125 L 54.75,74.59375 C 54.753671,75.360885 54.791524,76.175745 55.125,76.875 C 55.458476,77.574255 56.202838,78.088871 57.21875,78.09375 L 68.5625,78.09375 C 70.542964,78.084269 72.053023,76.574207 72.0625,74.59375 L 73.03125,37.53125 L 87.9375,49.46875 C 87.950181,49.481658 87.955921,49.487394 87.96875,49.5 L 88,49.5 C 88.010003,49.510822 88.020428,49.521247 88.03125,49.53125 C 89.357896,50.542371 91.393147,50.442504 92.59375,49.28125 C 92.606658,49.26857 92.612394,49.26283 92.625,49.25 L 100.875,41.03125 C 101.68614,40.265735 101.87501,39.321045 101.875,38.53125 C 101.875,37.708344 101.58658,36.76004 100.78125,36 L 65.78125,3.5625 C 65.275784,3.0816601 64.630199,2.8094877 63.9375,2.75 L 63.9375,2.71875 C 63.922342,2.7152139 63.861432,2.7231306 63.84375,2.71875 C 63.601562,2.6587493 63.170534,2.5208941 62.5625,2.65625 z"
   id="path3801"
   style="opacity:0.38118813;fill:url(#linearGradient2704);fill-opacity:1;stroke:none;stroke-width:8;stroke-linejoin:round;stroke-miterlimit:4;stroke-opacity:1;filter:url(#filter3827)"
   inkscape:original="M 62.6875 3.21875 C 62.209361 3.3251895 61.823747 3.7277733 61.46875 4.0625 L 61.375 3.96875 L 26.40625 36.40625 C 25.944476 36.842055 25.46876 37.372515 25.46875 38.53125 C 25.46875 39.690023 25.94457 40.220514 26.40625 40.65625 L 34.5625 48.84375 C 34.572825 48.85426 34.583242 48.864675 34.59375 48.875 C 35.688109 49.933529 37.244424 50.003065 38.4375 49.09375 C 38.448008 49.083427 38.458425 49.073008 38.46875 49.0625 L 54.3125 36.40625 L 55.3125 74.59375 C 55.319633 76.084319 55.500393 77.522997 57.21875 77.53125 L 68.5625 77.53125 C 70.279853 77.523029 71.491782 76.311095 71.5 74.59375 L 72.5 36.40625 L 88.34375 49.0625 C 88.354075 49.07301 88.364492 49.083425 88.375 49.09375 C 89.446736 49.910588 91.218935 49.811821 92.1875 48.875 C 92.198008 48.864677 92.208425 48.854258 92.21875 48.84375 L 100.46875 40.625 C 101.15606 39.976349 101.31251 39.23812 101.3125 38.53125 C 101.3125 37.824378 101.09357 37.054917 100.40625 36.40625 L 65.40625 3.96875 C 64.973706 3.5572792 64.408622 3.3135174 63.8125 3.28125 C 63.537956 3.2172038 63.21617 3.1010615 62.6875 3.21875 z "
   inkscape:radius="0.56196642"
   sodipodi:type="inkscape:offset" /><path
   style="fill:url(#linearGradient2686);fill-opacity:1;stroke:none;stroke-width:8;stroke-linejoin:round;stroke-miterlimit:4;stroke-opacity:1"
   d="M 64.379843,3.1761165 L 105.06481,41.467847 C 105.1626,41.560129 105.21801,41.68864 105.21801,41.823092 C 105.21801,41.957546 105.1626,42.086055 105.06481,42.178339 L 95.491877,51.75127 C 95.318337,51.919127 95.048195,51.935018 94.856173,51.788664 L 71.709122,33.278501 L 71.709122,84.919987 C 71.707841,85.187931 71.490943,85.404828 71.222996,85.40611 L 56.863596,85.40611 C 56.595651,85.404828 56.378755,85.187931 56.377473,84.919987 L 56.377473,33.278501 L 33.23042,51.788664 C 33.038398,51.935018 32.768258,51.919127 32.594718,51.75127 L 23.021786,42.178339 C 22.924004,42.086055 22.868581,41.957546 22.868581,41.823092 C 22.868581,41.68864 22.924004,41.560129 23.021786,41.467847 L 63.706749,3.1761165 C 63.901528,2.9011618 64.175808,3.1761165 64.379843,3.1761165 z"
   id="path2842"
   sodipodi:nodetypes="ccsccccccccccccsccc" /><path
   style="fill:#ffffff;fill-opacity:1;stroke:none;stroke-width:8;stroke-linejoin:round;stroke-miterlimit:4;stroke-opacity:1"
   d="M 63.866261,3.0607838 C 63.809968,3.0736723 63.73561,3.1265533 63.686915,3.1952918 L 23.020608,41.48529 C 22.922825,41.577573 22.8861,41.709527 22.886097,41.84398 C 22.886097,41.978433 22.922826,42.065546 23.020608,42.157833 L 27.515152,46.669215 L 63.686915,11.995721 C 63.881694,11.720765 64.15542,11.995721 64.359459,11.995721 L 101.0775,46.13887 L 105.07061,42.157833 C 105.16838,42.065547 105.2051,41.978433 105.20511,41.84398 C 105.20511,41.709527 105.16838,41.577571 105.07061,41.48529 L 64.359459,3.1952918 C 64.206429,3.1952918 64.035139,3.0221183 63.866261,3.0607838 z"
   id="path2861"
   sodipodi:nodetypes="cccsccccccsccc" /></svg>