<?xml version="1.0" encoding="UTF-8" standalone="no"?>
<!-- Created with Inkscape (http://www.inkscape.org/) -->
<svg
   xmlns:dc="http://purl.org/dc/elements/1.1/"
   xmlns:cc="http://creativecommons.org/ns#"
   xmlns:rdf="http://www.w3.org/1999/02/22-rdf-syntax-ns#"
   xmlns:svg="http://www.w3.org/2000/svg"
   xmlns="http://www.w3.org/2000/svg"
   xmlns:xlink="http://www.w3.org/1999/xlink"
   xmlns:sodipodi="http://sodipodi.sourceforge.net/DTD/sodipodi-0.dtd"
   xmlns:inkscape="http://www.inkscape.org/namespaces/inkscape"
   version="1.0"
   width="128"
   height="128"
   viewBox="0 0 88.001 80"
   id="Livello_1"
   xml:space="preserve"
   style="overflow:visible"
   sodipodi:version="0.32"
   inkscape:version="0.46"
   sodipodi:docname="audio-volume-high.svgz"
   inkscape:output_extension="org.inkscape.output.svgz.inkscape"
   inkscape:export-filename="/home/pinheiro/pics/oxygen/scalable/status/audio-volume-high.png"
   inkscape:export-xdpi="45"
   inkscape:export-ydpi="45"><metadata
   id="metadata124"><rdf:RDF><cc:Work
       rdf:about=""><dc:format>image/svg+xml</dc:format><dc:type
         rdf:resource="http://purl.org/dc/dcmitype/StillImage" /></cc:Work></rdf:RDF></metadata><sodipodi:namedview
   inkscape:window-height="677"
   inkscape:window-width="1015"
   inkscape:pageshadow="2"
   inkscape:pageopacity="0.0"
   guidetolerance="10.0"
   gridtolerance="10.0"
   objecttolerance="10.0"
   borderopacity="1.0"
   bordercolor="#666666"
   pagecolor="#ffffff"
   id="base"
   showgrid="true"
   inkscape:zoom="5.1044271"
   inkscape:cx="100.14304"
   inkscape:cy="70.970409"
   inkscape:window-x="777"
   inkscape:window-y="62"
   inkscape:current-layer="Livello_1"><inkscape:grid
     type="xygrid"
     id="grid2514"
     visible="true"
     enabled="true"
     spacingx="8px"
     spacingy="8px" /></sodipodi:namedview><defs
   id="defs3353"><inkscape:perspective
   sodipodi:type="inkscape:persp3d"
   inkscape:vp_x="0 : 64 : 1"
   inkscape:vp_y="0 : 1000 : 0"
   inkscape:vp_z="128 : 64 : 1"
   inkscape:persp3d-origin="64 : 42.666667 : 1"
   id="perspective126" /><linearGradient
   id="linearGradient3425"><stop
     id="stop3427"
     style="stop-color:#343434;stop-opacity:1"
     offset="0" /><stop
     id="stop3429"
     style="stop-color:#555555;stop-opacity:1"
     offset="1" /></linearGradient><linearGradient
   id="linearGradient3417"><stop
     id="stop3419"
     style="stop-color:#353535;stop-opacity:1"
     offset="0" /><stop
     id="stop3421"
     style="stop-color:#555555;stop-opacity:1"
     offset="1" /></linearGradient><linearGradient
   id="linearGradient3409"><stop
     id="stop3411"
     style="stop-color:#fdfdfd;stop-opacity:1"
     offset="0" /><stop
     id="stop3413"
     style="stop-color:#fdfdfd;stop-opacity:0"
     offset="1" /></linearGradient><linearGradient
   id="linearGradient3342"><stop
     id="stop3345"
     style="stop-color:#ffffff;stop-opacity:1"
     offset="0" /><stop
     id="stop3347"
     style="stop-color:#ffffff;stop-opacity:0"
     offset="1" /></linearGradient><linearGradient
   id="linearGradient3315"><stop
     id="stop3318"
     style="stop-color:#383838;stop-opacity:1"
     offset="0" /><stop
     id="stop3320"
     style="stop-color:#383838;stop-opacity:0"
     offset="1" /></linearGradient><linearGradient
   id="linearGradient3302"><stop
     id="stop3305"
     style="stop-color:#555555;stop-opacity:1"
     offset="0" /><stop
     id="stop3307"
     style="stop-color:#bc7d00;stop-opacity:1"
     offset="1" /></linearGradient><linearGradient
   x1="19"
   y1="27.142599"
   x2="19"
   y2="49.465099"
   id="linearGradient4161"
   xlink:href="#XMLID_20_"
   gradientUnits="userSpaceOnUse" /><linearGradient
   x1="42"
   y1="4"
   x2="42"
   y2="76.000504"
   id="linearGradient4163"
   xlink:href="#XMLID_20_"
   gradientUnits="userSpaceOnUse"
   gradientTransform="matrix(2.0000029,0,0,1.0769231,-49.500698,-3.0769234)" /><linearGradient
   x1="55.972698"
   y1="40"
   x2="64.000999"
   y2="40"
   id="XMLID_24_"
   gradientUnits="userSpaceOnUse">
		<stop
   id="stop3284"
   style="stop-color:#bff500;stop-opacity:1"
   offset="0" />
		<stop
   id="stop3286"
   style="stop-color:#00bf00;stop-opacity:1"
   offset="1" />
	</linearGradient><linearGradient
   x1="63.244099"
   y1="40"
   x2="76.000999"
   y2="40"
   id="XMLID_25_"
   gradientUnits="userSpaceOnUse">
		<stop
   id="stop3293"
   style="stop-color:#bff500;stop-opacity:1"
   offset="0" />
		<stop
   id="stop3295"
   style="stop-color:#00bf00;stop-opacity:1"
   offset="1" />
	</linearGradient><linearGradient
   x1="67.555702"
   y1="40"
   x2="88.000999"
   y2="40"
   id="XMLID_26_"
   gradientUnits="userSpaceOnUse"
   gradientTransform="translate(-1e-3,0)">
		<stop
   id="stop3302"
   style="stop-color:#bff500;stop-opacity:1"
   offset="0" />
		<stop
   id="stop3304"
   style="stop-color:#00bf00;stop-opacity:1"
   offset="1" />
	</linearGradient><linearGradient
   x1="55.972698"
   y1="40"
   x2="64.000999"
   y2="40"
   id="linearGradient4181"
   xlink:href="#XMLID_24_"
   gradientUnits="userSpaceOnUse"
   gradientTransform="matrix(1.0114764,0,0,1.0114764,-1.5756918,-0.4590588)" /><linearGradient
   x1="63.244099"
   y1="40"
   x2="76.000999"
   y2="40"
   id="linearGradient4183"
   xlink:href="#XMLID_24_"
   gradientUnits="userSpaceOnUse" />
	<linearGradient
   x1="2"
   y1="28"
   x2="2"
   y2="52.0005"
   id="XMLID_16_"
   gradientUnits="userSpaceOnUse"
   gradientTransform="scale(2,1)">
		<stop
   id="stop3218"
   style="stop-color:#ad7300;stop-opacity:1"
   offset="0" />
		<stop
   id="stop3220"
   style="stop-color:#888888;stop-opacity:1"
   offset="0.5" />
		<stop
   id="stop3222"
   style="stop-color:#555555;stop-opacity:1"
   offset="1" />
	</linearGradient>
	
<linearGradient
   x1="2"
   y1="28"
   x2="2"
   y2="52.0005"
   id="linearGradient2504"
   xlink:href="#XMLID_16_"
   gradientUnits="userSpaceOnUse"
   gradientTransform="matrix(1,0,0,1.2499999,2.7500313,-9.9999976)" /><linearGradient
   x1="2"
   y1="28"
   x2="2"
   y2="52.0005"
   id="linearGradient2507"
   xlink:href="#XMLID_16_"
   gradientUnits="userSpaceOnUse"
   gradientTransform="matrix(1,0,0,1.3854165,2.7500313,-15.416662)" /><linearGradient
   x1="2"
   y1="28"
   x2="2"
   y2="52.0005"
   id="linearGradient2510"
   xlink:href="#XMLID_16_"
   gradientUnits="userSpaceOnUse"
   gradientTransform="matrix(0.8662477,0,0,0.9999998,2.9339428,2.3076228e-6)" /><linearGradient
   x1="2"
   y1="9.749136"
   x2="2"
   y2="52.0005"
   id="linearGradient2513"
   xlink:href="#XMLID_16_"
   gradientUnits="userSpaceOnUse"
   gradientTransform="scale(2,1)" /><linearGradient
   x1="10.245214"
   y1="53.750156"
   x2="11.000124"
   y2="24.504112"
   id="linearGradient3309"
   xlink:href="#linearGradient3302"
   gradientUnits="userSpaceOnUse" /><linearGradient
   x1="10"
   y1="28"
   x2="10"
   y2="52.0005"
   id="linearGradient3311"
   xlink:href="#XMLID_30_"
   gradientUnits="userSpaceOnUse" /><linearGradient
   x1="5.5000625"
   y1="40"
   x2="1.5966369"
   y2="40"
   id="linearGradient3322"
   xlink:href="#linearGradient3315"
   gradientUnits="userSpaceOnUse" /><linearGradient
   x1="1.0086651"
   y1="31.246702"
   x2="5.5000625"
   y2="39.026031"
   id="linearGradient3349"
   xlink:href="#linearGradient3342"
   gradientUnits="userSpaceOnUse" /><filter
   height="1.1031489"
   y="-0.051574428"
   width="1.3895328"
   x="-0.19476642"
   id="filter3399"><feGaussianBlur
     id="feGaussianBlur3401"
     stdDeviation="0.40121801"
     inkscape:collect="always" /></filter><linearGradient
   x1="8.2500925"
   y1="27.471912"
   x2="8.2500925"
   y2="44.415783"
   id="linearGradient3415"
   xlink:href="#linearGradient3409"
   gradientUnits="userSpaceOnUse" /><linearGradient
   x1="38.500439"
   y1="2.874578"
   x2="44.0005"
   y2="2.874578"
   id="linearGradient3423"
   xlink:href="#linearGradient3417"
   gradientUnits="userSpaceOnUse"
   gradientTransform="translate(0,-2.7500312)" /><linearGradient
   x1="38.500439"
   y1="77.125389"
   x2="44.0005"
   y2="77.125389"
   id="linearGradient3431"
   xlink:href="#linearGradient3425"
   gradientUnits="userSpaceOnUse"
   gradientTransform="translate(0,2.7500312)" /><linearGradient
   inkscape:collect="always"
   xlink:href="#XMLID_24_"
   id="linearGradient2503"
   gradientUnits="userSpaceOnUse"
   gradientTransform="matrix(1.0114764,0,0,1.0114764,-1.5756918,-0.4590588)"
   x1="55.972698"
   y1="40"
   x2="64.000999"
   y2="40" /><linearGradient
   inkscape:collect="always"
   xlink:href="#XMLID_24_"
   id="linearGradient2508"
   gradientUnits="userSpaceOnUse"
   x1="63.244099"
   y1="40"
   x2="76.000999"
   y2="40" /><linearGradient
   inkscape:collect="always"
   xlink:href="#XMLID_26_"
   id="linearGradient2512"
   gradientUnits="userSpaceOnUse"
   gradientTransform="translate(-1e-3,0)"
   x1="67.555702"
   y1="40"
   x2="88.000999"
   y2="40" /></defs>
<rect
   width="8.2500935"
   height="22.000252"
   rx="2.7432909"
   ry="2.7432909"
   x="0"
   y="28.999874"
   id="rect3224"
   style="fill:url(#linearGradient2513)" /><rect
   width="8.2500925"
   height="22.000252"
   x="0"
   y="28.999874"
   id="rect3313"
   style="fill:url(#linearGradient3322);fill-opacity:1" /><rect
   width="8.2500954"
   height="2.7500336"
   x="8.2500935"
   y="56.500187"
   id="rect3213"
   style="fill:#555555" />

<linearGradient
   x1="4"
   y1="26"
   x2="16"
   y2="26"
   id="XMLID_17_"
   gradientUnits="userSpaceOnUse"
   gradientTransform="translate(0,-2.7500312)">
	<stop
   id="stop3227"
   style="stop-color:#ad7300;stop-opacity:1"
   offset="0" />
	<stop
   id="stop3229"
   style="stop-color:#cf8900;stop-opacity:1"
   offset="1" />
</linearGradient>
<rect
   width="8.2500954"
   height="2.7500355"
   x="8.2500935"
   y="20.749783"
   id="rect3231"
   style="fill:url(#XMLID_17_)" />
<linearGradient
   x1="28"
   y1="4"
   x2="28"
   y2="76.000504"
   id="XMLID_18_"
   gradientUnits="userSpaceOnUse">
	<stop
   id="stop3234"
   style="stop-color:#ffffff;stop-opacity:1"
   offset="0.3136" />
	<stop
   id="stop3236"
   style="stop-color:#888888;stop-opacity:1"
   offset="0.5" />
	<stop
   id="stop3238"
   style="stop-color:#dddddd;stop-opacity:1"
   offset="0.89999998" />
</linearGradient>
<path
   d="M 16.500188,56.500188 L 38.500438,78.500437 L 40,4 L 16.500188,26.249844 L 16.500188,56.500188 z"
   id="polygon3240"
   style="fill:url(#XMLID_18_)"
   sodipodi:nodetypes="ccccc" />
<linearGradient
   x1="31.9995"
   y1="40"
   x2="41.467957"
   y2="40"
   id="XMLID_19_"
   gradientUnits="userSpaceOnUse">
	<stop
   id="stop3243"
   style="stop-color:#000000;stop-opacity:0"
   offset="0" />
	<stop
   id="stop3245"
   style="stop-color:#000000;stop-opacity:1"
   offset="1" />
</linearGradient>
<path
   d="M 31.749906,64.750281 L 40,76 L 40,1.2499688 L 31.749906,9.7496558 L 31.749906,64.750281 z"
   transform="translate(-1.4995625,0)"
   id="polygon3247"
   style="opacity:0.6;fill:url(#XMLID_19_)"
   sodipodi:nodetypes="ccccc" />
<linearGradient
   x1="25.9629"
   y1="20.433599"
   x2="31.0891"
   y2="29.404699"
   id="XMLID_20_"
   gradientUnits="userSpaceOnUse">
	<stop
   id="stop3250"
   style="stop-color:#ffffff;stop-opacity:1"
   offset="0.2308" />
	<stop
   id="stop3252"
   style="stop-color:#ffffff;stop-opacity:0"
   offset="1" />
</linearGradient>
<polygon
   points="16,36 40,24 40,12 16,30 16,36 "
   id="polygon3254"
   style="fill:url(#XMLID_20_)" />
<rect
   width="13.750164"
   height="5.5000105"
   rx="2.7500052"
   ry="2.7500052"
   x="38.500439"
   y="75.750404"
   id="rect3256"
   style="fill:#555555" />
<rect
   width="13.750155"
   height="5.5000625"
   rx="2.7432911"
   ry="2.7432911"
   x="38.500439"
   y="-1.2504687"
   id="rect3258"
   style="fill:#555555" />
<linearGradient
   x1="19"
   y1="27.142599"
   x2="19"
   y2="49.465099"
   id="XMLID_21_"
   gradientUnits="userSpaceOnUse">
	<stop
   id="stop3261"
   style="stop-color:#ffffff;stop-opacity:1"
   offset="0" />
	<stop
   id="stop3263"
   style="stop-color:#000000;stop-opacity:1"
   offset="1" />
</linearGradient>

<linearGradient
   x1="16"
   y1="64"
   x2="40"
   y2="64"
   id="XMLID_22_"
   gradientUnits="userSpaceOnUse">
	<stop
   id="stop3268"
   style="stop-color:#555555;stop-opacity:1"
   offset="0" />
	<stop
   id="stop3270"
   style="stop-color:#323232;stop-opacity:1"
   offset="1" />
</linearGradient>
<path
   d="M 38.500438,81.250469 L 37.914877,81.250469 C 37.214676,81.250469 36.514285,80.904287 36.116798,80.50409 L 16.500188,59.250219 L 16.500188,56.500187 L 17.091207,56.500187 C 17.708079,56.500187 18.336088,56.750377 18.755373,57.234015 L 38.500438,78.500437 L 38.500438,81.250469 z"
   id="polygon3272"
   style="fill:url(#XMLID_22_)"
   sodipodi:nodetypes="ccccccccc" />
<linearGradient
   x1="16"
   y1="16"
   x2="40"
   y2="16"
   id="XMLID_23_"
   gradientUnits="userSpaceOnUse">
	<stop
   id="stop3275"
   style="stop-color:#555555;stop-opacity:1"
   offset="0" />
	<stop
   id="stop3277"
   style="stop-color:#323232;stop-opacity:1"
   offset="1" />
</linearGradient>
<path
   d="M 16.500188,23.499813 L 17.340236,23.499813 C 18.08344,23.499813 18.591296,23.148508 19.00809,22.718731 L 38.500438,1.4995625 L 38.500438,-1.2504688 L 37.775858,-1.2504688 C 37.112445,-1.2504688 36.490238,-0.89996155 36.021521,-0.40344075 L 16.500188,20.749781 L 16.500188,23.499813 z"
   id="polygon3279"
   style="fill:url(#XMLID_23_)"
   sodipodi:nodetypes="ccccccccc" />


<path
   sodipodi:type="inkscape:offset"
   inkscape:radius="1.1507508"
   inkscape:original="M 68.4375 6.0625 L 67.5625 9.9375 C 68.2345 10.0935 84 14.082 84 40 C 84.000001 65.918 68.2345 69.9065 67.5625 70.0625 L 68.4375 73.9375 C 69.234502 73.759497 88 69.268 88 40 C 88.000001 10.732 69.2345 6.2395 68.4375 6.0625 z "
   style="fill:url(#linearGradient2512)"
   id="path2510"
   d="M 68.34375,4.90625 C 67.83773,4.9477862 67.418714,5.3160122 67.3125,5.8125 L 66.4375,9.6875 C 66.370759,9.9859029 66.425512,10.298599 66.589676,10.55657 C 66.753839,10.814541 67.013915,10.996577 67.3125,11.0625 C 67.475106,11.100248 71.366713,12.053704 75.1875,16.09375 C 79.008287,20.133796 82.84375,27.274328 82.84375,40 C 82.84375,52.725672 79.008287,59.866204 75.1875,63.90625 C 71.366713,67.946296 67.475106,68.899752 67.3125,68.9375 C 67.013915,69.003423 66.753839,69.185459 66.589676,69.44343 C 66.425512,69.701401 66.370759,70.014097 66.4375,70.3125 L 67.3125,74.1875 C 67.378423,74.486085 67.560459,74.746161 67.81843,74.910324 C 68.076401,75.074488 68.389097,75.129241 68.6875,75.0625 C 69.220397,74.943482 74.342069,73.702361 79.34375,68.6875 C 84.345431,63.672639 89.15625,54.879939 89.15625,40 C 89.156251,25.120061 84.34543,16.32749 79.34375,11.3125 C 74.34207,6.2975095 69.231522,5.058318 68.6875,4.9375 C 68.575139,4.9098619 68.459253,4.8993268 68.34375,4.90625 z"
   transform="translate(-1.3750156,0)" />
<linearGradient
   x1="44.0005"
   y1="4"
   x2="44.0005"
   y2="76.000504"
   id="XMLID_27_"
   gradientUnits="userSpaceOnUse"
   gradientTransform="matrix(1,0,0,1.0769232,0,-3.0769239)">
	<stop
   id="stop3309"
   style="stop-color:#bbbbbb;stop-opacity:1"
   offset="0" />
	<stop
   id="stop3311"
   style="stop-color:#ffffff;stop-opacity:1"
   offset="0.1" />
	<stop
   id="stop3313"
   style="stop-color:#eeeeee;stop-opacity:1"
   offset="0.25" />
	<stop
   id="stop3315"
   style="stop-color:#888888;stop-opacity:1"
   offset="0.5" />
	<stop
   id="stop3317"
   style="stop-color:#eeeeee;stop-opacity:1"
   offset="0.73369998" />
	<stop
   id="stop3319"
   style="stop-color:#bbbbbb;stop-opacity:1"
   offset="1" />
</linearGradient>
<rect
   width="11.000139"
   height="77.000877"
   x="38.500439"
   y="1.4995625"
   id="rect3321"
   style="fill:url(#XMLID_27_)" />
<linearGradient
   x1="42"
   y1="4"
   x2="42"
   y2="76.000504"
   id="XMLID_28_"
   gradientUnits="userSpaceOnUse">
	<stop
   id="stop3324"
   style="stop-color:#ffffff;stop-opacity:1"
   offset="0.2" />
	<stop
   id="stop3326"
   style="stop-color:#000000;stop-opacity:1"
   offset="1" />
</linearGradient>

<linearGradient
   x1="50.000999"
   y1="4"
   x2="50.000999"
   y2="76.000504"
   id="XMLID_29_"
   gradientUnits="userSpaceOnUse"
   gradientTransform="matrix(1,0,0,1.0384615,0,-2.9134772)">
	<stop
   id="stop3331"
   style="stop-color:#555555;stop-opacity:1"
   offset="0" />
	<stop
   id="stop3333"
   style="stop-color:#888888;stop-opacity:1"
   offset="0.5" />
	<stop
   id="stop3335"
   style="stop-color:#555555;stop-opacity:1"
   offset="1" />
</linearGradient>
<rect
   width="2.7566469"
   height="77.000877"
   x="49.500561"
   y="1.4995625"
   id="rect3337"
   style="fill:url(#XMLID_29_)" />

<path
   d="M 16,48 C 18.604,48 22,45.231 22,38 C 22,30.768 18.604,28 16,28 L 16,48 z"
   id="path4157"
   style="fill:url(#linearGradient4161)" /><rect
   width="5.5000525"
   height="77.000877"
   x="44.0005"
   y="1.4995625"
   id="rect4159"
   style="fill:url(#linearGradient4163)" /><path
   sodipodi:type="inkscape:offset"
   inkscape:radius="0.81927836"
   inkscape:original="M 55.0625 29.875 L 55.03125 33.9375 C 55.710961 33.95773 59.125 34.337755 59.125 40 C 59.125 45.662245 55.710962 46.04227 55.03125 46.0625 L 55.0625 50.125 C 57.861255 50.124999 63.15625 48.000779 63.15625 40 C 63.156249 31.999221 57.861256 29.875 55.0625 29.875 z "
   style="fill:url(#linearGradient2503)"
   id="path2501"
   d="M 54.90625,29.0625 C 54.520865,29.140758 54.245427,29.481776 54.25,29.875 L 54.21875,33.9375 C 54.221925,34.37289 54.565069,34.72976 55,34.75 C 55.228143,34.75679 56.071964,34.833287 56.8125,35.46875 C 57.553036,36.104213 58.3125,37.333538 58.3125,40 C 58.3125,42.666462 57.553036,43.895787 56.8125,44.53125 C 56.071964,45.166713 55.228144,45.24321 55,45.25 C 54.565069,45.27024 54.221925,45.62711 54.21875,46.0625 L 54.25,50.125 C 54.253729,50.572178 54.615322,50.933771 55.0625,50.9375 C 56.669151,50.937499 58.872117,50.345715 60.71875,48.65625 C 62.565383,46.966785 63.96875,44.181125 63.96875,40 C 63.968749,35.818875 62.565383,33.033215 60.71875,31.34375 C 58.872117,29.654285 56.669152,29.0625 55.0625,29.0625 C 55.010536,29.057523 54.958214,29.057523 54.90625,29.0625 z"
   transform="translate(-2.0625234,0)" /><path
   sodipodi:type="inkscape:offset"
   inkscape:radius="1.0858938"
   inkscape:original="M 64.75 18.15625 L 63.25 21.84375 C 63.607001 21.99375 72 25.679 72 40 C 72.000001 54.32 63.608 58.00725 63.25 58.15625 L 64.75 61.84375 C 65.207997 61.658752 76 57.157 76 40 C 76.000001 22.843 65.208 18.34025 64.75 18.15625 z "
   style="fill:url(#linearGradient2508)"
   id="path2505"
   d="M 64.625,17.0625 C 64.229163,17.113476 63.893181,17.377462 63.75,17.75 L 62.25,21.4375 C 62.029555,21.989752 62.294223,22.616597 62.84375,22.84375 C 62.948438,22.887737 70.90625,26.103268 70.90625,40 C 70.90625,46.947877 68.903652,51.173525 66.90625,53.71875 C 64.908848,56.263975 62.868008,57.146154 62.84375,57.15625 C 62.294223,57.383403 62.029555,58.010248 62.25,58.5625 L 63.75,62.25 C 63.977153,62.799527 64.603998,63.064195 65.15625,62.84375 C 65.793869,62.586198 77.09375,57.612362 77.09375,40 C 77.093751,31.193819 74.282279,25.506281 71.375,22.03125 C 68.467721,18.556219 65.490762,17.290639 65.15625,17.15625 C 64.98987,17.080815 64.80715,17.048571 64.625,17.0625 L 64.625,17.0625 z"
   transform="translate(-2.7500312,0)" /><g
   transform="matrix(0.25,0,0,1,4.1250467,0)"
   id="g3285"
   style="fill:url(#linearGradient3309);fill-opacity:1">
	<linearGradient
   x1="10"
   y1="28"
   x2="10"
   y2="52.0005"
   id="linearGradient3287"
   style="fill:url(#linearGradient3309);fill-opacity:1"
   gradientUnits="userSpaceOnUse">
		<stop
   id="stop3289"
   style="stop-color:#ffffff;stop-opacity:1"
   offset="0.1" />
		<stop
   id="stop3291"
   style="stop-color:#fff6c8;stop-opacity:1"
   offset="0.25" />
		<stop
   id="stop3294"
   style="stop-color:#e39700;stop-opacity:1"
   offset="0.5" />
		<stop
   id="stop3296"
   style="stop-color:#ffdd00;stop-opacity:1"
   offset="0.89999998" />
	</linearGradient>
	<rect
   width="22.00025"
   height="38.488945"
   rx="11.000125"
   ry="2.6961088"
   x="5.5000634"
   y="20.738699"
   id="rect3298"
   style="fill:url(#linearGradient3309);fill-opacity:1" />
</g><g
   transform="matrix(0.75,0,0,1.1,4.125047,-2.6249842)"
   id="g3339">
	<linearGradient
   x1="10"
   y1="28"
   x2="10"
   y2="52.0005"
   id="XMLID_30_"
   gradientUnits="userSpaceOnUse">
		<stop
   id="stop3342"
   style="stop-color:#ffffff;stop-opacity:1"
   offset="0.1" />
		<stop
   id="stop3344"
   style="stop-color:#fff6c8;stop-opacity:1"
   offset="0.25" />
		<stop
   id="stop3346"
   style="stop-color:#e39700;stop-opacity:1"
   offset="0.5" />
		<stop
   id="stop3348"
   style="stop-color:#ffdd00;stop-opacity:1"
   offset="0.89999998" />
	</linearGradient>
	<rect
   width="11.000124"
   height="30.000341"
   x="5.5000625"
   y="23.749815"
   id="rect3350"
   style="fill:url(#linearGradient3311)" />
</g><rect
   width="5.5000615"
   height="2.7500312"
   rx="0"
   ry="0"
   x="38.500439"
   y="-1.2504687"
   id="rect3403"
   style="fill:url(#linearGradient3423);fill-opacity:1" /><rect
   width="5.5000615"
   height="2.7499678"
   rx="0"
   ry="0"
   x="38.500439"
   y="78.500435"
   id="rect3405"
   style="fill:url(#linearGradient3431);fill-opacity:1" /></svg>