<?xml version="1.0" encoding="UTF-8" standalone="no"?>
<svg
   xmlns:dc="http://purl.org/dc/elements/1.1/"
   xmlns:cc="http://creativecommons.org/ns#"
   xmlns:rdf="http://www.w3.org/1999/02/22-rdf-syntax-ns#"
   xmlns:svg="http://www.w3.org/2000/svg"
   xmlns="http://www.w3.org/2000/svg"
   xmlns:xlink="http://www.w3.org/1999/xlink"
   xmlns:sodipodi="http://sodipodi.sourceforge.net/DTD/sodipodi-0.dtd"
   xmlns:inkscape="http://www.inkscape.org/namespaces/inkscape"
   inkscape:export-ydpi="90"
   inkscape:export-xdpi="90"
   inkscape:export-filename="/home/pinheiro/pics/oxygen-icons/scalable/actions/small/16x16/im-jabber.png"
   inkscape:output_extension="org.inkscape.output.svgz.inkscape"
   sodipodi:docname="im-jabber.svg"
   version="1.0"
   inkscape:version="1.0 (unknown)"
   sodipodi:version="0.32"
   id="svg2"
   height="126.62572"
   width="91.608444">
  <defs
     id="defs4">
    <linearGradient
       id="linearGradient5480"
       inkscape:collect="always">
      <stop
         id="stop5482"
         offset="0"
         style="stop-color:#000000;stop-opacity:1;" />
      <stop
         id="stop5484"
         offset="1"
         style="stop-color:#000000;stop-opacity:0;" />
    </linearGradient>
    <linearGradient
       id="linearGradient5470">
      <stop
         id="stop5472"
         offset="0"
         style="stop-color:#000000;stop-opacity:1;" />
      <stop
         style="stop-color:#1e0606;stop-opacity:1;"
         offset="0.05411549"
         id="stop5478" />
      <stop
         id="stop5474"
         offset="1"
         style="stop-color:#000000;stop-opacity:1;" />
    </linearGradient>
    <linearGradient
       id="linearGradient5369">
      <stop
         id="stop5371"
         offset="0"
         style="stop-color:#f3f2bb;stop-opacity:1;" />
      <stop
         id="stop5373"
         offset="1"
         style="stop-color:#f3f2bb;stop-opacity:0;" />
    </linearGradient>
    <linearGradient
       id="linearGradient5343"
       inkscape:collect="always">
      <stop
         id="stop5345"
         offset="0"
         style="stop-color:#ffffff;stop-opacity:1;" />
      <stop
         id="stop5347"
         offset="1"
         style="stop-color:#ffffff;stop-opacity:0;" />
    </linearGradient>
    <linearGradient
       id="linearGradient13201">
      <stop
         style="stop-color:#f9f8cd;stop-opacity:1;"
         offset="0"
         id="stop13203" />
      <stop
         id="stop13205"
         offset="0.2265625"
         style="stop-color:#e2df87;stop-opacity:1;" />
      <stop
         id="stop13207"
         offset="0.6350528"
         style="stop-color:#eeb81f;stop-opacity:1;" />
      <stop
         style="stop-color:#a96d00;stop-opacity:1"
         offset="1"
         id="stop13209" />
    </linearGradient>
    <mask
       maskUnits="userSpaceOnUse"
       id="mask4722">
      <path
         id="path4724-7"
         d="m -149.32752,230.11546 c -45.80533,0 -82.96901,37.16367 -82.96901,82.96901 0,15.38032 4.19554,29.78816 11.49758,42.14185 0.17342,0.29339 0.32507,0.59337 0.50197,0.88443 10.07509,18.55646 28.08348,41.46039 31.00283,63.51157 1.86278,9.45942 1.75126,13.58465 10.70876,14.91578 7.58267,1.12683 18.16799,1.89331 26.58068,2.15131 v 0.11952 c 0.8487,0 1.78779,-0.0316 2.725,-0.0478 0.93721,0.0162 1.8763,0.0478 2.725,0.0478 v -0.11952 c 8.41268,-0.258 18.99801,-1.02448 26.58068,-2.15131 8.9575,-1.33113 8.82208,-5.45636 10.68486,-14.91578 3.03927,-22.957 22.475934,-46.84529 32.245806,-65.7824 6.804608,-12.03879 10.708763,-25.94908 10.708763,-40.75545 0,-45.80533 -37.187579,-82.96902 -82.992919,-82.96901 z"
         style="opacity:0.958802;fill:url(#linearGradient4726);fill-opacity:1;stroke:none;stroke-width:1;stroke-linecap:round;stroke-linejoin:miter;stroke-miterlimit:4;stroke-dasharray:none;stroke-dashoffset:1.0878;stroke-opacity:1" />
    </mask>
    <linearGradient
       inkscape:collect="always"
       xlink:href="#linearGradient4708"
       id="linearGradient4726"
       gradientUnits="userSpaceOnUse"
       x1="-149.31557"
       y1="230.11546"
       x2="-149.31557"
       y2="436.96805" />
    <filter
       inkscape:collect="always"
       id="filter4579"
       x="-0.028712271"
       width="1.0574245"
       y="-0.29707706"
       height="1.5941541">
      <feGaussianBlur
         inkscape:collect="always"
         stdDeviation="0.70975765"
         id="feGaussianBlur4581" />
    </filter>
    <filter
       inkscape:collect="always"
       id="filter4501">
      <feGaussianBlur
         inkscape:collect="always"
         stdDeviation="0.63079545"
         id="feGaussianBlur4503" />
    </filter>
    <filter
       inkscape:collect="always"
       id="filter4242"
       x="-0.050535563"
       width="1.1010711"
       y="-0.812778"
       height="2.625556">
      <feGaussianBlur
         inkscape:collect="always"
         stdDeviation="0.60886891"
         id="feGaussianBlur4244" />
    </filter>
    <filter
       inkscape:collect="always"
       id="filter4214">
      <feGaussianBlur
         inkscape:collect="always"
         stdDeviation="0.60886891"
         id="feGaussianBlur4216" />
    </filter>
    <filter
       inkscape:collect="always"
       id="filter3437"
       x="-0.10575258"
       width="1.2115052"
       y="-0.27803096"
       height="1.5560619">
      <feGaussianBlur
         inkscape:collect="always"
         stdDeviation="1.2625533"
         id="feGaussianBlur3439" />
    </filter>
    <filter
       inkscape:collect="always"
       id="filter3433"
       x="-0.16664387"
       width="1.3332877"
       y="-0.52129894"
       height="2.042598">
      <feGaussianBlur
         inkscape:collect="always"
         stdDeviation="1.2625533"
         id="feGaussianBlur3435" />
    </filter>
    <filter
       inkscape:collect="always"
       id="filter3429"
       x="-0.15843193"
       width="1.3168639"
       y="-0.44589522"
       height="1.8917904">
      <feGaussianBlur
         inkscape:collect="always"
         stdDeviation="1.2625533"
         id="feGaussianBlur3431" />
    </filter>
    <filter
       inkscape:collect="always"
       id="filter3425"
       x="-0.17143644"
       width="1.3428729"
       y="-0.57203853"
       height="2.1440771">
      <feGaussianBlur
         inkscape:collect="always"
         stdDeviation="1.2625533"
         id="feGaussianBlur3427" />
    </filter>
    <filter
       inkscape:collect="always"
       id="filter3159"
       x="-0.029538766"
       width="1.0590775"
       y="-0.71296549"
       height="2.425931">
      <feGaussianBlur
         inkscape:collect="always"
         stdDeviation="0.89154765"
         id="feGaussianBlur3161" />
    </filter>
    <linearGradient
       inkscape:collect="always"
       xlink:href="#linearGradient2915"
       id="linearGradient3108"
       gradientUnits="userSpaceOnUse"
       x1="-44.289536"
       y1="488.73438"
       x2="-2.206815"
       y2="488.73438" />
    <clipPath
       clipPathUnits="userSpaceOnUse"
       id="clipPath3104">
      <path
         sodipodi:nodetypes="cccscscscccsccscscscccssccccscccccsc"
         id="path3106"
         d="m -43.781248,455.0625 v 10.625 c 1.33768,0.19677 2.37501,1.32674 2.375,2.71875 -0.39324,3.61124 -2.9799,1.67284 -2.875,5.1875 0.08363,2.80209 2.69745,2.22072 2.875,5.15625 -0.39324,3.61125 -3.0502,1.67713 -2.875,5.1875 0.1907,3.82118 2.64892,1.52842 2.875,5.0625 -0.39324,3.61125 -2.9799,1.6416 -2.875,5.15625 0.08363,2.80209 2.9715,2.25854 2.875,5.1875 0,0.67277 0.48667,1.03489 3.46875,4.25 h 0.5 c 1.54533,1.06065 14.393,1.90625 29.9999999,1.90625 15.607,0 28.8296701,-0.22059 30.3750001,-1.28125 h -0.03125 c 2.88436,-2.70414 6.40625,-2.10991 6.40625,-4.65625 0,-3.50046 -2.45051,-1.545 -2.84375,-5.15625 0.22611,-3.53407 2.65305,-1.27257 2.84375,-5.09375 0.1752,-3.51036 -2.45051,-1.545 -2.84375,-5.15625 0.17758,-2.93555 2.76012,-2.38541 2.84375,-5.1875 0.1049,-3.51465 -2.45051,-1.54501 -2.84375,-5.15625 2e-5,-1.39203 1.00607,-2.55323 2.34375,-2.75 v -15.78125 c 0,1.39546 -16.24996,2.53125 -36.2500001,2.53125 -20.0000399,-10e-6 -36.2187499,-1.13579 -36.2187499,-2.53125 0,-0.0776 0.05789,-0.14288 0.15625,-0.21875 z m 18,60.09375 6.65625,6.6875 c 0.44346,0.31604 5.50896,0.5625 11.6874999,0.5625 5.97359,0 10.90346,-0.26096 11.625,-0.5625 h 0.03125 c 0.04004,-0.0205 0.0625,-0.0415 0.0625,-0.0625 l 6.5937501,-6.5625 h -0.0625 c -1.1338001,0.4738 -8.8631501,0.84375 -18.2500001,0.84375 -9.7088799,-5e-5 -17.6468999,-0.40959 -18.3437499,-0.90625 z"
         style="opacity:1;fill:url(#linearGradient3108);fill-opacity:1;stroke:none;stroke-width:1;stroke-linecap:round;stroke-linejoin:miter;stroke-miterlimit:4;stroke-dasharray:none;stroke-dashoffset:1.0878;stroke-opacity:1" />
    </clipPath>
    <filter
       inkscape:collect="always"
       id="filter3094">
      <feGaussianBlur
         inkscape:collect="always"
         stdDeviation="2.1754545"
         id="feGaussianBlur3096" />
    </filter>
    <linearGradient
       id="linearGradient2915">
      <stop
         style="stop-color:#918e89;stop-opacity:1;"
         offset="0"
         id="stop2917" />
      <stop
         style="stop-color:#ffffff;stop-opacity:1;"
         offset="1"
         id="stop2919" />
    </linearGradient>
    <linearGradient
       id="linearGradient2923">
      <stop
         style="stop-color:#000000;stop-opacity:1;"
         offset="0"
         id="stop2925" />
      <stop
         id="stop2931"
         offset="0.53500003"
         style="stop-color:#434343;stop-opacity:1;" />
      <stop
         style="stop-color:#000000;stop-opacity:1;"
         offset="1"
         id="stop2927" />
    </linearGradient>
    <linearGradient
       inkscape:collect="always"
       id="linearGradient4256">
      <stop
         style="stop-color:#ffffff;stop-opacity:1;"
         offset="0"
         id="stop4258" />
      <stop
         style="stop-color:#ffffff;stop-opacity:0;"
         offset="1"
         id="stop4260" />
    </linearGradient>
    <linearGradient
       id="linearGradient4510-3">
      <stop
         style="stop-color:#260000;stop-opacity:1;"
         offset="0"
         id="stop4512" />
      <stop
         style="stop-color:#403d38;stop-opacity:1;"
         offset="1"
         id="stop4514" />
    </linearGradient>
    <linearGradient
       id="linearGradient4518">
      <stop
         style="stop-color:#545148;stop-opacity:1;"
         offset="0"
         id="stop4520" />
      <stop
         style="stop-color:#1e1d19;stop-opacity:0.38181818;"
         offset="1"
         id="stop4522" />
    </linearGradient>
    <linearGradient
       inkscape:collect="always"
       id="linearGradient4708">
      <stop
         style="stop-color:#ffffff;stop-opacity:1;"
         offset="0"
         id="stop4710" />
      <stop
         style="stop-color:#ffffff;stop-opacity:0;"
         offset="1"
         id="stop4712" />
    </linearGradient>
    <filter
       height="1.724279"
       y="-0.36213955"
       width="1.6954373"
       x="-0.34771863"
       id="filter5339"
       inkscape:collect="always">
      <feGaussianBlur
         id="feGaussianBlur5341"
         stdDeviation="0.99667209"
         inkscape:collect="always" />
    </filter>
    <filter
       id="filter5364"
       inkscape:collect="always">
      <feGaussianBlur
         id="feGaussianBlur5366"
         stdDeviation="2.2705842"
         inkscape:collect="always" />
    </filter>
    <clipPath
       id="clipPath5379"
       clipPathUnits="userSpaceOnUse">
      <path
         inkscape:connector-curvature="0"
         id="path5381"
         d="m 781.74179,-152.23452 c 24.15743,-1e-5 43.74451,19.62309 43.74451,43.78051 0,7.80878 -2.06389,15.145044 -5.65258,21.494222 -5.15257,9.987306 -15.39086,22.564214 -16.99375,34.671575 -0.98242,4.988842 -0.89245,7.182789 -5.61658,7.884819 -3.99905,0.594279 -9.60466,0.98004 -14.04145,1.11611 v 0.07201 c -0.44761,0 -0.94587,-0.02745 -1.44015,-0.036 -0.49428,0.0086 -0.99255,0.036 -1.44015,0.036 v -0.07201 c -4.4368,-0.136065 -10.00639,-0.521833 -14.00545,-1.116113 -4.72412,-0.70203 -4.67016,-2.895971 -5.65258,-7.884816 -1.53965,-11.629644 -11.03216,-23.696899 -16.34569,-33.483454 -0.0933,-0.153506 -0.16057,-0.31332 -0.25203,-0.468049 -3.85104,-6.515254 -6.08462,-14.102814 -6.08462,-22.214294 0,-24.15743 19.62309,-43.78051 43.78052,-43.78051 z"
         style="fill:url(#radialGradient5383);fill-opacity:1;stroke:none"
         sodipodi:nodetypes="csccsccsccsccssc" />
    </clipPath>
    <radialGradient
       r="36.72546"
       fy="24.714161"
       fx="-157.13681"
       cy="51.086899"
       cx="-174.56659"
       gradientTransform="matrix(1.1997143,2.9614892e-8,-1.3990623e-8,1.2893356,991.47721,-170.54057)"
       gradientUnits="userSpaceOnUse"
       id="radialGradient5383"
       xlink:href="#linearGradient13201"
       inkscape:collect="always" />
    <radialGradient
       r="36.72546"
       fy="24.714161"
       fx="-157.13681"
       cy="51.086899"
       cx="-174.56659"
       gradientTransform="matrix(1.1997143,2.9614892e-8,-1.3990623e-8,1.2893356,991.47721,-170.54057)"
       gradientUnits="userSpaceOnUse"
       id="radialGradient5430"
       xlink:href="#linearGradient13201"
       inkscape:collect="always" />
    <radialGradient
       r="6.3591576"
       fy="-120.60773"
       fx="810.91376"
       cy="-120.60773"
       cx="810.91376"
       gradientTransform="matrix(1,0,0,0.79205083,0,-25.080276)"
       gradientUnits="userSpaceOnUse"
       id="radialGradient5432"
       xlink:href="#linearGradient5343"
       inkscape:collect="always" />
    <linearGradient
       y2="-91.296875"
       x2="935.1994"
       y1="-39.577065"
       x1="889.15558"
       gradientTransform="translate(-127.24249)"
       gradientUnits="userSpaceOnUse"
       id="linearGradient5434"
       xlink:href="#linearGradient5369"
       inkscape:collect="always" />
    <radialGradient
       r="30.96875"
       fy="455.30811"
       fx="-6.9999981"
       cy="455.30811"
       cx="-6.9999981"
       gradientTransform="matrix(0.52739333,0,0,0.79355836,785.50824,-386.3475)"
       gradientUnits="userSpaceOnUse"
       id="radialGradient5436"
       xlink:href="#linearGradient2923"
       inkscape:collect="always" />
    <linearGradient
       y2="488.73438"
       x2="-2.206815"
       y1="488.73438"
       x1="-24.796316"
       gradientTransform="matrix(0.52739333,0,0,0.52739333,785.50824,-286.54563)"
       gradientUnits="userSpaceOnUse"
       id="linearGradient5438"
       xlink:href="#linearGradient2915"
       inkscape:collect="always" />
    <linearGradient
       y2="486.375"
       x2="-9.8125"
       y1="486.375"
       x1="-38.71875"
       gradientTransform="translate(433.88965)"
       gradientUnits="userSpaceOnUse"
       id="linearGradient5448"
       xlink:href="#linearGradient4510-3"
       inkscape:collect="always" />
    <linearGradient
       y2="487.6875"
       x2="24.065563"
       y1="487.6875"
       x1="-0.52818722"
       gradientTransform="translate(433.88965)"
       gradientUnits="userSpaceOnUse"
       id="linearGradient5450"
       xlink:href="#linearGradient4518"
       inkscape:collect="always" />
    <linearGradient
       y2="478.23749"
       x2="19.477089"
       y1="478.23749"
       x1="4.494709"
       gradientTransform="translate(433.88965)"
       gradientUnits="userSpaceOnUse"
       id="linearGradient5452"
       xlink:href="#linearGradient4256"
       inkscape:collect="always" />
    <linearGradient
       gradientUnits="userSpaceOnUse"
       y2="482.75861"
       x2="29.320883"
       y1="482.75861"
       x1="-44.289536"
       id="linearGradient5476"
       xlink:href="#linearGradient5470"
       inkscape:collect="always" />
    <radialGradient
       gradientUnits="userSpaceOnUse"
       gradientTransform="matrix(1,0,0,0.48243841,0,241.19365)"
       r="15.406518"
       fy="466.01923"
       fx="430.15729"
       cy="466.01923"
       cx="430.15729"
       id="radialGradient5486"
       xlink:href="#linearGradient5480"
       inkscape:collect="always" />
  </defs>
  <sodipodi:namedview
     inkscape:document-rotation="0"
     inkscape:snap-smooth-nodes="true"
     inkscape:snap-intersection-paths="true"
     inkscape:object-nodes="true"
     inkscape:snap-bbox-midpoints="true"
     inkscape:snap-bbox-edge-midpoints="true"
     inkscape:bbox-nodes="true"
     inkscape:bbox-paths="true"
     inkscape:object-paths="true"
     inkscape:snap-grids="false"
     inkscape:snap-global="false"
     inkscape:window-maximized="0"
     inkscape:snap-bbox="true"
     inkscape:snap-nodes="true"
     inkscape:guide-bbox="true"
     showguides="true"
     inkscape:window-y="147"
     inkscape:window-x="132"
     inkscape:window-height="728"
     inkscape:window-width="1040"
     showgrid="true"
     height="128px"
     width="128px"
     inkscape:current-layer="layer1"
     inkscape:document-units="px"
     inkscape:cy="61.606802"
     inkscape:cx="-36.332444"
     inkscape:zoom="2.40625"
     inkscape:pageshadow="2"
     inkscape:pageopacity="0.0"
     objecttolerance="10"
     guidetolerance="10"
     gridtolerance="10000"
     borderopacity="1.0"
     bordercolor="#666666"
     pagecolor="#ffffff"
     id="base">
    <inkscape:grid
       enabled="true"
       visible="true"
       empspacing="2"
       empopacity="0.4"
       opacity="0.2"
       empcolor="#0000ff"
       color="#0000ff"
       spacingy="2.6666"
       spacingx="2.6666"
       originy="-1.2114169"
       originx="-20.813345"
       type="xygrid"
       id="GridFromPre046Settings" />
  </sodipodi:namedview>
  <metadata
     id="metadata7">
    <rdf:RDF>
      <cc:Work
         rdf:about="">
        <dc:format>image/svg+xml</dc:format>
        <dc:type
           rdf:resource="http://purl.org/dc/dcmitype/StillImage" />
        <dc:title />
      </cc:Work>
    </rdf:RDF>
  </metadata>
  <g
     transform="translate(-20.813345,-1.2114169)"
     id="layer1"
     inkscape:groupmode="layer"
     inkscape:label="Layer 1">
    <path
       inkscape:r_cy="true"
       inkscape:r_cx="true"
       sodipodi:nodetypes="ccc"
       id="path6503"
       d="m 138.51308,-135.31597 v -0.81738 z"
       style="fill:#ffffff;fill-opacity:0.756881;fill-rule:nonzero;stroke:none"
       inkscape:connector-curvature="0" />
    <g
       clip-path="none"
       transform="matrix(0.86019172,0.35839953,-0.35839953,0.86019172,-639.67211,-144.87076)"
       id="g5411">
      <path
         d="m 781.74179,-152.23452 c 20.20343,-0.3914 39.14382,15.12316 42.8557,34.96349 2.70665,12.17673 -0.71979,24.921657 -7.49918,35.17079 -6.29086,10.315004 -13.58055,20.692468 -14.88606,33.049975 -1.53662,6.853971 -10.33899,4.555696 -15.52693,5.614755 -7.22778,0.444193 -14.65613,-0.04567 -21.94806,-1.303626 -6.08808,-3.695473 -3.35544,-13.002637 -7.49678,-18.497118 -6.0996,-13.646649 -17.78015,-25.193388 -19.0477,-40.713916 -2.41408,-19.75834 10.58391,-39.91047 29.51579,-45.98188 4.50959,-1.53035 9.27172,-2.30509 14.03322,-2.30247 z"
         style="fill:url(#radialGradient5430);fill-opacity:1;stroke:none"
         id="path3885" />
      <path
         transform="rotate(41.975835,810.91375,-120.60772)"
         d="m 814.8809,-120.60773 c -0.58101,3.1251 -5.34808,3.37512 -7.32143,1.41218 -1.88123,-1.99579 1.0745,-4.28859 3.11838,-4.05226 1.67036,-0.0692 4.07222,0.65774 4.20305,2.64008 z"
         style="fill:url(#radialGradient5432);fill-opacity:1;stroke:none;filter:url(#filter5339)"
         id="path5329" />
      <path
         d="m 750.75751,-139.375 c -13.97149,13.49601 -16.83663,36.58086 -6.71875,53.125 6.59578,11.940489 15.76301,23.166218 17.22767,37.205165 1.57057,6.826467 10.33567,4.553155 15.52542,5.613972 7.19293,0.450487 14.55565,-0.06584 21.7988,-1.260058 3.61012,-0.574215 5.89221,-8.010979 0.38005,-5.307971 -9.79653,1.1034 -19.47995,0.995066 -29.24103,-0.742676 -6.0944,-3.687637 -3.36014,-12.998512 -7.49984,-18.491561 -6.09461,-13.651045 -17.78088,-25.203027 -19.0241,-40.731371 -1.08822,-10.29627 1.61025,-20.92269 7.55178,-29.4105 z"
         style="fill:url(#linearGradient5434);fill-opacity:1;stroke:none;filter:url(#filter5364)"
         clip-path="url(#clipPath5379)"
         id="path5351" />
      <path
         d="m 801.15434,-46.530444 c -1.12119,1.780367 -3.47387,1.478203 -5.11516,2.014817 -10.09196,1.266242 -20.39366,1.420638 -30.44341,-0.662895 -0.7265,-0.383572 -2.64467,-0.399363 -2.49023,-1.775127 2.76537,-2.071965 6.31008,-1.729878 9.42964,-2.27396 8.99006,-0.515203 18.15945,-0.841012 27.02907,1.499514 0.52331,0.269039 1.41034,0.403113 1.59009,1.197651 z"
         style="opacity:0.116848;fill:#545454;fill-opacity:1;stroke:none;stroke-width:1.11234"
         id="path4940" />
      <path
         d="m 765.48377,-21.248099 c 2.14403,2.129275 4.27521,4.289615 6.42727,6.399464 6.32976,1.353509 13.08977,1.317121 19.3817,-0.03734 2.28538,-2.071307 4.57075,-4.142614 6.85613,-6.213921 -9.91317,-1.357538 -20.02039,-0.939427 -30.00365,-0.671458 -0.89843,0.09383 -1.82563,0.148203 -2.66145,0.523251 z"
         style="fill:url(#radialGradient5436);fill-opacity:1;stroke:none"
         id="path2900" />
      <path
         d="m 781.58574,-12.343723 c -2.3546,-0.573963 -9.36892,1.118028 -3.51928,1.73424 2.06951,0.145855 10.73742,0.7159614 8.73939,-1.328539 -1.71598,-0.342239 -3.4758,-0.390518 -5.22011,-0.405701 z"
         style="fill:#6a6a6a;fill-opacity:1;stroke:none"
         id="path2266" />
      <path
         d="m 762.41829,-46.548692 c 0.42639,1.95791 -0.95462,4.994205 0.89084,6.084083 0.363,2.290475 -2.34313,4.186441 0.36172,6.408537 -3.23068,2.728611 1.59265,5.387634 -1.51626,8.125158 1.48645,6.28991 8.28999,5.908969 13.60114,5.904175 7.25529,-0.02457 14.71252,0.496757 21.83299,-0.597268 2.93362,-0.984489 4.36602,-2.820464 1.87884,-5.175061 3.23878,-2.695795 -1.62974,-5.367562 1.49978,-8.141627 -2.76468,-2.737387 0.55265,-4.490356 -0.26371,-7.859464 0.008,-2.884361 0.82916,-6.027102 -3.26787,-3.887367 -11.12126,0.804531 -22.35193,0.931107 -33.45034,-0.226743 -0.6798,0.518124 -1.34893,-0.615954 -1.56713,-0.634423 z m 9.49308,31.693029 c 1.90208,1.684905 3.34964,4.487491 6.35374,3.773712 3.60378,-0.582805 8.69095,1.6358719 11.16529,-1.936056 4.81014,-3.613163 -4.85842,-0.478887 -6.92733,-1.361964 -3.52612,-0.0596 -7.10383,0.106909 -10.5917,-0.475692 z"
         style="fill:url(#linearGradient5438);fill-opacity:1;stroke:none"
         id="path2898" />
      <path
         transform="matrix(0.52739333,0,0,0.52739333,785.50824,-286.54563)"
         d="m -50.203145,451.5 c -2.239583,12.26042 -4.479167,24.52083 -6.71875,36.78125 3.479167,5.77083 6.958333,11.54167 10.4375,17.3125 5.026933,-1.66417 10.283699,-2.71376 15.03125,-5.125 -7.560025,-0.96576 -1.060006,-3.03168 0.248662,-4.36053 -4.950806,-0.56621 -8.169981,-1.27527 -1.481854,-2.80165 6.966677,-1.33668 2.704705,-2.67336 -1.832888,-4.01004 -7.027924,-1.39107 8.331213,-1.94466 0.01975,-3.17784 -7.312447,-1.07104 -0.204486,-2.40035 3.180671,-3.66299 7.191267,-1.2157 -0.443788,-2.53157 -3.453652,-3.81619 -3.625561,-1.08655 5.316995,-3.20718 -2.238345,-4.60401 -4.142838,-1.92796 7.846375,-4.64473 1.698858,-7.63063 -2.708195,-2.82089 -0.511344,-7.42586 -1.13031,-11.00665 -0.579563,-3.34479 -7.061667,-1.82151 -9.996445,-3.22386 -1.254814,-0.22479 -2.509628,-0.44957 -3.764442,-0.67436 z m 80.78125,-0.125 c -2.964149,1.74386 -9.675548,0.57589 -9.751548,4.56402 0.353868,4.1353 -1.588254,9.00157 2.10472,12.0738 3.788683,3.32865 -8.455392,3.86648 -4.291262,6.96641 6.10438,2.83049 -7.396195,4.84565 0.612684,4.64501 5.984447,-0.11212 6.441088,0.65659 0.52985,2.43998 -8.063316,0.90159 4.97147,4.28976 0.220759,5.76961 -6.252192,2.26326 -4.48207,2.75725 1.21621,2.38492 5.458333,-0.39827 -4.042656,3.31125 -5.718792,4.87209 7.425339,1.40777 -2.162611,4.61805 1.404669,5.10999 6.519279,0.0229 4.89283,1.46462 2.101613,3.42465 6.513282,1.65609 13.026565,3.31218 19.539847,4.96827 -2.65625,-19.07292 -5.3125,-38.14583 -7.96875,-57.21875 z"
         style="fill:url(#linearGradient5476);fill-opacity:1;fill-rule:evenodd;stroke:none;filter:url(#filter3094)"
         clip-path="url(#clipPath3104)"
         id="path3037" />
      <path
         transform="matrix(0.52739333,0,0,0.52739333,868.87654,-286.54563)"
         d="m -198.60189,455.4125 c 5.88929,3.68537 19.41733,2.18817 28.23278,2.94847 14.25701,-0.07 28.68627,0.44836 42.78126,-1.97031 -4.59822,-1.22958 -18.06535,1.56287 -25.99796,0.93596 -14.97683,-0.0137 -30.20724,0.56428 -45.01608,-1.91412 z"
         style="opacity:0.116848;fill:#2d2d2d;fill-opacity:1;stroke:none;filter:url(#filter3159)"
         mask="url(#mask4722)"
         id="path3110" />
      <path
         transform="matrix(0.52739333,0,0,0.52739333,556.67771,-286.54563)"
         d="m 441.51742,459.66655 c -10.4465,4.53025 10.55204,11.46813 -2.91359,10.71759 -8.01313,3.31112 -25.80199,3.12504 -21.48506,-9.3074 7.16,-2.48924 16.45973,1.13467 24.39865,-1.41019 z"
         style="fill:url(#radialGradient5486);fill-opacity:1;fill-rule:evenodd;stroke:none;filter:url(#filter3437)"
         id="path3163" />
      <path
         transform="matrix(0.52739333,0,0,0.52739333,556.67771,-286.54563)"
         d="m 437.75494,472.48857 c -6.88636,-0.12743 -10.06364,6.99951 -1.3227,6.88307 -5.672,2.73546 -25.85479,5.50422 -15.46745,-5.08518 5.65454,0.61102 11.16199,-1.64696 16.79015,-1.79789 z"
         style="fill:#120606;fill-opacity:1;fill-rule:evenodd;stroke:none;filter:url(#filter3433)"
         id="path3165" />
      <path
         transform="matrix(0.52739333,0,0,0.52739333,556.67771,-286.54563)"
         d="m 422.0242,484.66871 c -11.812,4.44672 2.79108,11.92619 8.98806,6.36838 6.1968,-1.38476 6.71829,-0.46848 1.44299,-4.07378 0.85654,-4.86731 7.9356,-5.1345 -0.007,-3.94883 -3.47467,0.55141 -6.94935,1.10282 -10.42403,1.65423 z"
         style="fill:#120606;fill-opacity:1;fill-rule:evenodd;stroke:none;filter:url(#filter3429)"
         id="path3167" />
      <path
         transform="matrix(0.52739333,0,0,0.52739333,556.67771,-286.54563)"
         d="m 434.49206,492.75973 c -5.48775,1.67767 -12.12285,0.90071 -16.64787,4.67076 -3.10564,6.84864 6.30322,4.94935 10.13146,4.06475 5.39075,-0.7633 9.31819,-0.41821 2.47743,-4.69453 -1.18352,-2.51975 2.26688,-3.59902 4.03898,-4.04098 z"
         style="fill:#120606;fill-opacity:1;fill-rule:evenodd;stroke:none;filter:url(#filter3425)"
         id="path3169" />
      <path
         transform="matrix(0.52739333,0,0,0.52739333,556.67771,-286.54563)"
         d="m 395.1709,470.78125 c 1.33466,3.71772 7.37486,0.52863 10.75576,1.24287 6.05016,-0.32054 12.10033,-0.64108 18.15049,-0.96162 -9.63542,-0.0937 -19.27083,-0.1875 -28.90625,-0.28125 z m 0,4 c 1.33466,3.71772 7.37486,0.52863 10.75576,1.24287 6.05016,-0.32054 12.10033,-0.64108 18.15049,-0.96162 -9.63542,-0.0937 -19.27083,-0.1875 -28.90625,-0.28125 z m 0,6 c 1.33466,3.71772 7.37486,0.52863 10.75576,1.24287 6.05016,-0.32054 12.10033,-0.64108 18.15049,-0.96162 -9.63542,-0.0937 -19.27083,-0.1875 -28.90625,-0.28125 z m 0,5 c 1.33466,3.71772 7.37486,0.52863 10.75576,1.24287 6.05016,-0.32054 12.10033,-0.64108 18.15049,-0.96162 -9.63542,-0.0937 -19.27083,-0.1875 -28.90625,-0.28125 z m 0,5 c 1.33466,3.71772 7.37486,0.52863 10.75576,1.24287 6.05016,-0.32054 12.10033,-0.64108 18.15049,-0.96162 -9.63542,-0.0937 -19.27083,-0.1875 -28.90625,-0.28125 z m 0,5 c 1.33466,3.71772 7.37486,0.52863 10.75576,1.24287 6.05016,-0.32054 12.10033,-0.64108 18.15049,-0.96162 -9.63542,-0.0937 -19.27083,-0.1875 -28.90625,-0.28125 z m 0,5 c 2.13857,2.71644 7.40486,0.16647 10.76367,0.8283 6.04753,-0.2136 12.09505,-0.4272 18.14258,-0.6408 -9.63542,-0.0625 -19.27083,-0.125 -28.90625,-0.1875 z"
         style="fill:url(#linearGradient5448);fill-opacity:1;fill-rule:evenodd;stroke:none;filter:url(#filter4242)"
         id="path3441" />
      <path
         transform="matrix(0.52739333,0,0,0.52739333,556.67771,-286.54563)"
         d="m 457.64271,471.71875 c -8.09375,0.64583 -16.1875,1.29167 -24.28125,1.9375 8.19792,-0.0937 16.39583,-0.1875 24.59375,-0.28125 -0.10417,-0.55208 -0.20833,-1.10417 -0.3125,-1.65625 z m 0,2 c -8.09375,0.64583 -16.1875,1.29167 -24.28125,1.9375 8.19792,-0.0937 16.39583,-0.1875 24.59375,-0.28125 -0.10417,-0.55208 -0.20833,-1.10417 -0.3125,-1.65625 z m 0,4 c -8.09375,0.64583 -16.1875,1.29167 -24.28125,1.9375 8.19792,-0.0937 16.39583,-0.1875 24.59375,-0.28125 -0.10417,-0.55208 -0.20833,-1.10417 -0.3125,-1.65625 z m 0,2 c -8.09375,0.64583 -16.1875,1.29167 -24.28125,1.9375 8.19792,-0.0937 16.39583,-0.1875 24.59375,-0.28125 -0.10417,-0.55208 -0.20833,-1.10417 -0.3125,-1.65625 z m 0,4 c -8.09375,0.64583 -16.1875,1.29167 -24.28125,1.9375 8.19792,-0.0937 16.39583,-0.1875 24.59375,-0.28125 -0.10417,-0.55208 -0.20833,-1.10417 -0.3125,-1.65625 z m 0,4 c -8.09375,0.64583 -16.1875,1.29167 -24.28125,1.9375 8.19792,-0.0937 16.39583,-0.1875 24.59375,-0.28125 -0.10417,-0.55208 -0.20833,-1.10417 -0.3125,-1.65625 z m 0,5 c -8.09375,0.64583 -16.1875,1.29167 -24.28125,1.9375 8.19792,-0.0937 16.39583,-0.1875 24.59375,-0.28125 -0.10417,-0.55208 -0.20833,-1.10417 -0.3125,-1.65625 z m 0,2 c -8.09375,0.64583 -16.1875,1.29167 -24.28125,1.9375 8.19792,-0.0937 16.39583,-0.1875 24.59375,-0.28125 -0.10417,-0.55208 -0.20833,-1.10417 -0.3125,-1.65625 z m 0,4 c -8.09375,0.64583 -16.1875,1.29167 -24.28125,1.9375 8.19792,-0.0937 16.39583,-0.1875 24.59375,-0.28125 -0.10417,-0.55208 -0.20833,-1.10417 -0.3125,-1.65625 z m 0,3 c -8.09375,0.64583 -16.1875,1.29167 -24.28125,1.9375 8.19792,-0.0937 16.39583,-0.1875 24.59375,-0.28125 -0.10417,-0.55208 -0.20833,-1.10417 -0.3125,-1.65625 z"
         style="fill:url(#linearGradient5450);fill-opacity:1;fill-rule:evenodd;stroke:none;filter:url(#filter4214)"
         id="path3455" />
      <path
         transform="matrix(0.52739333,0,0,0.52739333,556.67771,-286.54563)"
         d="m 455.3584,468.4375 c -4.98958,0.0521 -9.97917,0.10417 -14.96875,0.15625 2.45152,3.41021 7.37897,0.0491 10.95502,0.38388 1.33791,-0.18004 2.67582,-0.36009 4.01373,-0.54013 z m 0,3 c -4.98958,0.0521 -9.97917,0.10417 -14.96875,0.15625 2.45152,3.41021 7.37897,0.0491 10.95502,0.38388 1.33791,-0.18004 2.67582,-0.36009 4.01373,-0.54013 z m -2,5 c -4.98958,0.10417 -9.97917,0.20833 -14.96875,0.3125 0.69674,5.61308 5.98229,1.49496 9.48873,1.14969 1.82667,-0.4874 3.65335,-0.97479 5.48002,-1.46219 z m 0,10 c -4.98958,0.10417 -9.97917,0.20833 -14.96875,0.3125 0.69674,5.61308 5.98229,1.49496 9.48873,1.14969 1.82667,-0.4874 3.65335,-0.97479 5.48002,-1.46219 z m 0,11 c -4.98958,0.10417 -9.97917,0.20833 -14.96875,0.3125 0.15888,4.77124 6.67444,0.25164 9.83124,0.64115 1.7125,-0.31788 3.42501,-0.63577 5.13751,-0.95365 z"
         style="fill:url(#linearGradient5452);fill-opacity:1;fill-rule:evenodd;stroke:none;filter:url(#filter4501)"
         id="path4246" />
      <path
         transform="matrix(0.52739333,0,0,0.52739333,556.67771,-286.54563)"
         d="m 458.97467,500.83122 c -3.34204,6.58991 -10.35231,6.12104 -16.87166,6.16893 -14.52882,0.59011 -29.0735,-0.36737 -43.51494,-1.93127 11.34248,0.0739 22.8069,0.73206 33.81359,-2.63269 2.55204,2.64638 13.86433,-0.006 21.22618,-0.70095 1.78913,-0.25829 3.57691,-0.53238 5.34683,-0.90402 z"
         style="fill:#120606;fill-opacity:1;fill-rule:evenodd;stroke:none;filter:url(#filter4579)"
         id="path4533" />
    </g>
  </g>
</svg>
